M48
; DRILL file {KiCad 8.0.6} date 2025-03-17T11:55:47+0800
; FORMAT={-:-/ absolute / metric / decimal}
; #@! TF.CreationDate,2025-03-17T11:55:47+08:00
; #@! TF.GenerationSoftware,Kicad,Pcbnew,8.0.6
; #@! TF.FileFunction,MixedPlating,1,2
FMAT,2
METRIC
; #@! TA.AperFunction,Plated,PTH,ComponentDrill
T1C1.000
; #@! TA.AperFunction,Plated,PTH,ComponentDrill
T2C1.100
; #@! TA.AperFunction,Plated,PTH,ComponentDrill
T3C1.118
; #@! TA.AperFunction,NonPlated,NPTH,ComponentDrill
T4C0.500
; #@! TA.AperFunction,NonPlated,NPTH,ComponentDrill
T5C2.200
; #@! TA.AperFunction,NonPlated,NPTH,ComponentDrill
T6C3.200
%
G90
G05
T1
X277.65Y-226.82
X277.65Y-242.06
X280.19Y-226.82
X280.19Y-242.06
X282.73Y-226.82
X282.73Y-242.06
X283.95Y-204.65
X284.83Y-273.08
X284.83Y-280.7
X285.27Y-226.82
X285.27Y-242.06
X286.49Y-204.65
X287.37Y-273.08
X287.37Y-280.7
X287.81Y-226.82
X287.81Y-242.06
X289.03Y-204.65
X289.91Y-273.08
X289.91Y-280.7
X290.35Y-226.82
X290.35Y-242.06
X291.57Y-204.65
X292.45Y-273.08
X292.45Y-280.7
X292.89Y-226.82
X292.89Y-242.06
X294.11Y-204.65
X295.43Y-226.82
X295.43Y-242.06
X296.65Y-204.65
X297.97Y-226.82
X297.97Y-242.06
X299.19Y-204.65
X300.51Y-226.82
X300.51Y-242.06
X301.73Y-204.65
X303.05Y-226.82
X303.05Y-242.06
X303.95Y-278.275
X304.27Y-204.65
X305.59Y-226.82
X305.59Y-242.06
X306.45Y-278.275
X306.81Y-204.65
X308.13Y-226.82
X308.13Y-242.06
X309.35Y-204.65
X310.67Y-226.82
X310.67Y-242.06
X313.21Y-226.82
X313.21Y-242.06
T2
X259.5Y-246.7
X259.5Y-249.2
X333.9Y-246.7
X333.9Y-249.2
T3
X287.785Y-249.3
X287.785Y-264.54
X290.325Y-249.3
X290.325Y-264.54
X292.865Y-249.3
X292.865Y-264.54
X295.405Y-249.3
X295.405Y-264.54
X297.945Y-249.3
X297.945Y-264.54
X300.485Y-249.3
X300.485Y-264.54
X303.025Y-249.3
X303.025Y-264.54
X305.565Y-249.3
X305.565Y-264.54
T4
X288.64Y-171.69
X288.64Y-178.94
X288.64Y-193.44
X304.64Y-193.44
X304.649Y-171.69
X304.649Y-178.94
T5
X254.45Y-258.2
X254.45Y-276.2
X261.745Y-138.227
X275.7Y-258.4
X275.7Y-276.2
X275.715Y-138.227
X280.795Y-138.227
X317.7Y-258.4
X317.7Y-276.2
X331.595Y-138.227
X338.95Y-258.2
X338.95Y-276.2
T6
X288.65Y-186.19
X304.65Y-186.19
M30
