M48
; DRILL file {KiCad 8.0.6} date 2025-02-20T18:25:46+0800
; FORMAT={-:-/ absolute / metric / decimal}
; #@! TF.CreationDate,2025-02-20T18:25:46+08:00
; #@! TF.GenerationSoftware,Kicad,Pcbnew,8.0.6
; #@! TF.FileFunction,MixedPlating,1,2
FMAT,2
METRIC
; #@! TA.AperFunction,Plated,PTH,ComponentDrill
T1C0.800
; #@! TA.AperFunction,Plated,PTH,ComponentDrill
T2C1.000
; #@! TA.AperFunction,Plated,PTH,ComponentDrill
T3C1.118
; #@! TA.AperFunction,NonPlated,NPTH,ComponentDrill
T4C2.200
; #@! TA.AperFunction,NonPlated,NPTH,ComponentDrill
T5C3.200
%
G90
G05
T1
X284.83Y-273.08
X284.83Y-280.7
X287.37Y-273.08
X287.37Y-280.7
X289.91Y-273.08
X289.91Y-280.7
X292.45Y-273.08
X292.45Y-280.7
T2
X259.5Y-246.7
X259.5Y-249.2
X277.65Y-226.82
X277.65Y-242.06
X280.19Y-226.82
X280.19Y-242.06
X282.73Y-226.82
X282.73Y-242.06
X285.27Y-226.82
X285.27Y-242.06
X287.81Y-226.82
X287.81Y-242.06
X287.83Y-221.65
X290.35Y-226.82
X290.35Y-242.06
X290.37Y-221.65
X292.89Y-226.82
X292.89Y-242.06
X292.91Y-221.65
X295.43Y-226.82
X295.43Y-242.06
X295.45Y-221.65
X297.97Y-226.82
X297.97Y-242.06
X297.99Y-221.65
X300.51Y-226.82
X300.51Y-242.06
X300.53Y-221.65
X303.05Y-226.82
X303.05Y-242.06
X303.07Y-221.65
X303.95Y-272.5
X305.59Y-226.82
X305.59Y-242.06
X305.61Y-221.65
X306.45Y-272.5
X308.13Y-226.82
X308.13Y-242.06
X309.275Y-218.45
X310.67Y-226.82
X310.67Y-242.06
X312.925Y-221.525
X313.21Y-226.82
X313.21Y-242.06
X315.465Y-221.525
X333.9Y-246.7
X333.9Y-249.2
T3
X287.785Y-249.3
X287.785Y-264.54
X290.325Y-249.3
X290.325Y-264.54
X292.865Y-249.3
X292.865Y-264.54
X295.405Y-249.3
X295.405Y-264.54
X297.945Y-249.3
X297.945Y-264.54
X300.485Y-249.3
X300.485Y-264.54
X303.025Y-249.3
X303.025Y-264.54
X305.565Y-249.3
X305.565Y-264.54
T4
X254.45Y-258.2
X254.45Y-276.2
X261.775Y-138.25
X275.745Y-138.25
X276.7Y-276.2
X277.7Y-258.4
X280.825Y-138.25
X315.7Y-258.4
X316.7Y-276.2
X331.625Y-138.25
X338.95Y-258.2
X338.95Y-276.2
T5
X288.65Y-177.4
X288.65Y-183.4
X288.65Y-189.4
X288.65Y-195.4
X304.65Y-177.4
X304.65Y-183.4
X304.65Y-189.4
X304.65Y-195.4
M30
