%TF.GenerationSoftware,KiCad,Pcbnew,8.0.3*%
%TF.CreationDate,2025-03-11T13:15:15+08:00*%
%TF.ProjectId,uyLy_LFChassis,75794c79-5f4c-4464-9368-61737369732e,rev?*%
%TF.SameCoordinates,Original*%
%TF.FileFunction,Profile,NP*%
%FSLAX46Y46*%
G04 Gerber Fmt 4.6, Leading zero omitted, Abs format (unit mm)*
G04 Created by KiCad (PCBNEW 8.0.3) date 2025-03-11 13:15:15*
%MOMM*%
%LPD*%
G01*
G04 APERTURE LIST*
%TA.AperFunction,Profile*%
%ADD10C,0.050000*%
%TD*%
G04 APERTURE END LIST*
D10*
X334850000Y-127450000D02*
X258550000Y-127400000D01*
X334850000Y-145450000D02*
X334850000Y-128450000D01*
X315700000Y-216700000D02*
X330950000Y-227700000D01*
X289140000Y-204130000D02*
X304140000Y-204130000D01*
X304140000Y-208010000D01*
X289140000Y-208010000D01*
X289140000Y-204130000D01*
X289130000Y-165360000D02*
X304130000Y-165360000D01*
X304130000Y-169240000D01*
X289130000Y-169240000D01*
X289130000Y-165360000D01*
X282300000Y-188450000D02*
X282310000Y-145450000D01*
X274310000Y-141450000D02*
X282310000Y-145450000D01*
X277700000Y-196700000D02*
X277700000Y-216700000D01*
X315700000Y-196700000D02*
X311100000Y-188440000D01*
X334850000Y-128450000D02*
X334850000Y-128050000D01*
X258550000Y-145450000D02*
X258550000Y-127400000D01*
X326200000Y-141450000D02*
X334200000Y-145450000D01*
X247700000Y-251700000D02*
X262450000Y-227700000D01*
X334850000Y-128050000D02*
X334850000Y-127450000D01*
X277700000Y-216700000D02*
X262450000Y-227700000D01*
X247700000Y-251700000D02*
X247700000Y-283200000D01*
X345700000Y-251700000D02*
X330950000Y-227700000D01*
X334200000Y-145450000D02*
X334850000Y-145450000D01*
X277700000Y-196700000D02*
X282300000Y-188450000D01*
X311090000Y-145450000D02*
X311100000Y-188440000D01*
X259200000Y-145450000D02*
X258550000Y-145450000D01*
X315700000Y-196700000D02*
X315700000Y-216700000D01*
X311090000Y-145450000D02*
X319090000Y-141450000D01*
X345700000Y-283200000D02*
X247700000Y-283200000D01*
X259200000Y-145450000D02*
X267200000Y-141450000D01*
X267200000Y-141450000D02*
X274310000Y-141450000D01*
X319090000Y-141450000D02*
X326200000Y-141450000D01*
X345700000Y-283200000D02*
X345700000Y-251700000D01*
M02*
