%TF.GenerationSoftware,KiCad,Pcbnew,8.0.3*%
%TF.CreationDate,2025-03-11T13:15:15+08:00*%
%TF.ProjectId,uyLy_LFChassis,75794c79-5f4c-4464-9368-61737369732e,rev?*%
%TF.SameCoordinates,Original*%
%TF.FileFunction,Other,User*%
%FSLAX46Y46*%
G04 Gerber Fmt 4.6, Leading zero omitted, Abs format (unit mm)*
G04 Created by KiCad (PCBNEW 8.0.3) date 2025-03-11 13:15:15*
%MOMM*%
%LPD*%
G01*
G04 APERTURE LIST*
%ADD10C,0.050000*%
G04 APERTURE END LIST*
D10*
%TO.C,REF\u002A\u002A*%
X308100000Y-183400000D02*
G75*
G02*
X301200000Y-183400000I-3450000J0D01*
G01*
X301200000Y-183400000D02*
G75*
G02*
X308100000Y-183400000I3450000J0D01*
G01*
%TO.C,J2*%
X324200000Y-243750000D02*
X324200000Y-252150000D01*
X324200000Y-252150000D02*
X336700000Y-252150000D01*
X336700000Y-243750000D02*
X324200000Y-243750000D01*
X336700000Y-252150000D02*
X336700000Y-243750000D01*
%TO.C,J4*%
X301000000Y-269700000D02*
X301000000Y-282200000D01*
X301000000Y-282200000D02*
X309400000Y-282200000D01*
X309400000Y-269700000D02*
X301000000Y-269700000D01*
X309400000Y-282200000D02*
X309400000Y-269700000D01*
%TO.C,REF\u002A\u002A*%
X319150000Y-276200000D02*
G75*
G02*
X314250000Y-276200000I-2450000J0D01*
G01*
X314250000Y-276200000D02*
G75*
G02*
X319150000Y-276200000I2450000J0D01*
G01*
X279150000Y-276200000D02*
G75*
G02*
X274250000Y-276200000I-2450000J0D01*
G01*
X274250000Y-276200000D02*
G75*
G02*
X279150000Y-276200000I2450000J0D01*
G01*
%TO.C,J6*%
X307475000Y-207900000D02*
X307475000Y-220250000D01*
X307475000Y-220250000D02*
X311075000Y-220250000D01*
X311075000Y-207900000D02*
X307475000Y-207900000D01*
X311075000Y-220250000D02*
X311075000Y-207900000D01*
%TO.C,SW1*%
X282130000Y-271750000D02*
X282130000Y-282050000D01*
X282130000Y-282050000D02*
X295130000Y-282050000D01*
X295130000Y-271750000D02*
X282130000Y-271750000D01*
X295130000Y-282050000D02*
X295130000Y-271750000D01*
%TO.C,REF\u002A\u002A*%
X308100000Y-195400000D02*
G75*
G02*
X301200000Y-195400000I-3450000J0D01*
G01*
X301200000Y-195400000D02*
G75*
G02*
X308100000Y-195400000I3450000J0D01*
G01*
X292100000Y-183400000D02*
G75*
G02*
X285200000Y-183400000I-3450000J0D01*
G01*
X285200000Y-183400000D02*
G75*
G02*
X292100000Y-183400000I3450000J0D01*
G01*
X264225000Y-138250000D02*
G75*
G02*
X259325000Y-138250000I-2450000J0D01*
G01*
X259325000Y-138250000D02*
G75*
G02*
X264225000Y-138250000I2450000J0D01*
G01*
X278195000Y-138250000D02*
G75*
G02*
X273295000Y-138250000I-2450000J0D01*
G01*
X273295000Y-138250000D02*
G75*
G02*
X278195000Y-138250000I2450000J0D01*
G01*
X283275000Y-138250000D02*
G75*
G02*
X278375000Y-138250000I-2450000J0D01*
G01*
X278375000Y-138250000D02*
G75*
G02*
X283275000Y-138250000I2450000J0D01*
G01*
X334075000Y-138250000D02*
G75*
G02*
X329175000Y-138250000I-2450000J0D01*
G01*
X329175000Y-138250000D02*
G75*
G02*
X334075000Y-138250000I2450000J0D01*
G01*
X292100000Y-195400000D02*
G75*
G02*
X285200000Y-195400000I-3450000J0D01*
G01*
X285200000Y-195400000D02*
G75*
G02*
X292100000Y-195400000I3450000J0D01*
G01*
%TO.C,J5*%
X311125000Y-210975000D02*
X311125000Y-223325000D01*
X311125000Y-223325000D02*
X317275000Y-223325000D01*
X317275000Y-210975000D02*
X311125000Y-210975000D01*
X317275000Y-223325000D02*
X317275000Y-210975000D01*
%TO.C,REF\u002A\u002A*%
X256900000Y-258200000D02*
G75*
G02*
X252000000Y-258200000I-2450000J0D01*
G01*
X252000000Y-258200000D02*
G75*
G02*
X256900000Y-258200000I2450000J0D01*
G01*
X256900000Y-276200000D02*
G75*
G02*
X252000000Y-276200000I-2450000J0D01*
G01*
X252000000Y-276200000D02*
G75*
G02*
X256900000Y-276200000I2450000J0D01*
G01*
X280150000Y-258400000D02*
G75*
G02*
X275250000Y-258400000I-2450000J0D01*
G01*
X275250000Y-258400000D02*
G75*
G02*
X280150000Y-258400000I2450000J0D01*
G01*
X292100000Y-177400000D02*
G75*
G02*
X285200000Y-177400000I-3450000J0D01*
G01*
X285200000Y-177400000D02*
G75*
G02*
X292100000Y-177400000I3450000J0D01*
G01*
X308100000Y-189400000D02*
G75*
G02*
X301200000Y-189400000I-3450000J0D01*
G01*
X301200000Y-189400000D02*
G75*
G02*
X308100000Y-189400000I3450000J0D01*
G01*
X308100000Y-177400000D02*
G75*
G02*
X301200000Y-177400000I-3450000J0D01*
G01*
X301200000Y-177400000D02*
G75*
G02*
X308100000Y-177400000I3450000J0D01*
G01*
%TO.C,A1*%
X273590000Y-243590000D02*
X273590000Y-225310000D01*
X273590000Y-243590000D02*
X319810000Y-243590000D01*
X319810000Y-225310000D02*
X273590000Y-225310000D01*
X319810000Y-225310000D02*
X319810000Y-243590000D01*
%TO.C,J3*%
X256700000Y-243750000D02*
X256700000Y-252150000D01*
X256700000Y-252150000D02*
X269200000Y-252150000D01*
X269200000Y-243750000D02*
X256700000Y-243750000D01*
X269200000Y-252150000D02*
X269200000Y-243750000D01*
%TO.C,J1*%
X286060000Y-219850000D02*
X286060000Y-223450000D01*
X286060000Y-223450000D02*
X307410000Y-223450000D01*
X307410000Y-219850000D02*
X286060000Y-219850000D01*
X307410000Y-223450000D02*
X307410000Y-219850000D01*
%TO.C,REF\u002A\u002A*%
X341400000Y-258200000D02*
G75*
G02*
X336500000Y-258200000I-2450000J0D01*
G01*
X336500000Y-258200000D02*
G75*
G02*
X341400000Y-258200000I2450000J0D01*
G01*
X341400000Y-276200000D02*
G75*
G02*
X336500000Y-276200000I-2450000J0D01*
G01*
X336500000Y-276200000D02*
G75*
G02*
X341400000Y-276200000I2450000J0D01*
G01*
X292100000Y-189400000D02*
G75*
G02*
X285200000Y-189400000I-3450000J0D01*
G01*
X285200000Y-189400000D02*
G75*
G02*
X292100000Y-189400000I3450000J0D01*
G01*
X318150000Y-258400000D02*
G75*
G02*
X313250000Y-258400000I-2450000J0D01*
G01*
X313250000Y-258400000D02*
G75*
G02*
X318150000Y-258400000I2450000J0D01*
G01*
%TD*%
M02*
