%TF.GenerationSoftware,KiCad,Pcbnew,8.0.6*%
%TF.CreationDate,2025-02-20T18:25:40+08:00*%
%TF.ProjectId,uyLy_LFChassis,75794c79-5f4c-4464-9368-61737369732e,rev?*%
%TF.SameCoordinates,Original*%
%TF.FileFunction,Copper,L1,Top*%
%TF.FilePolarity,Positive*%
%FSLAX46Y46*%
G04 Gerber Fmt 4.6, Leading zero omitted, Abs format (unit mm)*
G04 Created by KiCad (PCBNEW 8.0.6) date 2025-02-20 18:25:40*
%MOMM*%
%LPD*%
G01*
G04 APERTURE LIST*
G04 Aperture macros list*
%AMRoundRect*
0 Rectangle with rounded corners*
0 $1 Rounding radius*
0 $2 $3 $4 $5 $6 $7 $8 $9 X,Y pos of 4 corners*
0 Add a 4 corners polygon primitive as box body*
4,1,4,$2,$3,$4,$5,$6,$7,$8,$9,$2,$3,0*
0 Add four circle primitives for the rounded corners*
1,1,$1+$1,$2,$3*
1,1,$1+$1,$4,$5*
1,1,$1+$1,$6,$7*
1,1,$1+$1,$8,$9*
0 Add four rect primitives between the rounded corners*
20,1,$1+$1,$2,$3,$4,$5,0*
20,1,$1+$1,$4,$5,$6,$7,0*
20,1,$1+$1,$6,$7,$8,$9,0*
20,1,$1+$1,$8,$9,$2,$3,0*%
G04 Aperture macros list end*
%TA.AperFunction,ComponentPad*%
%ADD10RoundRect,0.250000X-0.750000X0.600000X-0.750000X-0.600000X0.750000X-0.600000X0.750000X0.600000X0*%
%TD*%
%TA.AperFunction,ComponentPad*%
%ADD11O,2.000000X1.700000*%
%TD*%
%TA.AperFunction,ComponentPad*%
%ADD12RoundRect,0.250000X-0.600000X-0.750000X0.600000X-0.750000X0.600000X0.750000X-0.600000X0.750000X0*%
%TD*%
%TA.AperFunction,ComponentPad*%
%ADD13O,1.700000X2.000000*%
%TD*%
%TA.AperFunction,ComponentPad*%
%ADD14R,1.700000X1.700000*%
%TD*%
%TA.AperFunction,ComponentPad*%
%ADD15R,1.600000X1.600000*%
%TD*%
%TA.AperFunction,ComponentPad*%
%ADD16O,1.600000X1.600000*%
%TD*%
%TA.AperFunction,ComponentPad*%
%ADD17O,1.700000X1.700000*%
%TD*%
%TA.AperFunction,ComponentPad*%
%ADD18RoundRect,0.250000X0.750000X-0.600000X0.750000X0.600000X-0.750000X0.600000X-0.750000X-0.600000X0*%
%TD*%
%TA.AperFunction,ComponentPad*%
%ADD19C,1.879600*%
%TD*%
G04 APERTURE END LIST*
D10*
%TO.P,J2,1,Pin_1*%
%TO.N,MOTORB2*%
X333900000Y-246700000D03*
D11*
%TO.P,J2,2,Pin_2*%
%TO.N,MOTORB1*%
X333900000Y-249200000D03*
%TD*%
D12*
%TO.P,J4,1,Pin_1*%
%TO.N,7.4V*%
X303950000Y-272500000D03*
D13*
%TO.P,J4,2,Pin_2*%
%TO.N,GND*%
X306450000Y-272500000D03*
%TD*%
D14*
%TO.P,J6,1,Pin_1*%
%TO.N,LED_CTRL*%
X309275000Y-218450000D03*
%TD*%
D15*
%TO.P,SW1,1*%
%TO.N,unconnected-(SW1-Pad1)*%
X284830000Y-280700000D03*
D16*
%TO.P,SW1,2*%
%TO.N,unconnected-(SW1-Pad2)*%
X287370000Y-280700000D03*
%TO.P,SW1,3*%
%TO.N,unconnected-(SW1-Pad3)*%
X289910000Y-280700000D03*
%TO.P,SW1,4*%
%TO.N,7.4V*%
X292450000Y-280700000D03*
%TO.P,SW1,5*%
%TO.N,7.4V_SW*%
X292450000Y-273080000D03*
%TO.P,SW1,6*%
%TO.N,unconnected-(SW1-Pad6)*%
X289910000Y-273080000D03*
%TO.P,SW1,7*%
%TO.N,unconnected-(SW1-Pad7)*%
X287370000Y-273080000D03*
%TO.P,SW1,8*%
%TO.N,unconnected-(SW1-Pad8)*%
X284830000Y-273080000D03*
%TD*%
D14*
%TO.P,J5,1,Pin_1*%
%TO.N,GND*%
X312925000Y-221525000D03*
D17*
%TO.P,J5,2,Pin_2*%
%TO.N,5V*%
X315465000Y-221525000D03*
%TD*%
D15*
%TO.P,A1,1,D1/TX*%
%TO.N,unconnected-(A1-D1{slash}TX-Pad1)*%
X277650000Y-242060000D03*
D16*
%TO.P,A1,2,D0/RX*%
%TO.N,unconnected-(A1-D0{slash}RX-Pad2)*%
X280190000Y-242060000D03*
%TO.P,A1,3,~{RESET}*%
%TO.N,unconnected-(A1-~{RESET}-Pad3)*%
X282730000Y-242060000D03*
%TO.P,A1,4,GND*%
%TO.N,GND*%
X285270000Y-242060000D03*
%TO.P,A1,5,D2*%
%TO.N,unconnected-(A1-D2-Pad5)*%
X287810000Y-242060000D03*
%TO.P,A1,6,D3*%
%TO.N,PWMA*%
X290350000Y-242060000D03*
%TO.P,A1,7,D4*%
%TO.N,unconnected-(A1-D4-Pad7)*%
X292890000Y-242060000D03*
%TO.P,A1,8,D5*%
%TO.N,unconnected-(A1-D5-Pad8)*%
X295430000Y-242060000D03*
%TO.P,A1,9,D6*%
%TO.N,LED_CTRL*%
X297970000Y-242060000D03*
%TO.P,A1,10,D7*%
%TO.N,AIN2*%
X300510000Y-242060000D03*
%TO.P,A1,11,D8*%
%TO.N,AIN1*%
X303050000Y-242060000D03*
%TO.P,A1,12,D9*%
%TO.N,BIN1*%
X305590000Y-242060000D03*
%TO.P,A1,13,D10*%
%TO.N,BIN2*%
X308130000Y-242060000D03*
%TO.P,A1,14,D11*%
%TO.N,PWMB*%
X310670000Y-242060000D03*
%TO.P,A1,15,D12*%
%TO.N,unconnected-(A1-D12-Pad15)*%
X313210000Y-242060000D03*
%TO.P,A1,16,D13*%
%TO.N,unconnected-(A1-D13-Pad16)*%
X313210000Y-226820000D03*
%TO.P,A1,17,3V3*%
%TO.N,unconnected-(A1-3V3-Pad17)*%
X310670000Y-226820000D03*
%TO.P,A1,18,AREF*%
%TO.N,unconnected-(A1-AREF-Pad18)*%
X308130000Y-226820000D03*
%TO.P,A1,19,A0*%
%TO.N,SENSOR8*%
X305590000Y-226820000D03*
%TO.P,A1,20,A1*%
%TO.N,SENSOR7*%
X303050000Y-226820000D03*
%TO.P,A1,21,A2*%
%TO.N,SENSOR6*%
X300510000Y-226820000D03*
%TO.P,A1,22,A3*%
%TO.N,SENSOR5*%
X297970000Y-226820000D03*
%TO.P,A1,23,A4*%
%TO.N,SENSOR4*%
X295430000Y-226820000D03*
%TO.P,A1,24,A5*%
%TO.N,SENSOR3*%
X292890000Y-226820000D03*
%TO.P,A1,25,A6*%
%TO.N,SENSOR2*%
X290350000Y-226820000D03*
%TO.P,A1,26,A7*%
%TO.N,SENSOR1*%
X287810000Y-226820000D03*
%TO.P,A1,27,+5V*%
%TO.N,5V*%
X285270000Y-226820000D03*
%TO.P,A1,28,~{RESET}*%
%TO.N,unconnected-(A1-~{RESET}-Pad28)*%
X282730000Y-226820000D03*
%TO.P,A1,29,GND*%
%TO.N,GND*%
X280190000Y-226820000D03*
%TO.P,A1,30,VIN*%
%TO.N,7.4V_SW*%
X277650000Y-226820000D03*
%TD*%
D18*
%TO.P,J3,1,Pin_1*%
%TO.N,MOTORA1*%
X259500000Y-249200000D03*
D11*
%TO.P,J3,2,Pin_2*%
%TO.N,MOTORA2*%
X259500000Y-246700000D03*
%TD*%
D14*
%TO.P,J1,1,Pin_1*%
%TO.N,SENSOR8*%
X305610000Y-221650000D03*
D17*
%TO.P,J1,2,Pin_2*%
%TO.N,SENSOR7*%
X303070000Y-221650000D03*
%TO.P,J1,3,Pin_3*%
%TO.N,SENSOR6*%
X300530000Y-221650000D03*
%TO.P,J1,4,Pin_4*%
%TO.N,SENSOR5*%
X297990000Y-221650000D03*
%TO.P,J1,5,Pin_5*%
%TO.N,SENSOR4*%
X295450000Y-221650000D03*
%TO.P,J1,6,Pin_6*%
%TO.N,SENSOR3*%
X292910000Y-221650000D03*
%TO.P,J1,7,Pin_7*%
%TO.N,SENSOR2*%
X290370000Y-221650000D03*
%TO.P,J1,8,Pin_8*%
%TO.N,SENSOR1*%
X287830000Y-221650000D03*
%TD*%
D19*
%TO.P,U1,1,VM*%
%TO.N,7.4V_SW*%
X287785000Y-264540000D03*
%TO.P,U1,2,VCC*%
%TO.N,5V*%
X290325000Y-264540000D03*
%TO.P,U1,3,GND*%
%TO.N,GND*%
X292865000Y-264540000D03*
%TO.P,U1,4,A01*%
%TO.N,MOTORA1*%
X295405000Y-264540000D03*
%TO.P,U1,5,A02*%
%TO.N,MOTORA2*%
X297945000Y-264540000D03*
%TO.P,U1,6,B02*%
%TO.N,MOTORB2*%
X300485000Y-264540000D03*
%TO.P,U1,7,B01*%
%TO.N,MOTORB1*%
X303025000Y-264540000D03*
%TO.P,U1,8,GND*%
%TO.N,GND*%
X305565000Y-264540000D03*
%TO.P,U1,9,GND*%
X305565000Y-249300000D03*
%TO.P,U1,10,PWMB*%
%TO.N,PWMB*%
X303025000Y-249300000D03*
%TO.P,U1,11,BIN2*%
%TO.N,BIN2*%
X300485000Y-249300000D03*
%TO.P,U1,12,BIN1*%
%TO.N,BIN1*%
X297945000Y-249300000D03*
%TO.P,U1,13,STBY*%
%TO.N,5V*%
X295405000Y-249300000D03*
%TO.P,U1,14,AIN1*%
%TO.N,AIN1*%
X292865000Y-249300000D03*
%TO.P,U1,15,AIN1*%
%TO.N,AIN2*%
X290325000Y-249300000D03*
%TO.P,U1,16,PWMA*%
%TO.N,PWMA*%
X287785000Y-249300000D03*
%TD*%
%TA.AperFunction,Conductor*%
%TO.N,GND*%
G36*
X334225583Y-127950090D02*
G01*
X334292608Y-127969819D01*
X334338328Y-128022652D01*
X334349500Y-128074090D01*
X334349500Y-144764538D01*
X334329815Y-144831577D01*
X334277011Y-144877332D01*
X334207853Y-144887276D01*
X334170046Y-144875447D01*
X326440572Y-141010710D01*
X326434038Y-141007194D01*
X326393186Y-140983608D01*
X326393185Y-140983607D01*
X326393184Y-140983607D01*
X326393180Y-140983605D01*
X326390615Y-140982918D01*
X326367268Y-140974057D01*
X326364896Y-140972871D01*
X326364893Y-140972870D01*
X326318680Y-140963413D01*
X326311452Y-140961707D01*
X326304696Y-140959896D01*
X326265895Y-140949500D01*
X326265892Y-140949500D01*
X326263244Y-140949500D01*
X326238386Y-140946983D01*
X326235785Y-140946450D01*
X326188705Y-140949277D01*
X326181275Y-140949500D01*
X315494957Y-140949500D01*
X315477196Y-140948221D01*
X315456481Y-140945223D01*
X315427696Y-140948637D01*
X315413092Y-140949500D01*
X315384106Y-140949500D01*
X315363880Y-140954919D01*
X315346403Y-140958278D01*
X315325617Y-140960744D01*
X315325613Y-140960745D01*
X315298692Y-140971493D01*
X315284812Y-140976105D01*
X315256820Y-140983605D01*
X315256807Y-140983611D01*
X315238674Y-140994079D01*
X315222665Y-141001846D01*
X315203233Y-141009605D01*
X315203220Y-141009612D01*
X315180000Y-141026959D01*
X315167795Y-141035002D01*
X315142684Y-141049501D01*
X315127883Y-141064302D01*
X315114421Y-141075956D01*
X310830004Y-144276956D01*
X310817793Y-144285003D01*
X310792686Y-144299500D01*
X310777879Y-144314306D01*
X310764426Y-144325951D01*
X310747655Y-144338482D01*
X310747647Y-144338490D01*
X310729713Y-144361250D01*
X310720003Y-144372181D01*
X310699500Y-144392685D01*
X310689032Y-144410815D01*
X310679050Y-144425549D01*
X310666090Y-144441998D01*
X310666086Y-144442004D01*
X310654649Y-144468642D01*
X310648098Y-144481714D01*
X310633610Y-144506810D01*
X310633606Y-144506820D01*
X310628190Y-144527032D01*
X310622360Y-144543851D01*
X310614102Y-144563086D01*
X310614099Y-144563097D01*
X310609947Y-144591782D01*
X310607001Y-144606108D01*
X310599501Y-144634100D01*
X310599500Y-144634108D01*
X310599500Y-144655043D01*
X310598221Y-144672804D01*
X310595223Y-144693515D01*
X310595223Y-144693521D01*
X310598637Y-144722301D01*
X310599500Y-144736906D01*
X310599500Y-188445304D01*
X310599486Y-188447159D01*
X310598569Y-188508399D01*
X310598667Y-188509236D01*
X310598701Y-188509832D01*
X310598884Y-188511221D01*
X310599104Y-188512990D01*
X310599277Y-188514474D01*
X310599391Y-188515070D01*
X310599498Y-188515889D01*
X310615341Y-188575015D01*
X310615807Y-188576806D01*
X310630772Y-188636191D01*
X310631087Y-188636984D01*
X310631281Y-188637571D01*
X310631830Y-188638895D01*
X310632524Y-188640606D01*
X310633015Y-188641843D01*
X310633272Y-188642375D01*
X310633607Y-188643183D01*
X310633608Y-188643186D01*
X310664227Y-188696220D01*
X310664241Y-188696244D01*
X310665155Y-188697856D01*
X311834059Y-190794260D01*
X315183802Y-196801951D01*
X315199500Y-196862337D01*
X315199500Y-216668335D01*
X315198865Y-216680871D01*
X315195402Y-216714946D01*
X315195402Y-216714948D01*
X315197906Y-216730411D01*
X315199500Y-216750230D01*
X315199500Y-216765893D01*
X315208361Y-216798966D01*
X315210990Y-216811233D01*
X315216463Y-216845033D01*
X315216464Y-216845034D01*
X315216464Y-216845035D01*
X315216465Y-216845037D01*
X315218830Y-216850300D01*
X315222884Y-216859323D01*
X315229552Y-216878050D01*
X315233607Y-216893186D01*
X315233608Y-216893187D01*
X315250726Y-216922836D01*
X315256443Y-216934009D01*
X315270479Y-216965243D01*
X315280380Y-216977385D01*
X315291663Y-216993741D01*
X315299500Y-217007314D01*
X315323717Y-217031531D01*
X315332125Y-217040837D01*
X315353765Y-217067373D01*
X315366474Y-217076540D01*
X315381608Y-217089422D01*
X315392686Y-217100500D01*
X315422074Y-217117467D01*
X315422335Y-217117618D01*
X315432876Y-217124437D01*
X330555896Y-228032845D01*
X330588998Y-228068486D01*
X330607672Y-228098871D01*
X345181143Y-251811635D01*
X345199500Y-251876561D01*
X345199500Y-282575500D01*
X345179815Y-282642539D01*
X345127011Y-282688294D01*
X345075500Y-282699500D01*
X248324500Y-282699500D01*
X248257461Y-282679815D01*
X248211706Y-282627011D01*
X248200500Y-282575500D01*
X248200500Y-279880247D01*
X283829500Y-279880247D01*
X283829500Y-281519752D01*
X283841131Y-281578229D01*
X283841132Y-281578230D01*
X283885447Y-281644552D01*
X283951769Y-281688867D01*
X283951770Y-281688868D01*
X284010247Y-281700499D01*
X284010250Y-281700500D01*
X284010252Y-281700500D01*
X285649750Y-281700500D01*
X285649751Y-281700499D01*
X285664568Y-281697552D01*
X285708229Y-281688868D01*
X285708229Y-281688867D01*
X285708231Y-281688867D01*
X285774552Y-281644552D01*
X285818867Y-281578231D01*
X285818867Y-281578229D01*
X285818868Y-281578229D01*
X285830499Y-281519752D01*
X285830500Y-281519750D01*
X285830500Y-280700000D01*
X286364659Y-280700000D01*
X286383975Y-280896129D01*
X286441188Y-281084733D01*
X286534086Y-281258532D01*
X286534090Y-281258539D01*
X286659116Y-281410883D01*
X286811460Y-281535909D01*
X286811467Y-281535913D01*
X286985266Y-281628811D01*
X286985269Y-281628811D01*
X286985273Y-281628814D01*
X287173868Y-281686024D01*
X287370000Y-281705341D01*
X287566132Y-281686024D01*
X287754727Y-281628814D01*
X287928538Y-281535910D01*
X288080883Y-281410883D01*
X288205910Y-281258538D01*
X288298814Y-281084727D01*
X288356024Y-280896132D01*
X288375341Y-280700000D01*
X288904659Y-280700000D01*
X288923975Y-280896129D01*
X288981188Y-281084733D01*
X289074086Y-281258532D01*
X289074090Y-281258539D01*
X289199116Y-281410883D01*
X289351460Y-281535909D01*
X289351467Y-281535913D01*
X289525266Y-281628811D01*
X289525269Y-281628811D01*
X289525273Y-281628814D01*
X289713868Y-281686024D01*
X289910000Y-281705341D01*
X290106132Y-281686024D01*
X290294727Y-281628814D01*
X290468538Y-281535910D01*
X290620883Y-281410883D01*
X290745910Y-281258538D01*
X290838814Y-281084727D01*
X290896024Y-280896132D01*
X290915341Y-280700000D01*
X291444659Y-280700000D01*
X291463975Y-280896129D01*
X291521188Y-281084733D01*
X291614086Y-281258532D01*
X291614090Y-281258539D01*
X291739116Y-281410883D01*
X291891460Y-281535909D01*
X291891467Y-281535913D01*
X292065266Y-281628811D01*
X292065269Y-281628811D01*
X292065273Y-281628814D01*
X292253868Y-281686024D01*
X292450000Y-281705341D01*
X292646132Y-281686024D01*
X292834727Y-281628814D01*
X293008538Y-281535910D01*
X293160883Y-281410883D01*
X293285910Y-281258538D01*
X293378814Y-281084727D01*
X293436024Y-280896132D01*
X293455341Y-280700000D01*
X293436024Y-280503868D01*
X293378814Y-280315273D01*
X293378811Y-280315269D01*
X293378811Y-280315266D01*
X293285913Y-280141467D01*
X293285909Y-280141460D01*
X293160883Y-279989116D01*
X293008539Y-279864090D01*
X293008532Y-279864086D01*
X292834733Y-279771188D01*
X292834727Y-279771186D01*
X292646132Y-279713976D01*
X292646129Y-279713975D01*
X292450000Y-279694659D01*
X292253870Y-279713975D01*
X292065266Y-279771188D01*
X291891467Y-279864086D01*
X291891460Y-279864090D01*
X291739116Y-279989116D01*
X291614090Y-280141460D01*
X291614086Y-280141467D01*
X291521188Y-280315266D01*
X291463975Y-280503870D01*
X291444659Y-280700000D01*
X290915341Y-280700000D01*
X290896024Y-280503868D01*
X290838814Y-280315273D01*
X290838811Y-280315269D01*
X290838811Y-280315266D01*
X290745913Y-280141467D01*
X290745909Y-280141460D01*
X290620883Y-279989116D01*
X290468539Y-279864090D01*
X290468532Y-279864086D01*
X290294733Y-279771188D01*
X290294727Y-279771186D01*
X290106132Y-279713976D01*
X290106129Y-279713975D01*
X289910000Y-279694659D01*
X289713870Y-279713975D01*
X289525266Y-279771188D01*
X289351467Y-279864086D01*
X289351460Y-279864090D01*
X289199116Y-279989116D01*
X289074090Y-280141460D01*
X289074086Y-280141467D01*
X288981188Y-280315266D01*
X288923975Y-280503870D01*
X288904659Y-280700000D01*
X288375341Y-280700000D01*
X288356024Y-280503868D01*
X288298814Y-280315273D01*
X288298811Y-280315269D01*
X288298811Y-280315266D01*
X288205913Y-280141467D01*
X288205909Y-280141460D01*
X288080883Y-279989116D01*
X287928539Y-279864090D01*
X287928532Y-279864086D01*
X287754733Y-279771188D01*
X287754727Y-279771186D01*
X287566132Y-279713976D01*
X287566129Y-279713975D01*
X287370000Y-279694659D01*
X287173870Y-279713975D01*
X286985266Y-279771188D01*
X286811467Y-279864086D01*
X286811460Y-279864090D01*
X286659116Y-279989116D01*
X286534090Y-280141460D01*
X286534086Y-280141467D01*
X286441188Y-280315266D01*
X286383975Y-280503870D01*
X286364659Y-280700000D01*
X285830500Y-280700000D01*
X285830500Y-279880249D01*
X285830499Y-279880247D01*
X285818868Y-279821770D01*
X285818867Y-279821769D01*
X285774552Y-279755447D01*
X285708230Y-279711132D01*
X285708229Y-279711131D01*
X285649752Y-279699500D01*
X285649748Y-279699500D01*
X284010252Y-279699500D01*
X284010247Y-279699500D01*
X283951770Y-279711131D01*
X283951769Y-279711132D01*
X283885447Y-279755447D01*
X283841132Y-279821769D01*
X283841131Y-279821770D01*
X283829500Y-279880247D01*
X248200500Y-279880247D01*
X248200500Y-276093713D01*
X253099500Y-276093713D01*
X253099500Y-276306286D01*
X253132753Y-276516239D01*
X253198444Y-276718414D01*
X253294951Y-276907820D01*
X253419890Y-277079786D01*
X253570213Y-277230109D01*
X253742179Y-277355048D01*
X253742181Y-277355049D01*
X253742184Y-277355051D01*
X253931588Y-277451557D01*
X254133757Y-277517246D01*
X254343713Y-277550500D01*
X254343714Y-277550500D01*
X254556286Y-277550500D01*
X254556287Y-277550500D01*
X254766243Y-277517246D01*
X254968412Y-277451557D01*
X255157816Y-277355051D01*
X255179789Y-277339086D01*
X255329786Y-277230109D01*
X255329788Y-277230106D01*
X255329792Y-277230104D01*
X255480104Y-277079792D01*
X255480106Y-277079788D01*
X255480109Y-277079786D01*
X255605048Y-276907820D01*
X255605047Y-276907820D01*
X255605051Y-276907816D01*
X255701557Y-276718412D01*
X255767246Y-276516243D01*
X255800500Y-276306287D01*
X255800500Y-276093713D01*
X275349500Y-276093713D01*
X275349500Y-276306286D01*
X275382753Y-276516239D01*
X275448444Y-276718414D01*
X275544951Y-276907820D01*
X275669890Y-277079786D01*
X275820213Y-277230109D01*
X275992179Y-277355048D01*
X275992181Y-277355049D01*
X275992184Y-277355051D01*
X276181588Y-277451557D01*
X276383757Y-277517246D01*
X276593713Y-277550500D01*
X276593714Y-277550500D01*
X276806286Y-277550500D01*
X276806287Y-277550500D01*
X277016243Y-277517246D01*
X277218412Y-277451557D01*
X277407816Y-277355051D01*
X277429789Y-277339086D01*
X277579786Y-277230109D01*
X277579788Y-277230106D01*
X277579792Y-277230104D01*
X277730104Y-277079792D01*
X277730106Y-277079788D01*
X277730109Y-277079786D01*
X277855048Y-276907820D01*
X277855047Y-276907820D01*
X277855051Y-276907816D01*
X277951557Y-276718412D01*
X278017246Y-276516243D01*
X278050500Y-276306287D01*
X278050500Y-276093713D01*
X315349500Y-276093713D01*
X315349500Y-276306286D01*
X315382753Y-276516239D01*
X315448444Y-276718414D01*
X315544951Y-276907820D01*
X315669890Y-277079786D01*
X315820213Y-277230109D01*
X315992179Y-277355048D01*
X315992181Y-277355049D01*
X315992184Y-277355051D01*
X316181588Y-277451557D01*
X316383757Y-277517246D01*
X316593713Y-277550500D01*
X316593714Y-277550500D01*
X316806286Y-277550500D01*
X316806287Y-277550500D01*
X317016243Y-277517246D01*
X317218412Y-277451557D01*
X317407816Y-277355051D01*
X317429789Y-277339086D01*
X317579786Y-277230109D01*
X317579788Y-277230106D01*
X317579792Y-277230104D01*
X317730104Y-277079792D01*
X317730106Y-277079788D01*
X317730109Y-277079786D01*
X317855048Y-276907820D01*
X317855047Y-276907820D01*
X317855051Y-276907816D01*
X317951557Y-276718412D01*
X318017246Y-276516243D01*
X318050500Y-276306287D01*
X318050500Y-276093713D01*
X337599500Y-276093713D01*
X337599500Y-276306286D01*
X337632753Y-276516239D01*
X337698444Y-276718414D01*
X337794951Y-276907820D01*
X337919890Y-277079786D01*
X338070213Y-277230109D01*
X338242179Y-277355048D01*
X338242181Y-277355049D01*
X338242184Y-277355051D01*
X338431588Y-277451557D01*
X338633757Y-277517246D01*
X338843713Y-277550500D01*
X338843714Y-277550500D01*
X339056286Y-277550500D01*
X339056287Y-277550500D01*
X339266243Y-277517246D01*
X339468412Y-277451557D01*
X339657816Y-277355051D01*
X339679789Y-277339086D01*
X339829786Y-277230109D01*
X339829788Y-277230106D01*
X339829792Y-277230104D01*
X339980104Y-277079792D01*
X339980106Y-277079788D01*
X339980109Y-277079786D01*
X340105048Y-276907820D01*
X340105047Y-276907820D01*
X340105051Y-276907816D01*
X340201557Y-276718412D01*
X340267246Y-276516243D01*
X340300500Y-276306287D01*
X340300500Y-276093713D01*
X340267246Y-275883757D01*
X340201557Y-275681588D01*
X340105051Y-275492184D01*
X340105049Y-275492181D01*
X340105048Y-275492179D01*
X339980109Y-275320213D01*
X339829786Y-275169890D01*
X339657820Y-275044951D01*
X339468414Y-274948444D01*
X339468413Y-274948443D01*
X339468412Y-274948443D01*
X339266243Y-274882754D01*
X339266241Y-274882753D01*
X339266240Y-274882753D01*
X339104957Y-274857208D01*
X339056287Y-274849500D01*
X338843713Y-274849500D01*
X338795042Y-274857208D01*
X338633760Y-274882753D01*
X338431585Y-274948444D01*
X338242179Y-275044951D01*
X338070213Y-275169890D01*
X337919890Y-275320213D01*
X337794951Y-275492179D01*
X337698444Y-275681585D01*
X337632753Y-275883760D01*
X337599500Y-276093713D01*
X318050500Y-276093713D01*
X318017246Y-275883757D01*
X317951557Y-275681588D01*
X317855051Y-275492184D01*
X317855049Y-275492181D01*
X317855048Y-275492179D01*
X317730109Y-275320213D01*
X317579786Y-275169890D01*
X317407820Y-275044951D01*
X317218414Y-274948444D01*
X317218413Y-274948443D01*
X317218412Y-274948443D01*
X317016243Y-274882754D01*
X317016241Y-274882753D01*
X317016240Y-274882753D01*
X316854957Y-274857208D01*
X316806287Y-274849500D01*
X316593713Y-274849500D01*
X316545042Y-274857208D01*
X316383760Y-274882753D01*
X316181585Y-274948444D01*
X315992179Y-275044951D01*
X315820213Y-275169890D01*
X315669890Y-275320213D01*
X315544951Y-275492179D01*
X315448444Y-275681585D01*
X315382753Y-275883760D01*
X315349500Y-276093713D01*
X278050500Y-276093713D01*
X278017246Y-275883757D01*
X277951557Y-275681588D01*
X277855051Y-275492184D01*
X277855049Y-275492181D01*
X277855048Y-275492179D01*
X277730109Y-275320213D01*
X277579786Y-275169890D01*
X277407820Y-275044951D01*
X277218414Y-274948444D01*
X277218413Y-274948443D01*
X277218412Y-274948443D01*
X277016243Y-274882754D01*
X277016241Y-274882753D01*
X277016240Y-274882753D01*
X276854957Y-274857208D01*
X276806287Y-274849500D01*
X276593713Y-274849500D01*
X276545042Y-274857208D01*
X276383760Y-274882753D01*
X276181585Y-274948444D01*
X275992179Y-275044951D01*
X275820213Y-275169890D01*
X275669890Y-275320213D01*
X275544951Y-275492179D01*
X275448444Y-275681585D01*
X275382753Y-275883760D01*
X275349500Y-276093713D01*
X255800500Y-276093713D01*
X255767246Y-275883757D01*
X255701557Y-275681588D01*
X255605051Y-275492184D01*
X255605049Y-275492181D01*
X255605048Y-275492179D01*
X255480109Y-275320213D01*
X255329786Y-275169890D01*
X255157820Y-275044951D01*
X254968414Y-274948444D01*
X254968413Y-274948443D01*
X254968412Y-274948443D01*
X254766243Y-274882754D01*
X254766241Y-274882753D01*
X254766240Y-274882753D01*
X254604957Y-274857208D01*
X254556287Y-274849500D01*
X254343713Y-274849500D01*
X254295042Y-274857208D01*
X254133760Y-274882753D01*
X253931585Y-274948444D01*
X253742179Y-275044951D01*
X253570213Y-275169890D01*
X253419890Y-275320213D01*
X253294951Y-275492179D01*
X253198444Y-275681585D01*
X253132753Y-275883760D01*
X253099500Y-276093713D01*
X248200500Y-276093713D01*
X248200500Y-273080000D01*
X283824659Y-273080000D01*
X283843975Y-273276129D01*
X283901188Y-273464733D01*
X283994086Y-273638532D01*
X283994090Y-273638539D01*
X284119116Y-273790883D01*
X284271460Y-273915909D01*
X284271467Y-273915913D01*
X284445266Y-274008811D01*
X284445269Y-274008811D01*
X284445273Y-274008814D01*
X284633868Y-274066024D01*
X284830000Y-274085341D01*
X285026132Y-274066024D01*
X285214727Y-274008814D01*
X285273817Y-273977230D01*
X285388532Y-273915913D01*
X285388538Y-273915910D01*
X285540883Y-273790883D01*
X285665910Y-273638538D01*
X285758814Y-273464727D01*
X285816024Y-273276132D01*
X285835341Y-273080000D01*
X286364659Y-273080000D01*
X286383975Y-273276129D01*
X286441188Y-273464733D01*
X286534086Y-273638532D01*
X286534090Y-273638539D01*
X286659116Y-273790883D01*
X286811460Y-273915909D01*
X286811467Y-273915913D01*
X286985266Y-274008811D01*
X286985269Y-274008811D01*
X286985273Y-274008814D01*
X287173868Y-274066024D01*
X287370000Y-274085341D01*
X287566132Y-274066024D01*
X287754727Y-274008814D01*
X287813817Y-273977230D01*
X287928532Y-273915913D01*
X287928538Y-273915910D01*
X288080883Y-273790883D01*
X288205910Y-273638538D01*
X288298814Y-273464727D01*
X288356024Y-273276132D01*
X288375341Y-273080000D01*
X288904659Y-273080000D01*
X288923975Y-273276129D01*
X288981188Y-273464733D01*
X289074086Y-273638532D01*
X289074090Y-273638539D01*
X289199116Y-273790883D01*
X289351460Y-273915909D01*
X289351467Y-273915913D01*
X289525266Y-274008811D01*
X289525269Y-274008811D01*
X289525273Y-274008814D01*
X289713868Y-274066024D01*
X289910000Y-274085341D01*
X290106132Y-274066024D01*
X290294727Y-274008814D01*
X290353817Y-273977230D01*
X290468532Y-273915913D01*
X290468538Y-273915910D01*
X290620883Y-273790883D01*
X290745910Y-273638538D01*
X290838814Y-273464727D01*
X290896024Y-273276132D01*
X290915341Y-273080000D01*
X291444659Y-273080000D01*
X291463975Y-273276129D01*
X291521188Y-273464733D01*
X291614086Y-273638532D01*
X291614090Y-273638539D01*
X291739116Y-273790883D01*
X291891460Y-273915909D01*
X291891467Y-273915913D01*
X292065266Y-274008811D01*
X292065269Y-274008811D01*
X292065273Y-274008814D01*
X292253868Y-274066024D01*
X292450000Y-274085341D01*
X292646132Y-274066024D01*
X292834727Y-274008814D01*
X292893817Y-273977230D01*
X293008532Y-273915913D01*
X293008538Y-273915910D01*
X293160883Y-273790883D01*
X293285910Y-273638538D01*
X293378814Y-273464727D01*
X293436024Y-273276132D01*
X293455341Y-273080000D01*
X293436024Y-272883868D01*
X293378814Y-272695273D01*
X293378811Y-272695269D01*
X293378811Y-272695266D01*
X293285913Y-272521467D01*
X293285909Y-272521460D01*
X293160883Y-272369116D01*
X293008539Y-272244090D01*
X293008532Y-272244086D01*
X292834733Y-272151188D01*
X292834727Y-272151186D01*
X292646132Y-272093976D01*
X292646129Y-272093975D01*
X292450000Y-272074659D01*
X292253870Y-272093975D01*
X292065266Y-272151188D01*
X291891467Y-272244086D01*
X291891460Y-272244090D01*
X291739116Y-272369116D01*
X291614090Y-272521460D01*
X291614086Y-272521467D01*
X291521188Y-272695266D01*
X291463975Y-272883870D01*
X291444659Y-273080000D01*
X290915341Y-273080000D01*
X290896024Y-272883868D01*
X290838814Y-272695273D01*
X290838811Y-272695269D01*
X290838811Y-272695266D01*
X290745913Y-272521467D01*
X290745909Y-272521460D01*
X290620883Y-272369116D01*
X290468539Y-272244090D01*
X290468532Y-272244086D01*
X290294733Y-272151188D01*
X290294727Y-272151186D01*
X290106132Y-272093976D01*
X290106129Y-272093975D01*
X289910000Y-272074659D01*
X289713870Y-272093975D01*
X289525266Y-272151188D01*
X289351467Y-272244086D01*
X289351460Y-272244090D01*
X289199116Y-272369116D01*
X289074090Y-272521460D01*
X289074086Y-272521467D01*
X288981188Y-272695266D01*
X288923975Y-272883870D01*
X288904659Y-273080000D01*
X288375341Y-273080000D01*
X288356024Y-272883868D01*
X288298814Y-272695273D01*
X288298811Y-272695269D01*
X288298811Y-272695266D01*
X288205913Y-272521467D01*
X288205909Y-272521460D01*
X288080883Y-272369116D01*
X287928539Y-272244090D01*
X287928532Y-272244086D01*
X287754733Y-272151188D01*
X287754727Y-272151186D01*
X287566132Y-272093976D01*
X287566129Y-272093975D01*
X287370000Y-272074659D01*
X287173870Y-272093975D01*
X286985266Y-272151188D01*
X286811467Y-272244086D01*
X286811460Y-272244090D01*
X286659116Y-272369116D01*
X286534090Y-272521460D01*
X286534086Y-272521467D01*
X286441188Y-272695266D01*
X286383975Y-272883870D01*
X286364659Y-273080000D01*
X285835341Y-273080000D01*
X285816024Y-272883868D01*
X285758814Y-272695273D01*
X285758811Y-272695269D01*
X285758811Y-272695266D01*
X285665913Y-272521467D01*
X285665909Y-272521460D01*
X285540883Y-272369116D01*
X285388539Y-272244090D01*
X285388532Y-272244086D01*
X285214733Y-272151188D01*
X285214727Y-272151186D01*
X285026132Y-272093976D01*
X285026129Y-272093975D01*
X284830000Y-272074659D01*
X284633870Y-272093975D01*
X284445266Y-272151188D01*
X284271467Y-272244086D01*
X284271460Y-272244090D01*
X284119116Y-272369116D01*
X283994090Y-272521460D01*
X283994086Y-272521467D01*
X283901188Y-272695266D01*
X283843975Y-272883870D01*
X283824659Y-273080000D01*
X248200500Y-273080000D01*
X248200500Y-271695730D01*
X302899500Y-271695730D01*
X302899500Y-273304269D01*
X302902353Y-273334699D01*
X302902353Y-273334701D01*
X302947206Y-273462880D01*
X302947207Y-273462882D01*
X303027850Y-273572150D01*
X303137118Y-273652793D01*
X303179845Y-273667744D01*
X303265299Y-273697646D01*
X303295730Y-273700500D01*
X303295734Y-273700500D01*
X304604270Y-273700500D01*
X304634699Y-273697646D01*
X304634701Y-273697646D01*
X304698790Y-273675219D01*
X304762882Y-273652793D01*
X304872150Y-273572150D01*
X304952793Y-273462882D01*
X304989648Y-273357557D01*
X304997646Y-273334701D01*
X304997646Y-273334699D01*
X305000500Y-273304269D01*
X305000500Y-273295323D01*
X305020185Y-273228284D01*
X305072989Y-273182529D01*
X305142147Y-273172585D01*
X305205703Y-273201610D01*
X305234985Y-273239028D01*
X305295379Y-273357557D01*
X305420272Y-273529459D01*
X305420276Y-273529464D01*
X305570535Y-273679723D01*
X305570540Y-273679727D01*
X305742442Y-273804620D01*
X305931782Y-273901095D01*
X306133871Y-273966757D01*
X306200000Y-273977231D01*
X306200000Y-272933012D01*
X306257007Y-272965925D01*
X306384174Y-273000000D01*
X306515826Y-273000000D01*
X306642993Y-272965925D01*
X306700000Y-272933012D01*
X306700000Y-273977230D01*
X306766126Y-273966757D01*
X306766129Y-273966757D01*
X306968217Y-273901095D01*
X307157557Y-273804620D01*
X307329459Y-273679727D01*
X307329464Y-273679723D01*
X307479723Y-273529464D01*
X307479727Y-273529459D01*
X307604620Y-273357557D01*
X307701095Y-273168217D01*
X307766757Y-272966130D01*
X307766757Y-272966127D01*
X307800000Y-272756246D01*
X307800000Y-272750000D01*
X306883012Y-272750000D01*
X306915925Y-272692993D01*
X306950000Y-272565826D01*
X306950000Y-272434174D01*
X306915925Y-272307007D01*
X306883012Y-272250000D01*
X307800000Y-272250000D01*
X307800000Y-272243753D01*
X307766757Y-272033872D01*
X307766757Y-272033869D01*
X307701095Y-271831782D01*
X307604620Y-271642442D01*
X307479727Y-271470540D01*
X307479723Y-271470535D01*
X307329464Y-271320276D01*
X307329459Y-271320272D01*
X307157557Y-271195379D01*
X306968215Y-271098903D01*
X306766124Y-271033241D01*
X306700000Y-271022768D01*
X306700000Y-272066988D01*
X306642993Y-272034075D01*
X306515826Y-272000000D01*
X306384174Y-272000000D01*
X306257007Y-272034075D01*
X306200000Y-272066988D01*
X306200000Y-271022768D01*
X306199999Y-271022768D01*
X306133875Y-271033241D01*
X305931784Y-271098903D01*
X305742442Y-271195379D01*
X305570540Y-271320272D01*
X305570535Y-271320276D01*
X305420276Y-271470535D01*
X305420272Y-271470540D01*
X305295379Y-271642442D01*
X305234985Y-271760971D01*
X305187010Y-271811767D01*
X305119189Y-271828562D01*
X305053054Y-271806024D01*
X305009603Y-271751309D01*
X305000500Y-271704676D01*
X305000500Y-271695730D01*
X304997646Y-271665300D01*
X304997646Y-271665298D01*
X304952793Y-271537119D01*
X304952792Y-271537117D01*
X304903656Y-271470540D01*
X304872150Y-271427850D01*
X304762882Y-271347207D01*
X304762880Y-271347206D01*
X304634700Y-271302353D01*
X304604270Y-271299500D01*
X304604266Y-271299500D01*
X303295734Y-271299500D01*
X303295730Y-271299500D01*
X303265300Y-271302353D01*
X303265298Y-271302353D01*
X303137119Y-271347206D01*
X303137117Y-271347207D01*
X303027850Y-271427850D01*
X302947207Y-271537117D01*
X302947206Y-271537119D01*
X302902353Y-271665298D01*
X302902353Y-271665300D01*
X302899500Y-271695730D01*
X248200500Y-271695730D01*
X248200500Y-264539999D01*
X286639815Y-264539999D01*
X286639815Y-264540000D01*
X286659313Y-264750426D01*
X286659314Y-264750429D01*
X286717144Y-264953684D01*
X286717147Y-264953690D01*
X286811344Y-265142862D01*
X286938699Y-265311508D01*
X287065797Y-265427372D01*
X287094872Y-265453877D01*
X287274547Y-265565128D01*
X287471605Y-265641468D01*
X287679336Y-265680300D01*
X287679338Y-265680300D01*
X287890662Y-265680300D01*
X287890664Y-265680300D01*
X288098395Y-265641468D01*
X288295453Y-265565128D01*
X288475128Y-265453877D01*
X288631302Y-265311506D01*
X288758656Y-265142862D01*
X288852853Y-264953689D01*
X288852853Y-264953686D01*
X288852855Y-264953684D01*
X288885968Y-264837298D01*
X288910686Y-264750427D01*
X288930185Y-264540000D01*
X288930185Y-264539999D01*
X289179815Y-264539999D01*
X289179815Y-264540000D01*
X289199313Y-264750426D01*
X289199314Y-264750429D01*
X289257144Y-264953684D01*
X289257147Y-264953690D01*
X289351344Y-265142862D01*
X289478699Y-265311508D01*
X289605797Y-265427372D01*
X289634872Y-265453877D01*
X289814547Y-265565128D01*
X290011605Y-265641468D01*
X290219336Y-265680300D01*
X290219338Y-265680300D01*
X290430662Y-265680300D01*
X290430664Y-265680300D01*
X290638395Y-265641468D01*
X290835453Y-265565128D01*
X291015128Y-265453877D01*
X291171302Y-265311506D01*
X291298656Y-265142862D01*
X291318009Y-265103995D01*
X291365510Y-265052761D01*
X291433173Y-265035339D01*
X291499513Y-265057264D01*
X291542564Y-265109459D01*
X291594393Y-265227619D01*
X291724899Y-265427372D01*
X291724907Y-265427383D01*
X291886504Y-265602922D01*
X291886514Y-265602931D01*
X292074801Y-265749481D01*
X292074810Y-265749487D01*
X292284650Y-265863046D01*
X292284660Y-265863051D01*
X292510338Y-265940526D01*
X292615000Y-265957990D01*
X292615000Y-265040909D01*
X292649311Y-265060719D01*
X292791433Y-265098800D01*
X292938567Y-265098800D01*
X293080689Y-265060719D01*
X293115000Y-265040909D01*
X293115000Y-265957989D01*
X293219661Y-265940526D01*
X293445339Y-265863051D01*
X293445349Y-265863046D01*
X293655189Y-265749487D01*
X293655198Y-265749481D01*
X293843485Y-265602931D01*
X293843495Y-265602922D01*
X294005092Y-265427383D01*
X294005100Y-265427372D01*
X294135607Y-265227617D01*
X294187435Y-265109460D01*
X294232390Y-265055974D01*
X294299126Y-265035283D01*
X294366454Y-265053957D01*
X294411991Y-265103996D01*
X294431345Y-265142864D01*
X294558699Y-265311508D01*
X294685797Y-265427372D01*
X294714872Y-265453877D01*
X294894547Y-265565128D01*
X295091605Y-265641468D01*
X295299336Y-265680300D01*
X295299338Y-265680300D01*
X295510662Y-265680300D01*
X295510664Y-265680300D01*
X295718395Y-265641468D01*
X295915453Y-265565128D01*
X296095128Y-265453877D01*
X296251302Y-265311506D01*
X296378656Y-265142862D01*
X296472853Y-264953689D01*
X296472853Y-264953686D01*
X296472855Y-264953684D01*
X296505968Y-264837298D01*
X296530686Y-264750427D01*
X296550185Y-264540000D01*
X296550185Y-264539999D01*
X296799815Y-264539999D01*
X296799815Y-264540000D01*
X296819313Y-264750426D01*
X296819314Y-264750429D01*
X296877144Y-264953684D01*
X296877147Y-264953690D01*
X296971344Y-265142862D01*
X297098699Y-265311508D01*
X297225797Y-265427372D01*
X297254872Y-265453877D01*
X297434547Y-265565128D01*
X297631605Y-265641468D01*
X297839336Y-265680300D01*
X297839338Y-265680300D01*
X298050662Y-265680300D01*
X298050664Y-265680300D01*
X298258395Y-265641468D01*
X298455453Y-265565128D01*
X298635128Y-265453877D01*
X298791302Y-265311506D01*
X298918656Y-265142862D01*
X299012853Y-264953689D01*
X299012853Y-264953686D01*
X299012855Y-264953684D01*
X299045968Y-264837298D01*
X299070686Y-264750427D01*
X299090185Y-264540000D01*
X299090185Y-264539999D01*
X299339815Y-264539999D01*
X299339815Y-264540000D01*
X299359313Y-264750426D01*
X299359314Y-264750429D01*
X299417144Y-264953684D01*
X299417147Y-264953690D01*
X299511344Y-265142862D01*
X299638699Y-265311508D01*
X299765797Y-265427372D01*
X299794872Y-265453877D01*
X299974547Y-265565128D01*
X300171605Y-265641468D01*
X300379336Y-265680300D01*
X300379338Y-265680300D01*
X300590662Y-265680300D01*
X300590664Y-265680300D01*
X300798395Y-265641468D01*
X300995453Y-265565128D01*
X301175128Y-265453877D01*
X301331302Y-265311506D01*
X301458656Y-265142862D01*
X301552853Y-264953689D01*
X301552853Y-264953686D01*
X301552855Y-264953684D01*
X301585968Y-264837298D01*
X301610686Y-264750427D01*
X301630185Y-264540000D01*
X301630185Y-264539999D01*
X301879815Y-264539999D01*
X301879815Y-264540000D01*
X301899313Y-264750426D01*
X301899314Y-264750429D01*
X301957144Y-264953684D01*
X301957147Y-264953690D01*
X302051344Y-265142862D01*
X302178699Y-265311508D01*
X302305797Y-265427372D01*
X302334872Y-265453877D01*
X302514547Y-265565128D01*
X302711605Y-265641468D01*
X302919336Y-265680300D01*
X302919338Y-265680300D01*
X303130662Y-265680300D01*
X303130664Y-265680300D01*
X303338395Y-265641468D01*
X303535453Y-265565128D01*
X303715128Y-265453877D01*
X303871302Y-265311506D01*
X303998656Y-265142862D01*
X304018009Y-265103995D01*
X304065510Y-265052761D01*
X304133173Y-265035339D01*
X304199513Y-265057264D01*
X304242564Y-265109459D01*
X304294393Y-265227619D01*
X304424899Y-265427372D01*
X304424907Y-265427383D01*
X304586504Y-265602922D01*
X304586514Y-265602931D01*
X304774801Y-265749481D01*
X304774810Y-265749487D01*
X304984650Y-265863046D01*
X304984660Y-265863051D01*
X305210338Y-265940526D01*
X305315000Y-265957990D01*
X305315000Y-265040909D01*
X305349311Y-265060719D01*
X305491433Y-265098800D01*
X305638567Y-265098800D01*
X305780689Y-265060719D01*
X305815000Y-265040909D01*
X305815000Y-265957989D01*
X305919661Y-265940526D01*
X306145339Y-265863051D01*
X306145349Y-265863046D01*
X306355189Y-265749487D01*
X306355198Y-265749481D01*
X306543485Y-265602931D01*
X306543495Y-265602922D01*
X306705092Y-265427383D01*
X306705100Y-265427372D01*
X306835606Y-265227619D01*
X306931455Y-265009103D01*
X306986940Y-264790000D01*
X306065909Y-264790000D01*
X306085719Y-264755689D01*
X306123800Y-264613567D01*
X306123800Y-264466433D01*
X306085719Y-264324311D01*
X306065909Y-264290000D01*
X306986940Y-264290000D01*
X306931455Y-264070896D01*
X306835606Y-263852380D01*
X306705100Y-263652627D01*
X306705092Y-263652616D01*
X306543495Y-263477077D01*
X306543485Y-263477068D01*
X306355198Y-263330518D01*
X306355189Y-263330512D01*
X306145349Y-263216953D01*
X306145339Y-263216948D01*
X305919663Y-263139474D01*
X305815000Y-263122009D01*
X305815000Y-264039090D01*
X305780689Y-264019281D01*
X305638567Y-263981200D01*
X305491433Y-263981200D01*
X305349311Y-264019281D01*
X305315000Y-264039090D01*
X305315000Y-263122009D01*
X305314999Y-263122009D01*
X305210336Y-263139474D01*
X304984660Y-263216948D01*
X304984650Y-263216953D01*
X304774810Y-263330512D01*
X304774801Y-263330518D01*
X304586514Y-263477068D01*
X304586504Y-263477077D01*
X304424907Y-263652616D01*
X304424899Y-263652627D01*
X304294393Y-263852380D01*
X304242564Y-263970540D01*
X304197608Y-264024026D01*
X304130872Y-264044716D01*
X304063544Y-264026041D01*
X304018008Y-263976002D01*
X304015288Y-263970539D01*
X303998656Y-263937138D01*
X303871302Y-263768494D01*
X303871300Y-263768491D01*
X303715129Y-263626124D01*
X303715128Y-263626123D01*
X303535453Y-263514872D01*
X303535452Y-263514871D01*
X303391365Y-263459052D01*
X303338395Y-263438532D01*
X303130664Y-263399700D01*
X302919336Y-263399700D01*
X302711605Y-263438532D01*
X302711602Y-263438532D01*
X302711602Y-263438533D01*
X302514547Y-263514871D01*
X302514546Y-263514872D01*
X302334870Y-263626124D01*
X302178699Y-263768491D01*
X302051344Y-263937137D01*
X301957147Y-264126309D01*
X301957144Y-264126315D01*
X301899314Y-264329570D01*
X301899313Y-264329573D01*
X301879815Y-264539999D01*
X301630185Y-264539999D01*
X301610686Y-264329573D01*
X301599427Y-264290000D01*
X301552855Y-264126315D01*
X301552852Y-264126309D01*
X301536191Y-264092849D01*
X301458656Y-263937138D01*
X301331302Y-263768494D01*
X301331300Y-263768491D01*
X301175129Y-263626124D01*
X301175128Y-263626123D01*
X300995453Y-263514872D01*
X300995452Y-263514871D01*
X300851365Y-263459052D01*
X300798395Y-263438532D01*
X300590664Y-263399700D01*
X300379336Y-263399700D01*
X300171605Y-263438532D01*
X300171602Y-263438532D01*
X300171602Y-263438533D01*
X299974547Y-263514871D01*
X299974546Y-263514872D01*
X299794870Y-263626124D01*
X299638699Y-263768491D01*
X299511344Y-263937137D01*
X299417147Y-264126309D01*
X299417144Y-264126315D01*
X299359314Y-264329570D01*
X299359313Y-264329573D01*
X299339815Y-264539999D01*
X299090185Y-264539999D01*
X299070686Y-264329573D01*
X299059427Y-264290000D01*
X299012855Y-264126315D01*
X299012852Y-264126309D01*
X298996191Y-264092849D01*
X298918656Y-263937138D01*
X298791302Y-263768494D01*
X298791300Y-263768491D01*
X298635129Y-263626124D01*
X298635128Y-263626123D01*
X298455453Y-263514872D01*
X298455452Y-263514871D01*
X298311365Y-263459052D01*
X298258395Y-263438532D01*
X298050664Y-263399700D01*
X297839336Y-263399700D01*
X297631605Y-263438532D01*
X297631602Y-263438532D01*
X297631602Y-263438533D01*
X297434547Y-263514871D01*
X297434546Y-263514872D01*
X297254870Y-263626124D01*
X297098699Y-263768491D01*
X296971344Y-263937137D01*
X296877147Y-264126309D01*
X296877144Y-264126315D01*
X296819314Y-264329570D01*
X296819313Y-264329573D01*
X296799815Y-264539999D01*
X296550185Y-264539999D01*
X296530686Y-264329573D01*
X296519427Y-264290000D01*
X296472855Y-264126315D01*
X296472852Y-264126309D01*
X296456191Y-264092849D01*
X296378656Y-263937138D01*
X296251302Y-263768494D01*
X296251300Y-263768491D01*
X296095129Y-263626124D01*
X296095128Y-263626123D01*
X295915453Y-263514872D01*
X295915452Y-263514871D01*
X295771365Y-263459052D01*
X295718395Y-263438532D01*
X295510664Y-263399700D01*
X295299336Y-263399700D01*
X295091605Y-263438532D01*
X295091602Y-263438532D01*
X295091602Y-263438533D01*
X294894547Y-263514871D01*
X294894546Y-263514872D01*
X294714870Y-263626124D01*
X294558699Y-263768491D01*
X294431344Y-263937137D01*
X294411990Y-263976004D01*
X294364486Y-264027240D01*
X294296823Y-264044660D01*
X294230483Y-264022733D01*
X294187435Y-263970539D01*
X294135607Y-263852382D01*
X294005100Y-263652627D01*
X294005092Y-263652616D01*
X293843495Y-263477077D01*
X293843485Y-263477068D01*
X293655198Y-263330518D01*
X293655189Y-263330512D01*
X293445349Y-263216953D01*
X293445339Y-263216948D01*
X293219663Y-263139474D01*
X293115000Y-263122009D01*
X293115000Y-264039090D01*
X293080689Y-264019281D01*
X292938567Y-263981200D01*
X292791433Y-263981200D01*
X292649311Y-264019281D01*
X292615000Y-264039090D01*
X292615000Y-263122009D01*
X292614999Y-263122009D01*
X292510336Y-263139474D01*
X292284660Y-263216948D01*
X292284650Y-263216953D01*
X292074810Y-263330512D01*
X292074801Y-263330518D01*
X291886514Y-263477068D01*
X291886504Y-263477077D01*
X291724907Y-263652616D01*
X291724899Y-263652627D01*
X291594393Y-263852380D01*
X291542564Y-263970540D01*
X291497608Y-264024026D01*
X291430872Y-264044716D01*
X291363544Y-264026041D01*
X291318008Y-263976002D01*
X291315288Y-263970539D01*
X291298656Y-263937138D01*
X291171302Y-263768494D01*
X291171300Y-263768491D01*
X291015129Y-263626124D01*
X291015128Y-263626123D01*
X290835453Y-263514872D01*
X290835452Y-263514871D01*
X290691365Y-263459052D01*
X290638395Y-263438532D01*
X290430664Y-263399700D01*
X290219336Y-263399700D01*
X290011605Y-263438532D01*
X290011602Y-263438532D01*
X290011602Y-263438533D01*
X289814547Y-263514871D01*
X289814546Y-263514872D01*
X289634870Y-263626124D01*
X289478699Y-263768491D01*
X289351344Y-263937137D01*
X289257147Y-264126309D01*
X289257144Y-264126315D01*
X289199314Y-264329570D01*
X289199313Y-264329573D01*
X289179815Y-264539999D01*
X288930185Y-264539999D01*
X288910686Y-264329573D01*
X288899427Y-264290000D01*
X288852855Y-264126315D01*
X288852852Y-264126309D01*
X288836191Y-264092849D01*
X288758656Y-263937138D01*
X288631302Y-263768494D01*
X288631300Y-263768491D01*
X288475129Y-263626124D01*
X288475128Y-263626123D01*
X288295453Y-263514872D01*
X288295452Y-263514871D01*
X288151365Y-263459052D01*
X288098395Y-263438532D01*
X287890664Y-263399700D01*
X287679336Y-263399700D01*
X287471605Y-263438532D01*
X287471602Y-263438532D01*
X287471602Y-263438533D01*
X287274547Y-263514871D01*
X287274546Y-263514872D01*
X287094870Y-263626124D01*
X286938699Y-263768491D01*
X286811344Y-263937137D01*
X286717147Y-264126309D01*
X286717144Y-264126315D01*
X286659314Y-264329570D01*
X286659313Y-264329573D01*
X286639815Y-264539999D01*
X248200500Y-264539999D01*
X248200500Y-258093713D01*
X253099500Y-258093713D01*
X253099500Y-258306287D01*
X253132754Y-258516243D01*
X253197738Y-258716243D01*
X253198444Y-258718414D01*
X253294951Y-258907820D01*
X253419890Y-259079786D01*
X253570213Y-259230109D01*
X253742179Y-259355048D01*
X253742181Y-259355049D01*
X253742184Y-259355051D01*
X253931588Y-259451557D01*
X254133757Y-259517246D01*
X254343713Y-259550500D01*
X254343714Y-259550500D01*
X254556286Y-259550500D01*
X254556287Y-259550500D01*
X254766243Y-259517246D01*
X254968412Y-259451557D01*
X255157816Y-259355051D01*
X255261402Y-259279792D01*
X255329786Y-259230109D01*
X255329788Y-259230106D01*
X255329792Y-259230104D01*
X255480104Y-259079792D01*
X255480106Y-259079788D01*
X255480109Y-259079786D01*
X255605048Y-258907820D01*
X255605047Y-258907820D01*
X255605051Y-258907816D01*
X255701557Y-258718412D01*
X255767246Y-258516243D01*
X255800500Y-258306287D01*
X255800500Y-258293713D01*
X276349500Y-258293713D01*
X276349500Y-258506287D01*
X276382754Y-258716243D01*
X276445001Y-258907820D01*
X276448444Y-258918414D01*
X276544951Y-259107820D01*
X276669890Y-259279786D01*
X276820213Y-259430109D01*
X276992179Y-259555048D01*
X276992181Y-259555049D01*
X276992184Y-259555051D01*
X277181588Y-259651557D01*
X277383757Y-259717246D01*
X277593713Y-259750500D01*
X277593714Y-259750500D01*
X277806286Y-259750500D01*
X277806287Y-259750500D01*
X278016243Y-259717246D01*
X278218412Y-259651557D01*
X278407816Y-259555051D01*
X278429789Y-259539086D01*
X278579786Y-259430109D01*
X278579788Y-259430106D01*
X278579792Y-259430104D01*
X278730104Y-259279792D01*
X278730106Y-259279788D01*
X278730109Y-259279786D01*
X278855048Y-259107820D01*
X278855047Y-259107820D01*
X278855051Y-259107816D01*
X278951557Y-258918412D01*
X279017246Y-258716243D01*
X279050500Y-258506287D01*
X279050500Y-258293713D01*
X314349500Y-258293713D01*
X314349500Y-258506287D01*
X314382754Y-258716243D01*
X314445001Y-258907820D01*
X314448444Y-258918414D01*
X314544951Y-259107820D01*
X314669890Y-259279786D01*
X314820213Y-259430109D01*
X314992179Y-259555048D01*
X314992181Y-259555049D01*
X314992184Y-259555051D01*
X315181588Y-259651557D01*
X315383757Y-259717246D01*
X315593713Y-259750500D01*
X315593714Y-259750500D01*
X315806286Y-259750500D01*
X315806287Y-259750500D01*
X316016243Y-259717246D01*
X316218412Y-259651557D01*
X316407816Y-259555051D01*
X316429789Y-259539086D01*
X316579786Y-259430109D01*
X316579788Y-259430106D01*
X316579792Y-259430104D01*
X316730104Y-259279792D01*
X316730106Y-259279788D01*
X316730109Y-259279786D01*
X316855048Y-259107820D01*
X316855047Y-259107820D01*
X316855051Y-259107816D01*
X316951557Y-258918412D01*
X317017246Y-258716243D01*
X317050500Y-258506287D01*
X317050500Y-258293713D01*
X317018823Y-258093713D01*
X337599500Y-258093713D01*
X337599500Y-258306287D01*
X337632754Y-258516243D01*
X337697738Y-258716243D01*
X337698444Y-258718414D01*
X337794951Y-258907820D01*
X337919890Y-259079786D01*
X338070213Y-259230109D01*
X338242179Y-259355048D01*
X338242181Y-259355049D01*
X338242184Y-259355051D01*
X338431588Y-259451557D01*
X338633757Y-259517246D01*
X338843713Y-259550500D01*
X338843714Y-259550500D01*
X339056286Y-259550500D01*
X339056287Y-259550500D01*
X339266243Y-259517246D01*
X339468412Y-259451557D01*
X339657816Y-259355051D01*
X339761402Y-259279792D01*
X339829786Y-259230109D01*
X339829788Y-259230106D01*
X339829792Y-259230104D01*
X339980104Y-259079792D01*
X339980106Y-259079788D01*
X339980109Y-259079786D01*
X340105048Y-258907820D01*
X340105047Y-258907820D01*
X340105051Y-258907816D01*
X340201557Y-258718412D01*
X340267246Y-258516243D01*
X340300500Y-258306287D01*
X340300500Y-258093713D01*
X340267246Y-257883757D01*
X340201557Y-257681588D01*
X340105051Y-257492184D01*
X340105049Y-257492181D01*
X340105048Y-257492179D01*
X339980109Y-257320213D01*
X339829786Y-257169890D01*
X339657820Y-257044951D01*
X339468414Y-256948444D01*
X339468413Y-256948443D01*
X339468412Y-256948443D01*
X339266243Y-256882754D01*
X339266241Y-256882753D01*
X339266240Y-256882753D01*
X339104957Y-256857208D01*
X339056287Y-256849500D01*
X338843713Y-256849500D01*
X338795042Y-256857208D01*
X338633760Y-256882753D01*
X338431585Y-256948444D01*
X338242179Y-257044951D01*
X338070213Y-257169890D01*
X337919890Y-257320213D01*
X337794951Y-257492179D01*
X337698444Y-257681585D01*
X337632753Y-257883760D01*
X337601077Y-258083757D01*
X337599500Y-258093713D01*
X317018823Y-258093713D01*
X317017246Y-258083757D01*
X316951557Y-257881588D01*
X316855051Y-257692184D01*
X316855049Y-257692181D01*
X316855048Y-257692179D01*
X316730109Y-257520213D01*
X316579786Y-257369890D01*
X316407820Y-257244951D01*
X316218414Y-257148444D01*
X316218413Y-257148443D01*
X316218412Y-257148443D01*
X316016243Y-257082754D01*
X316016241Y-257082753D01*
X316016240Y-257082753D01*
X315854957Y-257057208D01*
X315806287Y-257049500D01*
X315593713Y-257049500D01*
X315545042Y-257057208D01*
X315383760Y-257082753D01*
X315181585Y-257148444D01*
X314992179Y-257244951D01*
X314820213Y-257369890D01*
X314669890Y-257520213D01*
X314544951Y-257692179D01*
X314448444Y-257881585D01*
X314382753Y-258083760D01*
X314381177Y-258093713D01*
X314349500Y-258293713D01*
X279050500Y-258293713D01*
X279017246Y-258083757D01*
X278951557Y-257881588D01*
X278855051Y-257692184D01*
X278855049Y-257692181D01*
X278855048Y-257692179D01*
X278730109Y-257520213D01*
X278579786Y-257369890D01*
X278407820Y-257244951D01*
X278218414Y-257148444D01*
X278218413Y-257148443D01*
X278218412Y-257148443D01*
X278016243Y-257082754D01*
X278016241Y-257082753D01*
X278016240Y-257082753D01*
X277854957Y-257057208D01*
X277806287Y-257049500D01*
X277593713Y-257049500D01*
X277545042Y-257057208D01*
X277383760Y-257082753D01*
X277181585Y-257148444D01*
X276992179Y-257244951D01*
X276820213Y-257369890D01*
X276669890Y-257520213D01*
X276544951Y-257692179D01*
X276448444Y-257881585D01*
X276382753Y-258083760D01*
X276381177Y-258093713D01*
X276349500Y-258293713D01*
X255800500Y-258293713D01*
X255800500Y-258093713D01*
X255767246Y-257883757D01*
X255701557Y-257681588D01*
X255605051Y-257492184D01*
X255605049Y-257492181D01*
X255605048Y-257492179D01*
X255480109Y-257320213D01*
X255329786Y-257169890D01*
X255157820Y-257044951D01*
X254968414Y-256948444D01*
X254968413Y-256948443D01*
X254968412Y-256948443D01*
X254766243Y-256882754D01*
X254766241Y-256882753D01*
X254766240Y-256882753D01*
X254604957Y-256857208D01*
X254556287Y-256849500D01*
X254343713Y-256849500D01*
X254295042Y-256857208D01*
X254133760Y-256882753D01*
X253931585Y-256948444D01*
X253742179Y-257044951D01*
X253570213Y-257169890D01*
X253419890Y-257320213D01*
X253294951Y-257492179D01*
X253198444Y-257681585D01*
X253132753Y-257883760D01*
X253101077Y-258083757D01*
X253099500Y-258093713D01*
X248200500Y-258093713D01*
X248200500Y-251876561D01*
X248218856Y-251811635D01*
X250226027Y-248545730D01*
X258299500Y-248545730D01*
X258299500Y-249854269D01*
X258302353Y-249884699D01*
X258302353Y-249884701D01*
X258338367Y-249987619D01*
X258347207Y-250012882D01*
X258427850Y-250122150D01*
X258537118Y-250202793D01*
X258579845Y-250217744D01*
X258665299Y-250247646D01*
X258695730Y-250250500D01*
X258695734Y-250250500D01*
X260304270Y-250250500D01*
X260334699Y-250247646D01*
X260334701Y-250247646D01*
X260398790Y-250225219D01*
X260462882Y-250202793D01*
X260572150Y-250122150D01*
X260652793Y-250012882D01*
X260691291Y-249902862D01*
X260697646Y-249884701D01*
X260697646Y-249884699D01*
X260700500Y-249854269D01*
X260700500Y-249299999D01*
X286639815Y-249299999D01*
X286639815Y-249300000D01*
X286659313Y-249510426D01*
X286659314Y-249510429D01*
X286717144Y-249713684D01*
X286717147Y-249713690D01*
X286811344Y-249902862D01*
X286938699Y-250071508D01*
X287003895Y-250130941D01*
X287094872Y-250213877D01*
X287274547Y-250325128D01*
X287471605Y-250401468D01*
X287679336Y-250440300D01*
X287679338Y-250440300D01*
X287890662Y-250440300D01*
X287890664Y-250440300D01*
X288098395Y-250401468D01*
X288295453Y-250325128D01*
X288475128Y-250213877D01*
X288631302Y-250071506D01*
X288758656Y-249902862D01*
X288852853Y-249713689D01*
X288852853Y-249713686D01*
X288852855Y-249713684D01*
X288885968Y-249597298D01*
X288910686Y-249510427D01*
X288930185Y-249300000D01*
X288930185Y-249299999D01*
X289179815Y-249299999D01*
X289179815Y-249300000D01*
X289199313Y-249510426D01*
X289199314Y-249510429D01*
X289257144Y-249713684D01*
X289257147Y-249713690D01*
X289351344Y-249902862D01*
X289478699Y-250071508D01*
X289543895Y-250130941D01*
X289634872Y-250213877D01*
X289814547Y-250325128D01*
X290011605Y-250401468D01*
X290219336Y-250440300D01*
X290219338Y-250440300D01*
X290430662Y-250440300D01*
X290430664Y-250440300D01*
X290638395Y-250401468D01*
X290835453Y-250325128D01*
X291015128Y-250213877D01*
X291171302Y-250071506D01*
X291298656Y-249902862D01*
X291392853Y-249713689D01*
X291392853Y-249713686D01*
X291392855Y-249713684D01*
X291425968Y-249597298D01*
X291450686Y-249510427D01*
X291470185Y-249300000D01*
X291470185Y-249299999D01*
X291719815Y-249299999D01*
X291719815Y-249300000D01*
X291739313Y-249510426D01*
X291739314Y-249510429D01*
X291797144Y-249713684D01*
X291797147Y-249713690D01*
X291891344Y-249902862D01*
X292018699Y-250071508D01*
X292083895Y-250130941D01*
X292174872Y-250213877D01*
X292354547Y-250325128D01*
X292551605Y-250401468D01*
X292759336Y-250440300D01*
X292759338Y-250440300D01*
X292970662Y-250440300D01*
X292970664Y-250440300D01*
X293178395Y-250401468D01*
X293375453Y-250325128D01*
X293555128Y-250213877D01*
X293711302Y-250071506D01*
X293838656Y-249902862D01*
X293932853Y-249713689D01*
X293932853Y-249713686D01*
X293932855Y-249713684D01*
X293965968Y-249597298D01*
X293990686Y-249510427D01*
X294010185Y-249300000D01*
X294010185Y-249299999D01*
X294259815Y-249299999D01*
X294259815Y-249300000D01*
X294279313Y-249510426D01*
X294279314Y-249510429D01*
X294337144Y-249713684D01*
X294337147Y-249713690D01*
X294431344Y-249902862D01*
X294558699Y-250071508D01*
X294623895Y-250130941D01*
X294714872Y-250213877D01*
X294894547Y-250325128D01*
X295091605Y-250401468D01*
X295299336Y-250440300D01*
X295299338Y-250440300D01*
X295510662Y-250440300D01*
X295510664Y-250440300D01*
X295718395Y-250401468D01*
X295915453Y-250325128D01*
X296095128Y-250213877D01*
X296251302Y-250071506D01*
X296378656Y-249902862D01*
X296472853Y-249713689D01*
X296472853Y-249713686D01*
X296472855Y-249713684D01*
X296505968Y-249597298D01*
X296530686Y-249510427D01*
X296550185Y-249300000D01*
X296550185Y-249299999D01*
X296799815Y-249299999D01*
X296799815Y-249300000D01*
X296819313Y-249510426D01*
X296819314Y-249510429D01*
X296877144Y-249713684D01*
X296877147Y-249713690D01*
X296971344Y-249902862D01*
X297098699Y-250071508D01*
X297163895Y-250130941D01*
X297254872Y-250213877D01*
X297434547Y-250325128D01*
X297631605Y-250401468D01*
X297839336Y-250440300D01*
X297839338Y-250440300D01*
X298050662Y-250440300D01*
X298050664Y-250440300D01*
X298258395Y-250401468D01*
X298455453Y-250325128D01*
X298635128Y-250213877D01*
X298791302Y-250071506D01*
X298918656Y-249902862D01*
X299012853Y-249713689D01*
X299012853Y-249713686D01*
X299012855Y-249713684D01*
X299045968Y-249597298D01*
X299070686Y-249510427D01*
X299090185Y-249300000D01*
X299090185Y-249299999D01*
X299339815Y-249299999D01*
X299339815Y-249300000D01*
X299359313Y-249510426D01*
X299359314Y-249510429D01*
X299417144Y-249713684D01*
X299417147Y-249713690D01*
X299511344Y-249902862D01*
X299638699Y-250071508D01*
X299703895Y-250130941D01*
X299794872Y-250213877D01*
X299974547Y-250325128D01*
X300171605Y-250401468D01*
X300379336Y-250440300D01*
X300379338Y-250440300D01*
X300590662Y-250440300D01*
X300590664Y-250440300D01*
X300798395Y-250401468D01*
X300995453Y-250325128D01*
X301175128Y-250213877D01*
X301331302Y-250071506D01*
X301458656Y-249902862D01*
X301552853Y-249713689D01*
X301552853Y-249713686D01*
X301552855Y-249713684D01*
X301585968Y-249597298D01*
X301610686Y-249510427D01*
X301630185Y-249300000D01*
X301630185Y-249299999D01*
X301879815Y-249299999D01*
X301879815Y-249300000D01*
X301899313Y-249510426D01*
X301899314Y-249510429D01*
X301957144Y-249713684D01*
X301957147Y-249713690D01*
X302051344Y-249902862D01*
X302178699Y-250071508D01*
X302243895Y-250130941D01*
X302334872Y-250213877D01*
X302514547Y-250325128D01*
X302711605Y-250401468D01*
X302919336Y-250440300D01*
X302919338Y-250440300D01*
X303130662Y-250440300D01*
X303130664Y-250440300D01*
X303338395Y-250401468D01*
X303535453Y-250325128D01*
X303715128Y-250213877D01*
X303871302Y-250071506D01*
X303998656Y-249902862D01*
X304018009Y-249863995D01*
X304065510Y-249812761D01*
X304133173Y-249795339D01*
X304199513Y-249817264D01*
X304242564Y-249869459D01*
X304294393Y-249987619D01*
X304424899Y-250187372D01*
X304424907Y-250187383D01*
X304586504Y-250362922D01*
X304586514Y-250362931D01*
X304774801Y-250509481D01*
X304774810Y-250509487D01*
X304984650Y-250623046D01*
X304984660Y-250623051D01*
X305210338Y-250700526D01*
X305315000Y-250717990D01*
X305315000Y-249800909D01*
X305349311Y-249820719D01*
X305491433Y-249858800D01*
X305638567Y-249858800D01*
X305780689Y-249820719D01*
X305815000Y-249800909D01*
X305815000Y-250717989D01*
X305919661Y-250700526D01*
X306145339Y-250623051D01*
X306145349Y-250623046D01*
X306355189Y-250509487D01*
X306355198Y-250509481D01*
X306543485Y-250362931D01*
X306543495Y-250362922D01*
X306705092Y-250187383D01*
X306705100Y-250187372D01*
X306835606Y-249987619D01*
X306931455Y-249769103D01*
X306986940Y-249550000D01*
X306065909Y-249550000D01*
X306085719Y-249515689D01*
X306123800Y-249373567D01*
X306123800Y-249226433D01*
X306088993Y-249096530D01*
X332699500Y-249096530D01*
X332699500Y-249303469D01*
X332739868Y-249506412D01*
X332739870Y-249506420D01*
X332796489Y-249643111D01*
X332819059Y-249697598D01*
X332852169Y-249747151D01*
X332934024Y-249869657D01*
X333080342Y-250015975D01*
X333080345Y-250015977D01*
X333252402Y-250130941D01*
X333443580Y-250210130D01*
X333632187Y-250247646D01*
X333646530Y-250250499D01*
X333646534Y-250250500D01*
X333646535Y-250250500D01*
X334153466Y-250250500D01*
X334153467Y-250250499D01*
X334356420Y-250210130D01*
X334547598Y-250130941D01*
X334719655Y-250015977D01*
X334865977Y-249869655D01*
X334980941Y-249697598D01*
X335060130Y-249506420D01*
X335100500Y-249303465D01*
X335100500Y-249096535D01*
X335060130Y-248893580D01*
X334980941Y-248702402D01*
X334865977Y-248530345D01*
X334865975Y-248530342D01*
X334719657Y-248384024D01*
X334633626Y-248326541D01*
X334547598Y-248269059D01*
X334470365Y-248237068D01*
X334356420Y-248189870D01*
X334356412Y-248189868D01*
X334153469Y-248149500D01*
X334153465Y-248149500D01*
X333646535Y-248149500D01*
X333646530Y-248149500D01*
X333443587Y-248189868D01*
X333443579Y-248189870D01*
X333252403Y-248269058D01*
X333080342Y-248384024D01*
X332934024Y-248530342D01*
X332819058Y-248702403D01*
X332739870Y-248893579D01*
X332739868Y-248893587D01*
X332699500Y-249096530D01*
X306088993Y-249096530D01*
X306085719Y-249084311D01*
X306065909Y-249050000D01*
X306986940Y-249050000D01*
X306931455Y-248830896D01*
X306835606Y-248612380D01*
X306705100Y-248412627D01*
X306705092Y-248412616D01*
X306543495Y-248237077D01*
X306543485Y-248237068D01*
X306355198Y-248090518D01*
X306355189Y-248090512D01*
X306145349Y-247976953D01*
X306145339Y-247976948D01*
X305919663Y-247899474D01*
X305815000Y-247882009D01*
X305815000Y-248799090D01*
X305780689Y-248779281D01*
X305638567Y-248741200D01*
X305491433Y-248741200D01*
X305349311Y-248779281D01*
X305315000Y-248799090D01*
X305315000Y-247882009D01*
X305314999Y-247882009D01*
X305210336Y-247899474D01*
X304984660Y-247976948D01*
X304984650Y-247976953D01*
X304774810Y-248090512D01*
X304774801Y-248090518D01*
X304586514Y-248237068D01*
X304586504Y-248237077D01*
X304424907Y-248412616D01*
X304424899Y-248412627D01*
X304294393Y-248612380D01*
X304242564Y-248730540D01*
X304197608Y-248784026D01*
X304130872Y-248804716D01*
X304063544Y-248786041D01*
X304018008Y-248736002D01*
X304015288Y-248730540D01*
X303998656Y-248697138D01*
X303871302Y-248528494D01*
X303871300Y-248528491D01*
X303726038Y-248396069D01*
X303715128Y-248386123D01*
X303535453Y-248274872D01*
X303535452Y-248274871D01*
X303391365Y-248219052D01*
X303338395Y-248198532D01*
X303130664Y-248159700D01*
X302919336Y-248159700D01*
X302711605Y-248198532D01*
X302711602Y-248198532D01*
X302711602Y-248198533D01*
X302514547Y-248274871D01*
X302514546Y-248274872D01*
X302334870Y-248386124D01*
X302178699Y-248528491D01*
X302051344Y-248697137D01*
X301957147Y-248886309D01*
X301957144Y-248886315D01*
X301899314Y-249089570D01*
X301899313Y-249089573D01*
X301879815Y-249299999D01*
X301630185Y-249299999D01*
X301610686Y-249089573D01*
X301599427Y-249050000D01*
X301552855Y-248886315D01*
X301552852Y-248886309D01*
X301536191Y-248852849D01*
X301458656Y-248697138D01*
X301331302Y-248528494D01*
X301331300Y-248528491D01*
X301186038Y-248396069D01*
X301175128Y-248386123D01*
X300995453Y-248274872D01*
X300995452Y-248274871D01*
X300851365Y-248219052D01*
X300798395Y-248198532D01*
X300590664Y-248159700D01*
X300379336Y-248159700D01*
X300171605Y-248198532D01*
X300171602Y-248198532D01*
X300171602Y-248198533D01*
X299974547Y-248274871D01*
X299974546Y-248274872D01*
X299794870Y-248386124D01*
X299638699Y-248528491D01*
X299511344Y-248697137D01*
X299417147Y-248886309D01*
X299417144Y-248886315D01*
X299359314Y-249089570D01*
X299359313Y-249089573D01*
X299339815Y-249299999D01*
X299090185Y-249299999D01*
X299070686Y-249089573D01*
X299059427Y-249050000D01*
X299012855Y-248886315D01*
X299012852Y-248886309D01*
X298996191Y-248852849D01*
X298918656Y-248697138D01*
X298791302Y-248528494D01*
X298791300Y-248528491D01*
X298646038Y-248396069D01*
X298635128Y-248386123D01*
X298455453Y-248274872D01*
X298455452Y-248274871D01*
X298311365Y-248219052D01*
X298258395Y-248198532D01*
X298050664Y-248159700D01*
X297839336Y-248159700D01*
X297631605Y-248198532D01*
X297631602Y-248198532D01*
X297631602Y-248198533D01*
X297434547Y-248274871D01*
X297434546Y-248274872D01*
X297254870Y-248386124D01*
X297098699Y-248528491D01*
X296971344Y-248697137D01*
X296877147Y-248886309D01*
X296877144Y-248886315D01*
X296819314Y-249089570D01*
X296819313Y-249089573D01*
X296799815Y-249299999D01*
X296550185Y-249299999D01*
X296530686Y-249089573D01*
X296519427Y-249050000D01*
X296472855Y-248886315D01*
X296472852Y-248886309D01*
X296456191Y-248852849D01*
X296378656Y-248697138D01*
X296251302Y-248528494D01*
X296251300Y-248528491D01*
X296106038Y-248396069D01*
X296095128Y-248386123D01*
X295915453Y-248274872D01*
X295915452Y-248274871D01*
X295771365Y-248219052D01*
X295718395Y-248198532D01*
X295510664Y-248159700D01*
X295299336Y-248159700D01*
X295091605Y-248198532D01*
X295091602Y-248198532D01*
X295091602Y-248198533D01*
X294894547Y-248274871D01*
X294894546Y-248274872D01*
X294714870Y-248386124D01*
X294558699Y-248528491D01*
X294431344Y-248697137D01*
X294337147Y-248886309D01*
X294337144Y-248886315D01*
X294279314Y-249089570D01*
X294279313Y-249089573D01*
X294259815Y-249299999D01*
X294010185Y-249299999D01*
X293990686Y-249089573D01*
X293979427Y-249050000D01*
X293932855Y-248886315D01*
X293932852Y-248886309D01*
X293916191Y-248852849D01*
X293838656Y-248697138D01*
X293711302Y-248528494D01*
X293711300Y-248528491D01*
X293566038Y-248396069D01*
X293555128Y-248386123D01*
X293375453Y-248274872D01*
X293375452Y-248274871D01*
X293231365Y-248219052D01*
X293178395Y-248198532D01*
X292970664Y-248159700D01*
X292759336Y-248159700D01*
X292551605Y-248198532D01*
X292551602Y-248198532D01*
X292551602Y-248198533D01*
X292354547Y-248274871D01*
X292354546Y-248274872D01*
X292174870Y-248386124D01*
X292018699Y-248528491D01*
X291891344Y-248697137D01*
X291797147Y-248886309D01*
X291797144Y-248886315D01*
X291739314Y-249089570D01*
X291739313Y-249089573D01*
X291719815Y-249299999D01*
X291470185Y-249299999D01*
X291450686Y-249089573D01*
X291439427Y-249050000D01*
X291392855Y-248886315D01*
X291392852Y-248886309D01*
X291376191Y-248852849D01*
X291298656Y-248697138D01*
X291171302Y-248528494D01*
X291171300Y-248528491D01*
X291026038Y-248396069D01*
X291015128Y-248386123D01*
X290835453Y-248274872D01*
X290835452Y-248274871D01*
X290691365Y-248219052D01*
X290638395Y-248198532D01*
X290430664Y-248159700D01*
X290219336Y-248159700D01*
X290011605Y-248198532D01*
X290011602Y-248198532D01*
X290011602Y-248198533D01*
X289814547Y-248274871D01*
X289814546Y-248274872D01*
X289634870Y-248386124D01*
X289478699Y-248528491D01*
X289351344Y-248697137D01*
X289257147Y-248886309D01*
X289257144Y-248886315D01*
X289199314Y-249089570D01*
X289199313Y-249089573D01*
X289179815Y-249299999D01*
X288930185Y-249299999D01*
X288910686Y-249089573D01*
X288899427Y-249050000D01*
X288852855Y-248886315D01*
X288852852Y-248886309D01*
X288836191Y-248852849D01*
X288758656Y-248697138D01*
X288631302Y-248528494D01*
X288631300Y-248528491D01*
X288486038Y-248396069D01*
X288475128Y-248386123D01*
X288295453Y-248274872D01*
X288295452Y-248274871D01*
X288151365Y-248219052D01*
X288098395Y-248198532D01*
X287890664Y-248159700D01*
X287679336Y-248159700D01*
X287471605Y-248198532D01*
X287471602Y-248198532D01*
X287471602Y-248198533D01*
X287274547Y-248274871D01*
X287274546Y-248274872D01*
X287094870Y-248386124D01*
X286938699Y-248528491D01*
X286811344Y-248697137D01*
X286717147Y-248886309D01*
X286717144Y-248886315D01*
X286659314Y-249089570D01*
X286659313Y-249089573D01*
X286639815Y-249299999D01*
X260700500Y-249299999D01*
X260700500Y-248545730D01*
X260697646Y-248515300D01*
X260697646Y-248515298D01*
X260652793Y-248387119D01*
X260652792Y-248387117D01*
X260652059Y-248386124D01*
X260572150Y-248277850D01*
X260462882Y-248197207D01*
X260462880Y-248197206D01*
X260334700Y-248152353D01*
X260304270Y-248149500D01*
X260304266Y-248149500D01*
X258695734Y-248149500D01*
X258695730Y-248149500D01*
X258665300Y-248152353D01*
X258665298Y-248152353D01*
X258537119Y-248197206D01*
X258537117Y-248197207D01*
X258427850Y-248277850D01*
X258347207Y-248387117D01*
X258347206Y-248387119D01*
X258302353Y-248515298D01*
X258302353Y-248515300D01*
X258299500Y-248545730D01*
X250226027Y-248545730D01*
X251423973Y-246596530D01*
X258299500Y-246596530D01*
X258299500Y-246803469D01*
X258339868Y-247006412D01*
X258339870Y-247006420D01*
X258419058Y-247197596D01*
X258534024Y-247369657D01*
X258680342Y-247515975D01*
X258680345Y-247515977D01*
X258852402Y-247630941D01*
X259043580Y-247710130D01*
X259232187Y-247747646D01*
X259246530Y-247750499D01*
X259246534Y-247750500D01*
X259246535Y-247750500D01*
X259753466Y-247750500D01*
X259753467Y-247750499D01*
X259956420Y-247710130D01*
X260147598Y-247630941D01*
X260319655Y-247515977D01*
X260465977Y-247369655D01*
X260580941Y-247197598D01*
X260660130Y-247006420D01*
X260700500Y-246803465D01*
X260700500Y-246596535D01*
X260660130Y-246393580D01*
X260580941Y-246202402D01*
X260476257Y-246045730D01*
X332699500Y-246045730D01*
X332699500Y-247354269D01*
X332702353Y-247384699D01*
X332702353Y-247384701D01*
X332747206Y-247512880D01*
X332747207Y-247512882D01*
X332827850Y-247622150D01*
X332937118Y-247702793D01*
X332958089Y-247710131D01*
X333065299Y-247747646D01*
X333095730Y-247750500D01*
X333095734Y-247750500D01*
X334704270Y-247750500D01*
X334734699Y-247747646D01*
X334734701Y-247747646D01*
X334798790Y-247725219D01*
X334862882Y-247702793D01*
X334972150Y-247622150D01*
X335052793Y-247512882D01*
X335075219Y-247448790D01*
X335097646Y-247384701D01*
X335097646Y-247384699D01*
X335100500Y-247354269D01*
X335100500Y-246045730D01*
X335097646Y-246015300D01*
X335097646Y-246015298D01*
X335052793Y-245887119D01*
X335052792Y-245887117D01*
X334972150Y-245777850D01*
X334862882Y-245697207D01*
X334862880Y-245697206D01*
X334734700Y-245652353D01*
X334704270Y-245649500D01*
X334704266Y-245649500D01*
X333095734Y-245649500D01*
X333095730Y-245649500D01*
X333065300Y-245652353D01*
X333065298Y-245652353D01*
X332937119Y-245697206D01*
X332937117Y-245697207D01*
X332827850Y-245777850D01*
X332747207Y-245887117D01*
X332747206Y-245887119D01*
X332702353Y-246015298D01*
X332702353Y-246015300D01*
X332699500Y-246045730D01*
X260476257Y-246045730D01*
X260465977Y-246030345D01*
X260465975Y-246030342D01*
X260319657Y-245884024D01*
X260233626Y-245826541D01*
X260147598Y-245769059D01*
X259956420Y-245689870D01*
X259956412Y-245689868D01*
X259753469Y-245649500D01*
X259753465Y-245649500D01*
X259246535Y-245649500D01*
X259246530Y-245649500D01*
X259043587Y-245689868D01*
X259043579Y-245689870D01*
X258852403Y-245769058D01*
X258680342Y-245884024D01*
X258534024Y-246030342D01*
X258419058Y-246202403D01*
X258339870Y-246393579D01*
X258339868Y-246393587D01*
X258299500Y-246596530D01*
X251423973Y-246596530D01*
X254715855Y-241240247D01*
X276649500Y-241240247D01*
X276649500Y-242879752D01*
X276661131Y-242938229D01*
X276661132Y-242938230D01*
X276705447Y-243004552D01*
X276771769Y-243048867D01*
X276771770Y-243048868D01*
X276830247Y-243060499D01*
X276830250Y-243060500D01*
X276830252Y-243060500D01*
X278469750Y-243060500D01*
X278469751Y-243060499D01*
X278484568Y-243057552D01*
X278528229Y-243048868D01*
X278528229Y-243048867D01*
X278528231Y-243048867D01*
X278594552Y-243004552D01*
X278638867Y-242938231D01*
X278638867Y-242938229D01*
X278638868Y-242938229D01*
X278650499Y-242879752D01*
X278650500Y-242879750D01*
X278650500Y-242060000D01*
X279184659Y-242060000D01*
X279203975Y-242256129D01*
X279261188Y-242444733D01*
X279354086Y-242618532D01*
X279354090Y-242618539D01*
X279479116Y-242770883D01*
X279631460Y-242895909D01*
X279631467Y-242895913D01*
X279805266Y-242988811D01*
X279805269Y-242988811D01*
X279805273Y-242988814D01*
X279993868Y-243046024D01*
X280190000Y-243065341D01*
X280386132Y-243046024D01*
X280574727Y-242988814D01*
X280748538Y-242895910D01*
X280900883Y-242770883D01*
X281025910Y-242618538D01*
X281085893Y-242506317D01*
X281118811Y-242444733D01*
X281118811Y-242444732D01*
X281118814Y-242444727D01*
X281176024Y-242256132D01*
X281195341Y-242060000D01*
X281724659Y-242060000D01*
X281743975Y-242256129D01*
X281801188Y-242444733D01*
X281894086Y-242618532D01*
X281894090Y-242618539D01*
X282019116Y-242770883D01*
X282171460Y-242895909D01*
X282171467Y-242895913D01*
X282345266Y-242988811D01*
X282345269Y-242988811D01*
X282345273Y-242988814D01*
X282533868Y-243046024D01*
X282730000Y-243065341D01*
X282926132Y-243046024D01*
X283114727Y-242988814D01*
X283288538Y-242895910D01*
X283440883Y-242770883D01*
X283565910Y-242618538D01*
X283625893Y-242506317D01*
X283658811Y-242444733D01*
X283658811Y-242444732D01*
X283658814Y-242444727D01*
X283716024Y-242256132D01*
X283735341Y-242060000D01*
X283716024Y-241863868D01*
X283699683Y-241809999D01*
X283991127Y-241809999D01*
X283991128Y-241810000D01*
X284836988Y-241810000D01*
X284804075Y-241867007D01*
X284770000Y-241994174D01*
X284770000Y-242125826D01*
X284804075Y-242252993D01*
X284836988Y-242310000D01*
X283991128Y-242310000D01*
X284043730Y-242506317D01*
X284043734Y-242506326D01*
X284139865Y-242712482D01*
X284270342Y-242898820D01*
X284431179Y-243059657D01*
X284617517Y-243190134D01*
X284823673Y-243286265D01*
X284823682Y-243286269D01*
X285019999Y-243338872D01*
X285020000Y-243338871D01*
X285020000Y-242493012D01*
X285077007Y-242525925D01*
X285204174Y-242560000D01*
X285335826Y-242560000D01*
X285462993Y-242525925D01*
X285520000Y-242493012D01*
X285520000Y-243338872D01*
X285716317Y-243286269D01*
X285716326Y-243286265D01*
X285922482Y-243190134D01*
X286108820Y-243059657D01*
X286269657Y-242898820D01*
X286400134Y-242712482D01*
X286496265Y-242506326D01*
X286496269Y-242506317D01*
X286548872Y-242310000D01*
X285703012Y-242310000D01*
X285735925Y-242252993D01*
X285770000Y-242125826D01*
X285770000Y-242060000D01*
X286804659Y-242060000D01*
X286823975Y-242256129D01*
X286881188Y-242444733D01*
X286974086Y-242618532D01*
X286974090Y-242618539D01*
X287099116Y-242770883D01*
X287251460Y-242895909D01*
X287251467Y-242895913D01*
X287425266Y-242988811D01*
X287425269Y-242988811D01*
X287425273Y-242988814D01*
X287613868Y-243046024D01*
X287810000Y-243065341D01*
X288006132Y-243046024D01*
X288194727Y-242988814D01*
X288368538Y-242895910D01*
X288520883Y-242770883D01*
X288645910Y-242618538D01*
X288705893Y-242506317D01*
X288738811Y-242444733D01*
X288738811Y-242444732D01*
X288738814Y-242444727D01*
X288796024Y-242256132D01*
X288815341Y-242060000D01*
X289344659Y-242060000D01*
X289363975Y-242256129D01*
X289421188Y-242444733D01*
X289514086Y-242618532D01*
X289514090Y-242618539D01*
X289639116Y-242770883D01*
X289791460Y-242895909D01*
X289791467Y-242895913D01*
X289965266Y-242988811D01*
X289965269Y-242988811D01*
X289965273Y-242988814D01*
X290153868Y-243046024D01*
X290350000Y-243065341D01*
X290546132Y-243046024D01*
X290734727Y-242988814D01*
X290908538Y-242895910D01*
X291060883Y-242770883D01*
X291185910Y-242618538D01*
X291245893Y-242506317D01*
X291278811Y-242444733D01*
X291278811Y-242444732D01*
X291278814Y-242444727D01*
X291336024Y-242256132D01*
X291355341Y-242060000D01*
X291884659Y-242060000D01*
X291903975Y-242256129D01*
X291961188Y-242444733D01*
X292054086Y-242618532D01*
X292054090Y-242618539D01*
X292179116Y-242770883D01*
X292331460Y-242895909D01*
X292331467Y-242895913D01*
X292505266Y-242988811D01*
X292505269Y-242988811D01*
X292505273Y-242988814D01*
X292693868Y-243046024D01*
X292890000Y-243065341D01*
X293086132Y-243046024D01*
X293274727Y-242988814D01*
X293448538Y-242895910D01*
X293600883Y-242770883D01*
X293725910Y-242618538D01*
X293785893Y-242506317D01*
X293818811Y-242444733D01*
X293818811Y-242444732D01*
X293818814Y-242444727D01*
X293876024Y-242256132D01*
X293895341Y-242060000D01*
X294424659Y-242060000D01*
X294443975Y-242256129D01*
X294501188Y-242444733D01*
X294594086Y-242618532D01*
X294594090Y-242618539D01*
X294719116Y-242770883D01*
X294871460Y-242895909D01*
X294871467Y-242895913D01*
X295045266Y-242988811D01*
X295045269Y-242988811D01*
X295045273Y-242988814D01*
X295233868Y-243046024D01*
X295430000Y-243065341D01*
X295626132Y-243046024D01*
X295814727Y-242988814D01*
X295988538Y-242895910D01*
X296140883Y-242770883D01*
X296265910Y-242618538D01*
X296325893Y-242506317D01*
X296358811Y-242444733D01*
X296358811Y-242444732D01*
X296358814Y-242444727D01*
X296416024Y-242256132D01*
X296435341Y-242060000D01*
X296964659Y-242060000D01*
X296983975Y-242256129D01*
X297041188Y-242444733D01*
X297134086Y-242618532D01*
X297134090Y-242618539D01*
X297259116Y-242770883D01*
X297411460Y-242895909D01*
X297411467Y-242895913D01*
X297585266Y-242988811D01*
X297585269Y-242988811D01*
X297585273Y-242988814D01*
X297773868Y-243046024D01*
X297970000Y-243065341D01*
X298166132Y-243046024D01*
X298354727Y-242988814D01*
X298528538Y-242895910D01*
X298680883Y-242770883D01*
X298805910Y-242618538D01*
X298865893Y-242506317D01*
X298898811Y-242444733D01*
X298898811Y-242444732D01*
X298898814Y-242444727D01*
X298956024Y-242256132D01*
X298975341Y-242060000D01*
X299504659Y-242060000D01*
X299523975Y-242256129D01*
X299581188Y-242444733D01*
X299674086Y-242618532D01*
X299674090Y-242618539D01*
X299799116Y-242770883D01*
X299951460Y-242895909D01*
X299951467Y-242895913D01*
X300125266Y-242988811D01*
X300125269Y-242988811D01*
X300125273Y-242988814D01*
X300313868Y-243046024D01*
X300510000Y-243065341D01*
X300706132Y-243046024D01*
X300894727Y-242988814D01*
X301068538Y-242895910D01*
X301220883Y-242770883D01*
X301345910Y-242618538D01*
X301405893Y-242506317D01*
X301438811Y-242444733D01*
X301438811Y-242444732D01*
X301438814Y-242444727D01*
X301496024Y-242256132D01*
X301515341Y-242060000D01*
X302044659Y-242060000D01*
X302063975Y-242256129D01*
X302121188Y-242444733D01*
X302214086Y-242618532D01*
X302214090Y-242618539D01*
X302339116Y-242770883D01*
X302491460Y-242895909D01*
X302491467Y-242895913D01*
X302665266Y-242988811D01*
X302665269Y-242988811D01*
X302665273Y-242988814D01*
X302853868Y-243046024D01*
X303050000Y-243065341D01*
X303246132Y-243046024D01*
X303434727Y-242988814D01*
X303608538Y-242895910D01*
X303760883Y-242770883D01*
X303885910Y-242618538D01*
X303945893Y-242506317D01*
X303978811Y-242444733D01*
X303978811Y-242444732D01*
X303978814Y-242444727D01*
X304036024Y-242256132D01*
X304055341Y-242060000D01*
X304584659Y-242060000D01*
X304603975Y-242256129D01*
X304661188Y-242444733D01*
X304754086Y-242618532D01*
X304754090Y-242618539D01*
X304879116Y-242770883D01*
X305031460Y-242895909D01*
X305031467Y-242895913D01*
X305205266Y-242988811D01*
X305205269Y-242988811D01*
X305205273Y-242988814D01*
X305393868Y-243046024D01*
X305590000Y-243065341D01*
X305786132Y-243046024D01*
X305974727Y-242988814D01*
X306148538Y-242895910D01*
X306300883Y-242770883D01*
X306425910Y-242618538D01*
X306485893Y-242506317D01*
X306518811Y-242444733D01*
X306518811Y-242444732D01*
X306518814Y-242444727D01*
X306576024Y-242256132D01*
X306595341Y-242060000D01*
X307124659Y-242060000D01*
X307143975Y-242256129D01*
X307201188Y-242444733D01*
X307294086Y-242618532D01*
X307294090Y-242618539D01*
X307419116Y-242770883D01*
X307571460Y-242895909D01*
X307571467Y-242895913D01*
X307745266Y-242988811D01*
X307745269Y-242988811D01*
X307745273Y-242988814D01*
X307933868Y-243046024D01*
X308130000Y-243065341D01*
X308326132Y-243046024D01*
X308514727Y-242988814D01*
X308688538Y-242895910D01*
X308840883Y-242770883D01*
X308965910Y-242618538D01*
X309025893Y-242506317D01*
X309058811Y-242444733D01*
X309058811Y-242444732D01*
X309058814Y-242444727D01*
X309116024Y-242256132D01*
X309135341Y-242060000D01*
X309664659Y-242060000D01*
X309683975Y-242256129D01*
X309741188Y-242444733D01*
X309834086Y-242618532D01*
X309834090Y-242618539D01*
X309959116Y-242770883D01*
X310111460Y-242895909D01*
X310111467Y-242895913D01*
X310285266Y-242988811D01*
X310285269Y-242988811D01*
X310285273Y-242988814D01*
X310473868Y-243046024D01*
X310670000Y-243065341D01*
X310866132Y-243046024D01*
X311054727Y-242988814D01*
X311228538Y-242895910D01*
X311380883Y-242770883D01*
X311505910Y-242618538D01*
X311565893Y-242506317D01*
X311598811Y-242444733D01*
X311598811Y-242444732D01*
X311598814Y-242444727D01*
X311656024Y-242256132D01*
X311675341Y-242060000D01*
X312204659Y-242060000D01*
X312223975Y-242256129D01*
X312281188Y-242444733D01*
X312374086Y-242618532D01*
X312374090Y-242618539D01*
X312499116Y-242770883D01*
X312651460Y-242895909D01*
X312651467Y-242895913D01*
X312825266Y-242988811D01*
X312825269Y-242988811D01*
X312825273Y-242988814D01*
X313013868Y-243046024D01*
X313210000Y-243065341D01*
X313406132Y-243046024D01*
X313594727Y-242988814D01*
X313768538Y-242895910D01*
X313920883Y-242770883D01*
X314045910Y-242618538D01*
X314105893Y-242506317D01*
X314138811Y-242444733D01*
X314138811Y-242444732D01*
X314138814Y-242444727D01*
X314196024Y-242256132D01*
X314215341Y-242060000D01*
X314196024Y-241863868D01*
X314138814Y-241675273D01*
X314138811Y-241675269D01*
X314138811Y-241675266D01*
X314045913Y-241501467D01*
X314045909Y-241501460D01*
X313920883Y-241349116D01*
X313768539Y-241224090D01*
X313768532Y-241224086D01*
X313594733Y-241131188D01*
X313594727Y-241131186D01*
X313406132Y-241073976D01*
X313406129Y-241073975D01*
X313210000Y-241054659D01*
X313013870Y-241073975D01*
X312825266Y-241131188D01*
X312651467Y-241224086D01*
X312651460Y-241224090D01*
X312499116Y-241349116D01*
X312374090Y-241501460D01*
X312374086Y-241501467D01*
X312281188Y-241675266D01*
X312223975Y-241863870D01*
X312204659Y-242060000D01*
X311675341Y-242060000D01*
X311656024Y-241863868D01*
X311598814Y-241675273D01*
X311598811Y-241675269D01*
X311598811Y-241675266D01*
X311505913Y-241501467D01*
X311505909Y-241501460D01*
X311380883Y-241349116D01*
X311228539Y-241224090D01*
X311228532Y-241224086D01*
X311054733Y-241131188D01*
X311054727Y-241131186D01*
X310866132Y-241073976D01*
X310866129Y-241073975D01*
X310670000Y-241054659D01*
X310473870Y-241073975D01*
X310285266Y-241131188D01*
X310111467Y-241224086D01*
X310111460Y-241224090D01*
X309959116Y-241349116D01*
X309834090Y-241501460D01*
X309834086Y-241501467D01*
X309741188Y-241675266D01*
X309683975Y-241863870D01*
X309664659Y-242060000D01*
X309135341Y-242060000D01*
X309116024Y-241863868D01*
X309058814Y-241675273D01*
X309058811Y-241675269D01*
X309058811Y-241675266D01*
X308965913Y-241501467D01*
X308965909Y-241501460D01*
X308840883Y-241349116D01*
X308688539Y-241224090D01*
X308688532Y-241224086D01*
X308514733Y-241131188D01*
X308514727Y-241131186D01*
X308326132Y-241073976D01*
X308326129Y-241073975D01*
X308130000Y-241054659D01*
X307933870Y-241073975D01*
X307745266Y-241131188D01*
X307571467Y-241224086D01*
X307571460Y-241224090D01*
X307419116Y-241349116D01*
X307294090Y-241501460D01*
X307294086Y-241501467D01*
X307201188Y-241675266D01*
X307143975Y-241863870D01*
X307124659Y-242060000D01*
X306595341Y-242060000D01*
X306576024Y-241863868D01*
X306518814Y-241675273D01*
X306518811Y-241675269D01*
X306518811Y-241675266D01*
X306425913Y-241501467D01*
X306425909Y-241501460D01*
X306300883Y-241349116D01*
X306148539Y-241224090D01*
X306148532Y-241224086D01*
X305974733Y-241131188D01*
X305974727Y-241131186D01*
X305786132Y-241073976D01*
X305786129Y-241073975D01*
X305590000Y-241054659D01*
X305393870Y-241073975D01*
X305205266Y-241131188D01*
X305031467Y-241224086D01*
X305031460Y-241224090D01*
X304879116Y-241349116D01*
X304754090Y-241501460D01*
X304754086Y-241501467D01*
X304661188Y-241675266D01*
X304603975Y-241863870D01*
X304584659Y-242060000D01*
X304055341Y-242060000D01*
X304036024Y-241863868D01*
X303978814Y-241675273D01*
X303978811Y-241675269D01*
X303978811Y-241675266D01*
X303885913Y-241501467D01*
X303885909Y-241501460D01*
X303760883Y-241349116D01*
X303608539Y-241224090D01*
X303608532Y-241224086D01*
X303434733Y-241131188D01*
X303434727Y-241131186D01*
X303246132Y-241073976D01*
X303246129Y-241073975D01*
X303050000Y-241054659D01*
X302853870Y-241073975D01*
X302665266Y-241131188D01*
X302491467Y-241224086D01*
X302491460Y-241224090D01*
X302339116Y-241349116D01*
X302214090Y-241501460D01*
X302214086Y-241501467D01*
X302121188Y-241675266D01*
X302063975Y-241863870D01*
X302044659Y-242060000D01*
X301515341Y-242060000D01*
X301496024Y-241863868D01*
X301438814Y-241675273D01*
X301438811Y-241675269D01*
X301438811Y-241675266D01*
X301345913Y-241501467D01*
X301345909Y-241501460D01*
X301220883Y-241349116D01*
X301068539Y-241224090D01*
X301068532Y-241224086D01*
X300894733Y-241131188D01*
X300894727Y-241131186D01*
X300706132Y-241073976D01*
X300706129Y-241073975D01*
X300510000Y-241054659D01*
X300313870Y-241073975D01*
X300125266Y-241131188D01*
X299951467Y-241224086D01*
X299951460Y-241224090D01*
X299799116Y-241349116D01*
X299674090Y-241501460D01*
X299674086Y-241501467D01*
X299581188Y-241675266D01*
X299523975Y-241863870D01*
X299504659Y-242060000D01*
X298975341Y-242060000D01*
X298956024Y-241863868D01*
X298898814Y-241675273D01*
X298898811Y-241675269D01*
X298898811Y-241675266D01*
X298805913Y-241501467D01*
X298805909Y-241501460D01*
X298680883Y-241349116D01*
X298528539Y-241224090D01*
X298528532Y-241224086D01*
X298354733Y-241131188D01*
X298354727Y-241131186D01*
X298166132Y-241073976D01*
X298166129Y-241073975D01*
X297970000Y-241054659D01*
X297773870Y-241073975D01*
X297585266Y-241131188D01*
X297411467Y-241224086D01*
X297411460Y-241224090D01*
X297259116Y-241349116D01*
X297134090Y-241501460D01*
X297134086Y-241501467D01*
X297041188Y-241675266D01*
X296983975Y-241863870D01*
X296964659Y-242060000D01*
X296435341Y-242060000D01*
X296416024Y-241863868D01*
X296358814Y-241675273D01*
X296358811Y-241675269D01*
X296358811Y-241675266D01*
X296265913Y-241501467D01*
X296265909Y-241501460D01*
X296140883Y-241349116D01*
X295988539Y-241224090D01*
X295988532Y-241224086D01*
X295814733Y-241131188D01*
X295814727Y-241131186D01*
X295626132Y-241073976D01*
X295626129Y-241073975D01*
X295430000Y-241054659D01*
X295233870Y-241073975D01*
X295045266Y-241131188D01*
X294871467Y-241224086D01*
X294871460Y-241224090D01*
X294719116Y-241349116D01*
X294594090Y-241501460D01*
X294594086Y-241501467D01*
X294501188Y-241675266D01*
X294443975Y-241863870D01*
X294424659Y-242060000D01*
X293895341Y-242060000D01*
X293876024Y-241863868D01*
X293818814Y-241675273D01*
X293818811Y-241675269D01*
X293818811Y-241675266D01*
X293725913Y-241501467D01*
X293725909Y-241501460D01*
X293600883Y-241349116D01*
X293448539Y-241224090D01*
X293448532Y-241224086D01*
X293274733Y-241131188D01*
X293274727Y-241131186D01*
X293086132Y-241073976D01*
X293086129Y-241073975D01*
X292890000Y-241054659D01*
X292693870Y-241073975D01*
X292505266Y-241131188D01*
X292331467Y-241224086D01*
X292331460Y-241224090D01*
X292179116Y-241349116D01*
X292054090Y-241501460D01*
X292054086Y-241501467D01*
X291961188Y-241675266D01*
X291903975Y-241863870D01*
X291884659Y-242060000D01*
X291355341Y-242060000D01*
X291336024Y-241863868D01*
X291278814Y-241675273D01*
X291278811Y-241675269D01*
X291278811Y-241675266D01*
X291185913Y-241501467D01*
X291185909Y-241501460D01*
X291060883Y-241349116D01*
X290908539Y-241224090D01*
X290908532Y-241224086D01*
X290734733Y-241131188D01*
X290734727Y-241131186D01*
X290546132Y-241073976D01*
X290546129Y-241073975D01*
X290350000Y-241054659D01*
X290153870Y-241073975D01*
X289965266Y-241131188D01*
X289791467Y-241224086D01*
X289791460Y-241224090D01*
X289639116Y-241349116D01*
X289514090Y-241501460D01*
X289514086Y-241501467D01*
X289421188Y-241675266D01*
X289363975Y-241863870D01*
X289344659Y-242060000D01*
X288815341Y-242060000D01*
X288796024Y-241863868D01*
X288738814Y-241675273D01*
X288738811Y-241675269D01*
X288738811Y-241675266D01*
X288645913Y-241501467D01*
X288645909Y-241501460D01*
X288520883Y-241349116D01*
X288368539Y-241224090D01*
X288368532Y-241224086D01*
X288194733Y-241131188D01*
X288194727Y-241131186D01*
X288006132Y-241073976D01*
X288006129Y-241073975D01*
X287810000Y-241054659D01*
X287613870Y-241073975D01*
X287425266Y-241131188D01*
X287251467Y-241224086D01*
X287251460Y-241224090D01*
X287099116Y-241349116D01*
X286974090Y-241501460D01*
X286974086Y-241501467D01*
X286881188Y-241675266D01*
X286823975Y-241863870D01*
X286804659Y-242060000D01*
X285770000Y-242060000D01*
X285770000Y-241994174D01*
X285735925Y-241867007D01*
X285703012Y-241810000D01*
X286548872Y-241810000D01*
X286548872Y-241809999D01*
X286496269Y-241613682D01*
X286496265Y-241613673D01*
X286400134Y-241407517D01*
X286269657Y-241221179D01*
X286108820Y-241060342D01*
X285922482Y-240929865D01*
X285716328Y-240833734D01*
X285520000Y-240781127D01*
X285520000Y-241626988D01*
X285462993Y-241594075D01*
X285335826Y-241560000D01*
X285204174Y-241560000D01*
X285077007Y-241594075D01*
X285020000Y-241626988D01*
X285020000Y-240781127D01*
X284823671Y-240833734D01*
X284617517Y-240929865D01*
X284431179Y-241060342D01*
X284270342Y-241221179D01*
X284139865Y-241407517D01*
X284043734Y-241613673D01*
X284043730Y-241613682D01*
X283991127Y-241809999D01*
X283699683Y-241809999D01*
X283658814Y-241675273D01*
X283658811Y-241675269D01*
X283658811Y-241675266D01*
X283565913Y-241501467D01*
X283565909Y-241501460D01*
X283440883Y-241349116D01*
X283288539Y-241224090D01*
X283288532Y-241224086D01*
X283114733Y-241131188D01*
X283114727Y-241131186D01*
X282926132Y-241073976D01*
X282926129Y-241073975D01*
X282730000Y-241054659D01*
X282533870Y-241073975D01*
X282345266Y-241131188D01*
X282171467Y-241224086D01*
X282171460Y-241224090D01*
X282019116Y-241349116D01*
X281894090Y-241501460D01*
X281894086Y-241501467D01*
X281801188Y-241675266D01*
X281743975Y-241863870D01*
X281724659Y-242060000D01*
X281195341Y-242060000D01*
X281176024Y-241863868D01*
X281118814Y-241675273D01*
X281118811Y-241675269D01*
X281118811Y-241675266D01*
X281025913Y-241501467D01*
X281025909Y-241501460D01*
X280900883Y-241349116D01*
X280748539Y-241224090D01*
X280748532Y-241224086D01*
X280574733Y-241131188D01*
X280574727Y-241131186D01*
X280386132Y-241073976D01*
X280386129Y-241073975D01*
X280190000Y-241054659D01*
X279993870Y-241073975D01*
X279805266Y-241131188D01*
X279631467Y-241224086D01*
X279631460Y-241224090D01*
X279479116Y-241349116D01*
X279354090Y-241501460D01*
X279354086Y-241501467D01*
X279261188Y-241675266D01*
X279203975Y-241863870D01*
X279184659Y-242060000D01*
X278650500Y-242060000D01*
X278650500Y-241240249D01*
X278650499Y-241240247D01*
X278638868Y-241181770D01*
X278638867Y-241181769D01*
X278594552Y-241115447D01*
X278528230Y-241071132D01*
X278528229Y-241071131D01*
X278469752Y-241059500D01*
X278469748Y-241059500D01*
X276830252Y-241059500D01*
X276830247Y-241059500D01*
X276771770Y-241071131D01*
X276771769Y-241071132D01*
X276705447Y-241115447D01*
X276661132Y-241181769D01*
X276661131Y-241181770D01*
X276649500Y-241240247D01*
X254715855Y-241240247D01*
X262811000Y-228068486D01*
X262844099Y-228032848D01*
X264525547Y-226820000D01*
X276644659Y-226820000D01*
X276663975Y-227016129D01*
X276721188Y-227204733D01*
X276814086Y-227378532D01*
X276814090Y-227378539D01*
X276939116Y-227530883D01*
X277091460Y-227655909D01*
X277091467Y-227655913D01*
X277265266Y-227748811D01*
X277265269Y-227748811D01*
X277265273Y-227748814D01*
X277453868Y-227806024D01*
X277650000Y-227825341D01*
X277846132Y-227806024D01*
X278034727Y-227748814D01*
X278208538Y-227655910D01*
X278360883Y-227530883D01*
X278485910Y-227378538D01*
X278545893Y-227266317D01*
X278578811Y-227204733D01*
X278578811Y-227204732D01*
X278578814Y-227204727D01*
X278636024Y-227016132D01*
X278655341Y-226820000D01*
X278636024Y-226623868D01*
X278619683Y-226569999D01*
X278911127Y-226569999D01*
X278911128Y-226570000D01*
X279756988Y-226570000D01*
X279724075Y-226627007D01*
X279690000Y-226754174D01*
X279690000Y-226885826D01*
X279724075Y-227012993D01*
X279756988Y-227070000D01*
X278911128Y-227070000D01*
X278963730Y-227266317D01*
X278963734Y-227266326D01*
X279059865Y-227472482D01*
X279190342Y-227658820D01*
X279351179Y-227819657D01*
X279537517Y-227950134D01*
X279743673Y-228046265D01*
X279743682Y-228046269D01*
X279939999Y-228098872D01*
X279940000Y-228098871D01*
X279940000Y-227253012D01*
X279997007Y-227285925D01*
X280124174Y-227320000D01*
X280255826Y-227320000D01*
X280382993Y-227285925D01*
X280440000Y-227253012D01*
X280440000Y-228098872D01*
X280636317Y-228046269D01*
X280636326Y-228046265D01*
X280842482Y-227950134D01*
X281028820Y-227819657D01*
X281189657Y-227658820D01*
X281320134Y-227472482D01*
X281416265Y-227266326D01*
X281416269Y-227266317D01*
X281468872Y-227070000D01*
X280623012Y-227070000D01*
X280655925Y-227012993D01*
X280690000Y-226885826D01*
X280690000Y-226820000D01*
X281724659Y-226820000D01*
X281743975Y-227016129D01*
X281801188Y-227204733D01*
X281894086Y-227378532D01*
X281894090Y-227378539D01*
X282019116Y-227530883D01*
X282171460Y-227655909D01*
X282171467Y-227655913D01*
X282345266Y-227748811D01*
X282345269Y-227748811D01*
X282345273Y-227748814D01*
X282533868Y-227806024D01*
X282730000Y-227825341D01*
X282926132Y-227806024D01*
X283114727Y-227748814D01*
X283288538Y-227655910D01*
X283440883Y-227530883D01*
X283565910Y-227378538D01*
X283625893Y-227266317D01*
X283658811Y-227204733D01*
X283658811Y-227204732D01*
X283658814Y-227204727D01*
X283716024Y-227016132D01*
X283735341Y-226820000D01*
X284264659Y-226820000D01*
X284283975Y-227016129D01*
X284341188Y-227204733D01*
X284434086Y-227378532D01*
X284434090Y-227378539D01*
X284559116Y-227530883D01*
X284711460Y-227655909D01*
X284711467Y-227655913D01*
X284885266Y-227748811D01*
X284885269Y-227748811D01*
X284885273Y-227748814D01*
X285073868Y-227806024D01*
X285270000Y-227825341D01*
X285466132Y-227806024D01*
X285654727Y-227748814D01*
X285828538Y-227655910D01*
X285980883Y-227530883D01*
X286105910Y-227378538D01*
X286165893Y-227266317D01*
X286198811Y-227204733D01*
X286198811Y-227204732D01*
X286198814Y-227204727D01*
X286256024Y-227016132D01*
X286275341Y-226820000D01*
X286804659Y-226820000D01*
X286823975Y-227016129D01*
X286881188Y-227204733D01*
X286974086Y-227378532D01*
X286974090Y-227378539D01*
X287099116Y-227530883D01*
X287251460Y-227655909D01*
X287251467Y-227655913D01*
X287425266Y-227748811D01*
X287425269Y-227748811D01*
X287425273Y-227748814D01*
X287613868Y-227806024D01*
X287810000Y-227825341D01*
X288006132Y-227806024D01*
X288194727Y-227748814D01*
X288368538Y-227655910D01*
X288520883Y-227530883D01*
X288645910Y-227378538D01*
X288705893Y-227266317D01*
X288738811Y-227204733D01*
X288738811Y-227204732D01*
X288738814Y-227204727D01*
X288796024Y-227016132D01*
X288815341Y-226820000D01*
X289344659Y-226820000D01*
X289363975Y-227016129D01*
X289421188Y-227204733D01*
X289514086Y-227378532D01*
X289514090Y-227378539D01*
X289639116Y-227530883D01*
X289791460Y-227655909D01*
X289791467Y-227655913D01*
X289965266Y-227748811D01*
X289965269Y-227748811D01*
X289965273Y-227748814D01*
X290153868Y-227806024D01*
X290350000Y-227825341D01*
X290546132Y-227806024D01*
X290734727Y-227748814D01*
X290908538Y-227655910D01*
X291060883Y-227530883D01*
X291185910Y-227378538D01*
X291245893Y-227266317D01*
X291278811Y-227204733D01*
X291278811Y-227204732D01*
X291278814Y-227204727D01*
X291336024Y-227016132D01*
X291355341Y-226820000D01*
X291884659Y-226820000D01*
X291903975Y-227016129D01*
X291961188Y-227204733D01*
X292054086Y-227378532D01*
X292054090Y-227378539D01*
X292179116Y-227530883D01*
X292331460Y-227655909D01*
X292331467Y-227655913D01*
X292505266Y-227748811D01*
X292505269Y-227748811D01*
X292505273Y-227748814D01*
X292693868Y-227806024D01*
X292890000Y-227825341D01*
X293086132Y-227806024D01*
X293274727Y-227748814D01*
X293448538Y-227655910D01*
X293600883Y-227530883D01*
X293725910Y-227378538D01*
X293785893Y-227266317D01*
X293818811Y-227204733D01*
X293818811Y-227204732D01*
X293818814Y-227204727D01*
X293876024Y-227016132D01*
X293895341Y-226820000D01*
X294424659Y-226820000D01*
X294443975Y-227016129D01*
X294501188Y-227204733D01*
X294594086Y-227378532D01*
X294594090Y-227378539D01*
X294719116Y-227530883D01*
X294871460Y-227655909D01*
X294871467Y-227655913D01*
X295045266Y-227748811D01*
X295045269Y-227748811D01*
X295045273Y-227748814D01*
X295233868Y-227806024D01*
X295430000Y-227825341D01*
X295626132Y-227806024D01*
X295814727Y-227748814D01*
X295988538Y-227655910D01*
X296140883Y-227530883D01*
X296265910Y-227378538D01*
X296325893Y-227266317D01*
X296358811Y-227204733D01*
X296358811Y-227204732D01*
X296358814Y-227204727D01*
X296416024Y-227016132D01*
X296435341Y-226820000D01*
X296964659Y-226820000D01*
X296983975Y-227016129D01*
X297041188Y-227204733D01*
X297134086Y-227378532D01*
X297134090Y-227378539D01*
X297259116Y-227530883D01*
X297411460Y-227655909D01*
X297411467Y-227655913D01*
X297585266Y-227748811D01*
X297585269Y-227748811D01*
X297585273Y-227748814D01*
X297773868Y-227806024D01*
X297970000Y-227825341D01*
X298166132Y-227806024D01*
X298354727Y-227748814D01*
X298528538Y-227655910D01*
X298680883Y-227530883D01*
X298805910Y-227378538D01*
X298865893Y-227266317D01*
X298898811Y-227204733D01*
X298898811Y-227204732D01*
X298898814Y-227204727D01*
X298956024Y-227016132D01*
X298975341Y-226820000D01*
X299504659Y-226820000D01*
X299523975Y-227016129D01*
X299581188Y-227204733D01*
X299674086Y-227378532D01*
X299674090Y-227378539D01*
X299799116Y-227530883D01*
X299951460Y-227655909D01*
X299951467Y-227655913D01*
X300125266Y-227748811D01*
X300125269Y-227748811D01*
X300125273Y-227748814D01*
X300313868Y-227806024D01*
X300510000Y-227825341D01*
X300706132Y-227806024D01*
X300894727Y-227748814D01*
X301068538Y-227655910D01*
X301220883Y-227530883D01*
X301345910Y-227378538D01*
X301405893Y-227266317D01*
X301438811Y-227204733D01*
X301438811Y-227204732D01*
X301438814Y-227204727D01*
X301496024Y-227016132D01*
X301515341Y-226820000D01*
X302044659Y-226820000D01*
X302063975Y-227016129D01*
X302121188Y-227204733D01*
X302214086Y-227378532D01*
X302214090Y-227378539D01*
X302339116Y-227530883D01*
X302491460Y-227655909D01*
X302491467Y-227655913D01*
X302665266Y-227748811D01*
X302665269Y-227748811D01*
X302665273Y-227748814D01*
X302853868Y-227806024D01*
X303050000Y-227825341D01*
X303246132Y-227806024D01*
X303434727Y-227748814D01*
X303608538Y-227655910D01*
X303760883Y-227530883D01*
X303885910Y-227378538D01*
X303945893Y-227266317D01*
X303978811Y-227204733D01*
X303978811Y-227204732D01*
X303978814Y-227204727D01*
X304036024Y-227016132D01*
X304055341Y-226820000D01*
X304584659Y-226820000D01*
X304603975Y-227016129D01*
X304661188Y-227204733D01*
X304754086Y-227378532D01*
X304754090Y-227378539D01*
X304879116Y-227530883D01*
X305031460Y-227655909D01*
X305031467Y-227655913D01*
X305205266Y-227748811D01*
X305205269Y-227748811D01*
X305205273Y-227748814D01*
X305393868Y-227806024D01*
X305590000Y-227825341D01*
X305786132Y-227806024D01*
X305974727Y-227748814D01*
X306148538Y-227655910D01*
X306300883Y-227530883D01*
X306425910Y-227378538D01*
X306485893Y-227266317D01*
X306518811Y-227204733D01*
X306518811Y-227204732D01*
X306518814Y-227204727D01*
X306576024Y-227016132D01*
X306595341Y-226820000D01*
X307124659Y-226820000D01*
X307143975Y-227016129D01*
X307201188Y-227204733D01*
X307294086Y-227378532D01*
X307294090Y-227378539D01*
X307419116Y-227530883D01*
X307571460Y-227655909D01*
X307571467Y-227655913D01*
X307745266Y-227748811D01*
X307745269Y-227748811D01*
X307745273Y-227748814D01*
X307933868Y-227806024D01*
X308130000Y-227825341D01*
X308326132Y-227806024D01*
X308514727Y-227748814D01*
X308688538Y-227655910D01*
X308840883Y-227530883D01*
X308965910Y-227378538D01*
X309025893Y-227266317D01*
X309058811Y-227204733D01*
X309058811Y-227204732D01*
X309058814Y-227204727D01*
X309116024Y-227016132D01*
X309135341Y-226820000D01*
X309664659Y-226820000D01*
X309683975Y-227016129D01*
X309741188Y-227204733D01*
X309834086Y-227378532D01*
X309834090Y-227378539D01*
X309959116Y-227530883D01*
X310111460Y-227655909D01*
X310111467Y-227655913D01*
X310285266Y-227748811D01*
X310285269Y-227748811D01*
X310285273Y-227748814D01*
X310473868Y-227806024D01*
X310670000Y-227825341D01*
X310866132Y-227806024D01*
X311054727Y-227748814D01*
X311228538Y-227655910D01*
X311380883Y-227530883D01*
X311505910Y-227378538D01*
X311565893Y-227266317D01*
X311598811Y-227204733D01*
X311598811Y-227204732D01*
X311598814Y-227204727D01*
X311656024Y-227016132D01*
X311675341Y-226820000D01*
X312204659Y-226820000D01*
X312223975Y-227016129D01*
X312281188Y-227204733D01*
X312374086Y-227378532D01*
X312374090Y-227378539D01*
X312499116Y-227530883D01*
X312651460Y-227655909D01*
X312651467Y-227655913D01*
X312825266Y-227748811D01*
X312825269Y-227748811D01*
X312825273Y-227748814D01*
X313013868Y-227806024D01*
X313210000Y-227825341D01*
X313406132Y-227806024D01*
X313594727Y-227748814D01*
X313768538Y-227655910D01*
X313920883Y-227530883D01*
X314045910Y-227378538D01*
X314105893Y-227266317D01*
X314138811Y-227204733D01*
X314138811Y-227204732D01*
X314138814Y-227204727D01*
X314196024Y-227016132D01*
X314215341Y-226820000D01*
X314196024Y-226623868D01*
X314138814Y-226435273D01*
X314138811Y-226435269D01*
X314138811Y-226435266D01*
X314045913Y-226261467D01*
X314045909Y-226261460D01*
X313920883Y-226109116D01*
X313768539Y-225984090D01*
X313768532Y-225984086D01*
X313594733Y-225891188D01*
X313594727Y-225891186D01*
X313406132Y-225833976D01*
X313406129Y-225833975D01*
X313210000Y-225814659D01*
X313013870Y-225833975D01*
X312825266Y-225891188D01*
X312651467Y-225984086D01*
X312651460Y-225984090D01*
X312499116Y-226109116D01*
X312374090Y-226261460D01*
X312374086Y-226261467D01*
X312281188Y-226435266D01*
X312223975Y-226623870D01*
X312204659Y-226820000D01*
X311675341Y-226820000D01*
X311656024Y-226623868D01*
X311598814Y-226435273D01*
X311598811Y-226435269D01*
X311598811Y-226435266D01*
X311505913Y-226261467D01*
X311505909Y-226261460D01*
X311380883Y-226109116D01*
X311228539Y-225984090D01*
X311228532Y-225984086D01*
X311054733Y-225891188D01*
X311054727Y-225891186D01*
X310866132Y-225833976D01*
X310866129Y-225833975D01*
X310670000Y-225814659D01*
X310473870Y-225833975D01*
X310285266Y-225891188D01*
X310111467Y-225984086D01*
X310111460Y-225984090D01*
X309959116Y-226109116D01*
X309834090Y-226261460D01*
X309834086Y-226261467D01*
X309741188Y-226435266D01*
X309683975Y-226623870D01*
X309664659Y-226820000D01*
X309135341Y-226820000D01*
X309116024Y-226623868D01*
X309058814Y-226435273D01*
X309058811Y-226435269D01*
X309058811Y-226435266D01*
X308965913Y-226261467D01*
X308965909Y-226261460D01*
X308840883Y-226109116D01*
X308688539Y-225984090D01*
X308688532Y-225984086D01*
X308514733Y-225891188D01*
X308514727Y-225891186D01*
X308326132Y-225833976D01*
X308326129Y-225833975D01*
X308130000Y-225814659D01*
X307933870Y-225833975D01*
X307745266Y-225891188D01*
X307571467Y-225984086D01*
X307571460Y-225984090D01*
X307419116Y-226109116D01*
X307294090Y-226261460D01*
X307294086Y-226261467D01*
X307201188Y-226435266D01*
X307143975Y-226623870D01*
X307124659Y-226820000D01*
X306595341Y-226820000D01*
X306576024Y-226623868D01*
X306518814Y-226435273D01*
X306518811Y-226435269D01*
X306518811Y-226435266D01*
X306425913Y-226261467D01*
X306425909Y-226261460D01*
X306300883Y-226109116D01*
X306148539Y-225984090D01*
X306148532Y-225984086D01*
X305974733Y-225891188D01*
X305974727Y-225891186D01*
X305786132Y-225833976D01*
X305786129Y-225833975D01*
X305590000Y-225814659D01*
X305393870Y-225833975D01*
X305205266Y-225891188D01*
X305031467Y-225984086D01*
X305031460Y-225984090D01*
X304879116Y-226109116D01*
X304754090Y-226261460D01*
X304754086Y-226261467D01*
X304661188Y-226435266D01*
X304603975Y-226623870D01*
X304584659Y-226820000D01*
X304055341Y-226820000D01*
X304036024Y-226623868D01*
X303978814Y-226435273D01*
X303978811Y-226435269D01*
X303978811Y-226435266D01*
X303885913Y-226261467D01*
X303885909Y-226261460D01*
X303760883Y-226109116D01*
X303608539Y-225984090D01*
X303608532Y-225984086D01*
X303434733Y-225891188D01*
X303434727Y-225891186D01*
X303246132Y-225833976D01*
X303246129Y-225833975D01*
X303050000Y-225814659D01*
X302853870Y-225833975D01*
X302665266Y-225891188D01*
X302491467Y-225984086D01*
X302491460Y-225984090D01*
X302339116Y-226109116D01*
X302214090Y-226261460D01*
X302214086Y-226261467D01*
X302121188Y-226435266D01*
X302063975Y-226623870D01*
X302044659Y-226820000D01*
X301515341Y-226820000D01*
X301496024Y-226623868D01*
X301438814Y-226435273D01*
X301438811Y-226435269D01*
X301438811Y-226435266D01*
X301345913Y-226261467D01*
X301345909Y-226261460D01*
X301220883Y-226109116D01*
X301068539Y-225984090D01*
X301068532Y-225984086D01*
X300894733Y-225891188D01*
X300894727Y-225891186D01*
X300706132Y-225833976D01*
X300706129Y-225833975D01*
X300510000Y-225814659D01*
X300313870Y-225833975D01*
X300125266Y-225891188D01*
X299951467Y-225984086D01*
X299951460Y-225984090D01*
X299799116Y-226109116D01*
X299674090Y-226261460D01*
X299674086Y-226261467D01*
X299581188Y-226435266D01*
X299523975Y-226623870D01*
X299504659Y-226820000D01*
X298975341Y-226820000D01*
X298956024Y-226623868D01*
X298898814Y-226435273D01*
X298898811Y-226435269D01*
X298898811Y-226435266D01*
X298805913Y-226261467D01*
X298805909Y-226261460D01*
X298680883Y-226109116D01*
X298528539Y-225984090D01*
X298528532Y-225984086D01*
X298354733Y-225891188D01*
X298354727Y-225891186D01*
X298166132Y-225833976D01*
X298166129Y-225833975D01*
X297970000Y-225814659D01*
X297773870Y-225833975D01*
X297585266Y-225891188D01*
X297411467Y-225984086D01*
X297411460Y-225984090D01*
X297259116Y-226109116D01*
X297134090Y-226261460D01*
X297134086Y-226261467D01*
X297041188Y-226435266D01*
X296983975Y-226623870D01*
X296964659Y-226820000D01*
X296435341Y-226820000D01*
X296416024Y-226623868D01*
X296358814Y-226435273D01*
X296358811Y-226435269D01*
X296358811Y-226435266D01*
X296265913Y-226261467D01*
X296265909Y-226261460D01*
X296140883Y-226109116D01*
X295988539Y-225984090D01*
X295988532Y-225984086D01*
X295814733Y-225891188D01*
X295814727Y-225891186D01*
X295626132Y-225833976D01*
X295626129Y-225833975D01*
X295430000Y-225814659D01*
X295233870Y-225833975D01*
X295045266Y-225891188D01*
X294871467Y-225984086D01*
X294871460Y-225984090D01*
X294719116Y-226109116D01*
X294594090Y-226261460D01*
X294594086Y-226261467D01*
X294501188Y-226435266D01*
X294443975Y-226623870D01*
X294424659Y-226820000D01*
X293895341Y-226820000D01*
X293876024Y-226623868D01*
X293818814Y-226435273D01*
X293818811Y-226435269D01*
X293818811Y-226435266D01*
X293725913Y-226261467D01*
X293725909Y-226261460D01*
X293600883Y-226109116D01*
X293448539Y-225984090D01*
X293448532Y-225984086D01*
X293274733Y-225891188D01*
X293274727Y-225891186D01*
X293086132Y-225833976D01*
X293086129Y-225833975D01*
X292890000Y-225814659D01*
X292693870Y-225833975D01*
X292505266Y-225891188D01*
X292331467Y-225984086D01*
X292331460Y-225984090D01*
X292179116Y-226109116D01*
X292054090Y-226261460D01*
X292054086Y-226261467D01*
X291961188Y-226435266D01*
X291903975Y-226623870D01*
X291884659Y-226820000D01*
X291355341Y-226820000D01*
X291336024Y-226623868D01*
X291278814Y-226435273D01*
X291278811Y-226435269D01*
X291278811Y-226435266D01*
X291185913Y-226261467D01*
X291185909Y-226261460D01*
X291060883Y-226109116D01*
X290908539Y-225984090D01*
X290908532Y-225984086D01*
X290734733Y-225891188D01*
X290734727Y-225891186D01*
X290546132Y-225833976D01*
X290546129Y-225833975D01*
X290350000Y-225814659D01*
X290153870Y-225833975D01*
X289965266Y-225891188D01*
X289791467Y-225984086D01*
X289791460Y-225984090D01*
X289639116Y-226109116D01*
X289514090Y-226261460D01*
X289514086Y-226261467D01*
X289421188Y-226435266D01*
X289363975Y-226623870D01*
X289344659Y-226820000D01*
X288815341Y-226820000D01*
X288796024Y-226623868D01*
X288738814Y-226435273D01*
X288738811Y-226435269D01*
X288738811Y-226435266D01*
X288645913Y-226261467D01*
X288645909Y-226261460D01*
X288520883Y-226109116D01*
X288368539Y-225984090D01*
X288368532Y-225984086D01*
X288194733Y-225891188D01*
X288194727Y-225891186D01*
X288006132Y-225833976D01*
X288006129Y-225833975D01*
X287810000Y-225814659D01*
X287613870Y-225833975D01*
X287425266Y-225891188D01*
X287251467Y-225984086D01*
X287251460Y-225984090D01*
X287099116Y-226109116D01*
X286974090Y-226261460D01*
X286974086Y-226261467D01*
X286881188Y-226435266D01*
X286823975Y-226623870D01*
X286804659Y-226820000D01*
X286275341Y-226820000D01*
X286256024Y-226623868D01*
X286198814Y-226435273D01*
X286198811Y-226435269D01*
X286198811Y-226435266D01*
X286105913Y-226261467D01*
X286105909Y-226261460D01*
X285980883Y-226109116D01*
X285828539Y-225984090D01*
X285828532Y-225984086D01*
X285654733Y-225891188D01*
X285654727Y-225891186D01*
X285466132Y-225833976D01*
X285466129Y-225833975D01*
X285270000Y-225814659D01*
X285073870Y-225833975D01*
X284885266Y-225891188D01*
X284711467Y-225984086D01*
X284711460Y-225984090D01*
X284559116Y-226109116D01*
X284434090Y-226261460D01*
X284434086Y-226261467D01*
X284341188Y-226435266D01*
X284283975Y-226623870D01*
X284264659Y-226820000D01*
X283735341Y-226820000D01*
X283716024Y-226623868D01*
X283658814Y-226435273D01*
X283658811Y-226435269D01*
X283658811Y-226435266D01*
X283565913Y-226261467D01*
X283565909Y-226261460D01*
X283440883Y-226109116D01*
X283288539Y-225984090D01*
X283288532Y-225984086D01*
X283114733Y-225891188D01*
X283114727Y-225891186D01*
X282926132Y-225833976D01*
X282926129Y-225833975D01*
X282730000Y-225814659D01*
X282533870Y-225833975D01*
X282345266Y-225891188D01*
X282171467Y-225984086D01*
X282171460Y-225984090D01*
X282019116Y-226109116D01*
X281894090Y-226261460D01*
X281894086Y-226261467D01*
X281801188Y-226435266D01*
X281743975Y-226623870D01*
X281724659Y-226820000D01*
X280690000Y-226820000D01*
X280690000Y-226754174D01*
X280655925Y-226627007D01*
X280623012Y-226570000D01*
X281468872Y-226570000D01*
X281468872Y-226569999D01*
X281416269Y-226373682D01*
X281416265Y-226373673D01*
X281320134Y-226167517D01*
X281189657Y-225981179D01*
X281028820Y-225820342D01*
X280842482Y-225689865D01*
X280636328Y-225593734D01*
X280440000Y-225541127D01*
X280440000Y-226386988D01*
X280382993Y-226354075D01*
X280255826Y-226320000D01*
X280124174Y-226320000D01*
X279997007Y-226354075D01*
X279940000Y-226386988D01*
X279940000Y-225541127D01*
X279743671Y-225593734D01*
X279537517Y-225689865D01*
X279351179Y-225820342D01*
X279190342Y-225981179D01*
X279059865Y-226167517D01*
X278963734Y-226373673D01*
X278963730Y-226373682D01*
X278911127Y-226569999D01*
X278619683Y-226569999D01*
X278578814Y-226435273D01*
X278578811Y-226435269D01*
X278578811Y-226435266D01*
X278485913Y-226261467D01*
X278485909Y-226261460D01*
X278360883Y-226109116D01*
X278208539Y-225984090D01*
X278208532Y-225984086D01*
X278034733Y-225891188D01*
X278034727Y-225891186D01*
X277846132Y-225833976D01*
X277846129Y-225833975D01*
X277650000Y-225814659D01*
X277453870Y-225833975D01*
X277265266Y-225891188D01*
X277091467Y-225984086D01*
X277091460Y-225984090D01*
X276939116Y-226109116D01*
X276814090Y-226261460D01*
X276814086Y-226261467D01*
X276721188Y-226435266D01*
X276663975Y-226623870D01*
X276644659Y-226820000D01*
X264525547Y-226820000D01*
X271693047Y-221650000D01*
X286774417Y-221650000D01*
X286794699Y-221855932D01*
X286810916Y-221909392D01*
X286854768Y-222053954D01*
X286952315Y-222236450D01*
X286952317Y-222236452D01*
X287083589Y-222396410D01*
X287180209Y-222475702D01*
X287243550Y-222527685D01*
X287426046Y-222625232D01*
X287624066Y-222685300D01*
X287624065Y-222685300D01*
X287642529Y-222687118D01*
X287830000Y-222705583D01*
X288035934Y-222685300D01*
X288233954Y-222625232D01*
X288416450Y-222527685D01*
X288576410Y-222396410D01*
X288707685Y-222236450D01*
X288805232Y-222053954D01*
X288865300Y-221855934D01*
X288885583Y-221650000D01*
X289314417Y-221650000D01*
X289334699Y-221855932D01*
X289350916Y-221909392D01*
X289394768Y-222053954D01*
X289492315Y-222236450D01*
X289492317Y-222236452D01*
X289623589Y-222396410D01*
X289720209Y-222475702D01*
X289783550Y-222527685D01*
X289966046Y-222625232D01*
X290164066Y-222685300D01*
X290164065Y-222685300D01*
X290182529Y-222687118D01*
X290370000Y-222705583D01*
X290575934Y-222685300D01*
X290773954Y-222625232D01*
X290956450Y-222527685D01*
X291116410Y-222396410D01*
X291247685Y-222236450D01*
X291345232Y-222053954D01*
X291405300Y-221855934D01*
X291425583Y-221650000D01*
X291854417Y-221650000D01*
X291874699Y-221855932D01*
X291890916Y-221909392D01*
X291934768Y-222053954D01*
X292032315Y-222236450D01*
X292032317Y-222236452D01*
X292163589Y-222396410D01*
X292260209Y-222475702D01*
X292323550Y-222527685D01*
X292506046Y-222625232D01*
X292704066Y-222685300D01*
X292704065Y-222685300D01*
X292722529Y-222687118D01*
X292910000Y-222705583D01*
X293115934Y-222685300D01*
X293313954Y-222625232D01*
X293496450Y-222527685D01*
X293656410Y-222396410D01*
X293787685Y-222236450D01*
X293885232Y-222053954D01*
X293945300Y-221855934D01*
X293965583Y-221650000D01*
X294394417Y-221650000D01*
X294414699Y-221855932D01*
X294430916Y-221909392D01*
X294474768Y-222053954D01*
X294572315Y-222236450D01*
X294572317Y-222236452D01*
X294703589Y-222396410D01*
X294800209Y-222475702D01*
X294863550Y-222527685D01*
X295046046Y-222625232D01*
X295244066Y-222685300D01*
X295244065Y-222685300D01*
X295262529Y-222687118D01*
X295450000Y-222705583D01*
X295655934Y-222685300D01*
X295853954Y-222625232D01*
X296036450Y-222527685D01*
X296196410Y-222396410D01*
X296327685Y-222236450D01*
X296425232Y-222053954D01*
X296485300Y-221855934D01*
X296505583Y-221650000D01*
X296934417Y-221650000D01*
X296954699Y-221855932D01*
X296970916Y-221909392D01*
X297014768Y-222053954D01*
X297112315Y-222236450D01*
X297112317Y-222236452D01*
X297243589Y-222396410D01*
X297340209Y-222475702D01*
X297403550Y-222527685D01*
X297586046Y-222625232D01*
X297784066Y-222685300D01*
X297784065Y-222685300D01*
X297802529Y-222687118D01*
X297990000Y-222705583D01*
X298195934Y-222685300D01*
X298393954Y-222625232D01*
X298576450Y-222527685D01*
X298736410Y-222396410D01*
X298867685Y-222236450D01*
X298965232Y-222053954D01*
X299025300Y-221855934D01*
X299045583Y-221650000D01*
X299474417Y-221650000D01*
X299494699Y-221855932D01*
X299510916Y-221909392D01*
X299554768Y-222053954D01*
X299652315Y-222236450D01*
X299652317Y-222236452D01*
X299783589Y-222396410D01*
X299880209Y-222475702D01*
X299943550Y-222527685D01*
X300126046Y-222625232D01*
X300324066Y-222685300D01*
X300324065Y-222685300D01*
X300342529Y-222687118D01*
X300530000Y-222705583D01*
X300735934Y-222685300D01*
X300933954Y-222625232D01*
X301116450Y-222527685D01*
X301276410Y-222396410D01*
X301407685Y-222236450D01*
X301505232Y-222053954D01*
X301565300Y-221855934D01*
X301585583Y-221650000D01*
X302014417Y-221650000D01*
X302034699Y-221855932D01*
X302050916Y-221909392D01*
X302094768Y-222053954D01*
X302192315Y-222236450D01*
X302192317Y-222236452D01*
X302323589Y-222396410D01*
X302420209Y-222475702D01*
X302483550Y-222527685D01*
X302666046Y-222625232D01*
X302864066Y-222685300D01*
X302864065Y-222685300D01*
X302882529Y-222687118D01*
X303070000Y-222705583D01*
X303275934Y-222685300D01*
X303473954Y-222625232D01*
X303656450Y-222527685D01*
X303816410Y-222396410D01*
X303947685Y-222236450D01*
X304045232Y-222053954D01*
X304105300Y-221855934D01*
X304125583Y-221650000D01*
X304105300Y-221444066D01*
X304045232Y-221246046D01*
X303947685Y-221063550D01*
X303845101Y-220938550D01*
X303816410Y-220903589D01*
X303666121Y-220780252D01*
X303666115Y-220780247D01*
X304559500Y-220780247D01*
X304559500Y-222519752D01*
X304571131Y-222578229D01*
X304571132Y-222578230D01*
X304615447Y-222644552D01*
X304681769Y-222688867D01*
X304681770Y-222688868D01*
X304740247Y-222700499D01*
X304740250Y-222700500D01*
X304740252Y-222700500D01*
X306479750Y-222700500D01*
X306479751Y-222700499D01*
X306494568Y-222697552D01*
X306538229Y-222688868D01*
X306538229Y-222688867D01*
X306538231Y-222688867D01*
X306604552Y-222644552D01*
X306648867Y-222578231D01*
X306648867Y-222578229D01*
X306648868Y-222578229D01*
X306660499Y-222519752D01*
X306660500Y-222519750D01*
X306660500Y-220780249D01*
X306660499Y-220780247D01*
X306648868Y-220721770D01*
X306648867Y-220721769D01*
X306604552Y-220655447D01*
X306562210Y-220627155D01*
X311575000Y-220627155D01*
X311575000Y-221275000D01*
X312491988Y-221275000D01*
X312459075Y-221332007D01*
X312425000Y-221459174D01*
X312425000Y-221590826D01*
X312459075Y-221717993D01*
X312491988Y-221775000D01*
X311575000Y-221775000D01*
X311575000Y-222422844D01*
X311581401Y-222482372D01*
X311581403Y-222482379D01*
X311631645Y-222617086D01*
X311631649Y-222617093D01*
X311717809Y-222732187D01*
X311717812Y-222732190D01*
X311832906Y-222818350D01*
X311832913Y-222818354D01*
X311967620Y-222868596D01*
X311967627Y-222868598D01*
X312027155Y-222874999D01*
X312027172Y-222875000D01*
X312675000Y-222875000D01*
X312675000Y-221958012D01*
X312732007Y-221990925D01*
X312859174Y-222025000D01*
X312990826Y-222025000D01*
X313117993Y-221990925D01*
X313175000Y-221958012D01*
X313175000Y-222875000D01*
X313822828Y-222875000D01*
X313822844Y-222874999D01*
X313882372Y-222868598D01*
X313882379Y-222868596D01*
X314017086Y-222818354D01*
X314017093Y-222818350D01*
X314132187Y-222732190D01*
X314132190Y-222732187D01*
X314218350Y-222617093D01*
X314218354Y-222617086D01*
X314268596Y-222482379D01*
X314268598Y-222482372D01*
X314274999Y-222422844D01*
X314275000Y-222422827D01*
X314275000Y-222022186D01*
X314294685Y-221955147D01*
X314347489Y-221909392D01*
X314416647Y-221899448D01*
X314480203Y-221928473D01*
X314508356Y-221963729D01*
X314587315Y-222111450D01*
X314587317Y-222111452D01*
X314718589Y-222271410D01*
X314815209Y-222350702D01*
X314878550Y-222402685D01*
X315061046Y-222500232D01*
X315259066Y-222560300D01*
X315259065Y-222560300D01*
X315277529Y-222562118D01*
X315465000Y-222580583D01*
X315670934Y-222560300D01*
X315868954Y-222500232D01*
X316051450Y-222402685D01*
X316211410Y-222271410D01*
X316342685Y-222111450D01*
X316440232Y-221928954D01*
X316500300Y-221730934D01*
X316520583Y-221525000D01*
X316500300Y-221319066D01*
X316440232Y-221121046D01*
X316342685Y-220938550D01*
X316290702Y-220875209D01*
X316211410Y-220778589D01*
X316051452Y-220647317D01*
X316051453Y-220647317D01*
X316051450Y-220647315D01*
X315868954Y-220549768D01*
X315670934Y-220489700D01*
X315670932Y-220489699D01*
X315670934Y-220489699D01*
X315465000Y-220469417D01*
X315259067Y-220489699D01*
X315061043Y-220549769D01*
X315027634Y-220567627D01*
X314878550Y-220647315D01*
X314878548Y-220647316D01*
X314878547Y-220647317D01*
X314718589Y-220778589D01*
X314587317Y-220938547D01*
X314587315Y-220938550D01*
X314520502Y-221063547D01*
X314508358Y-221086267D01*
X314459395Y-221136111D01*
X314391257Y-221151571D01*
X314325578Y-221127739D01*
X314283209Y-221072181D01*
X314275000Y-221027813D01*
X314275000Y-220627172D01*
X314274999Y-220627155D01*
X314268598Y-220567627D01*
X314268596Y-220567620D01*
X314218354Y-220432913D01*
X314218350Y-220432906D01*
X314132190Y-220317812D01*
X314132187Y-220317809D01*
X314017093Y-220231649D01*
X314017086Y-220231645D01*
X313882379Y-220181403D01*
X313882372Y-220181401D01*
X313822844Y-220175000D01*
X313175000Y-220175000D01*
X313175000Y-221091988D01*
X313117993Y-221059075D01*
X312990826Y-221025000D01*
X312859174Y-221025000D01*
X312732007Y-221059075D01*
X312675000Y-221091988D01*
X312675000Y-220175000D01*
X312027155Y-220175000D01*
X311967627Y-220181401D01*
X311967620Y-220181403D01*
X311832913Y-220231645D01*
X311832906Y-220231649D01*
X311717812Y-220317809D01*
X311717809Y-220317812D01*
X311631649Y-220432906D01*
X311631645Y-220432913D01*
X311581403Y-220567620D01*
X311581401Y-220567627D01*
X311575000Y-220627155D01*
X306562210Y-220627155D01*
X306538230Y-220611132D01*
X306538229Y-220611131D01*
X306479752Y-220599500D01*
X306479748Y-220599500D01*
X304740252Y-220599500D01*
X304740247Y-220599500D01*
X304681770Y-220611131D01*
X304681769Y-220611132D01*
X304615447Y-220655447D01*
X304571132Y-220721769D01*
X304571131Y-220721770D01*
X304559500Y-220780247D01*
X303666115Y-220780247D01*
X303656450Y-220772315D01*
X303473954Y-220674768D01*
X303275934Y-220614700D01*
X303275932Y-220614699D01*
X303275934Y-220614699D01*
X303070000Y-220594417D01*
X302864067Y-220614699D01*
X302666043Y-220674769D01*
X302578114Y-220721769D01*
X302483550Y-220772315D01*
X302483548Y-220772316D01*
X302483547Y-220772317D01*
X302323589Y-220903589D01*
X302192317Y-221063547D01*
X302192315Y-221063550D01*
X302159522Y-221124901D01*
X302094769Y-221246043D01*
X302034699Y-221444067D01*
X302014417Y-221650000D01*
X301585583Y-221650000D01*
X301565300Y-221444066D01*
X301505232Y-221246046D01*
X301407685Y-221063550D01*
X301305101Y-220938550D01*
X301276410Y-220903589D01*
X301126121Y-220780252D01*
X301116450Y-220772315D01*
X300933954Y-220674768D01*
X300735934Y-220614700D01*
X300735932Y-220614699D01*
X300735934Y-220614699D01*
X300530000Y-220594417D01*
X300324067Y-220614699D01*
X300126043Y-220674769D01*
X300038114Y-220721769D01*
X299943550Y-220772315D01*
X299943548Y-220772316D01*
X299943547Y-220772317D01*
X299783589Y-220903589D01*
X299652317Y-221063547D01*
X299652315Y-221063550D01*
X299619522Y-221124901D01*
X299554769Y-221246043D01*
X299494699Y-221444067D01*
X299474417Y-221650000D01*
X299045583Y-221650000D01*
X299025300Y-221444066D01*
X298965232Y-221246046D01*
X298867685Y-221063550D01*
X298765101Y-220938550D01*
X298736410Y-220903589D01*
X298586121Y-220780252D01*
X298576450Y-220772315D01*
X298393954Y-220674768D01*
X298195934Y-220614700D01*
X298195932Y-220614699D01*
X298195934Y-220614699D01*
X297990000Y-220594417D01*
X297784067Y-220614699D01*
X297586043Y-220674769D01*
X297498114Y-220721769D01*
X297403550Y-220772315D01*
X297403548Y-220772316D01*
X297403547Y-220772317D01*
X297243589Y-220903589D01*
X297112317Y-221063547D01*
X297112315Y-221063550D01*
X297079522Y-221124901D01*
X297014769Y-221246043D01*
X296954699Y-221444067D01*
X296934417Y-221650000D01*
X296505583Y-221650000D01*
X296485300Y-221444066D01*
X296425232Y-221246046D01*
X296327685Y-221063550D01*
X296225101Y-220938550D01*
X296196410Y-220903589D01*
X296046121Y-220780252D01*
X296036450Y-220772315D01*
X295853954Y-220674768D01*
X295655934Y-220614700D01*
X295655932Y-220614699D01*
X295655934Y-220614699D01*
X295450000Y-220594417D01*
X295244067Y-220614699D01*
X295046043Y-220674769D01*
X294958114Y-220721769D01*
X294863550Y-220772315D01*
X294863548Y-220772316D01*
X294863547Y-220772317D01*
X294703589Y-220903589D01*
X294572317Y-221063547D01*
X294572315Y-221063550D01*
X294539522Y-221124901D01*
X294474769Y-221246043D01*
X294414699Y-221444067D01*
X294394417Y-221650000D01*
X293965583Y-221650000D01*
X293945300Y-221444066D01*
X293885232Y-221246046D01*
X293787685Y-221063550D01*
X293685101Y-220938550D01*
X293656410Y-220903589D01*
X293506121Y-220780252D01*
X293496450Y-220772315D01*
X293313954Y-220674768D01*
X293115934Y-220614700D01*
X293115932Y-220614699D01*
X293115934Y-220614699D01*
X292910000Y-220594417D01*
X292704067Y-220614699D01*
X292506043Y-220674769D01*
X292418114Y-220721769D01*
X292323550Y-220772315D01*
X292323548Y-220772316D01*
X292323547Y-220772317D01*
X292163589Y-220903589D01*
X292032317Y-221063547D01*
X292032315Y-221063550D01*
X291999522Y-221124901D01*
X291934769Y-221246043D01*
X291874699Y-221444067D01*
X291854417Y-221650000D01*
X291425583Y-221650000D01*
X291405300Y-221444066D01*
X291345232Y-221246046D01*
X291247685Y-221063550D01*
X291145101Y-220938550D01*
X291116410Y-220903589D01*
X290966121Y-220780252D01*
X290956450Y-220772315D01*
X290773954Y-220674768D01*
X290575934Y-220614700D01*
X290575932Y-220614699D01*
X290575934Y-220614699D01*
X290370000Y-220594417D01*
X290164067Y-220614699D01*
X289966043Y-220674769D01*
X289878114Y-220721769D01*
X289783550Y-220772315D01*
X289783548Y-220772316D01*
X289783547Y-220772317D01*
X289623589Y-220903589D01*
X289492317Y-221063547D01*
X289492315Y-221063550D01*
X289459522Y-221124901D01*
X289394769Y-221246043D01*
X289334699Y-221444067D01*
X289314417Y-221650000D01*
X288885583Y-221650000D01*
X288865300Y-221444066D01*
X288805232Y-221246046D01*
X288707685Y-221063550D01*
X288605101Y-220938550D01*
X288576410Y-220903589D01*
X288426121Y-220780252D01*
X288416450Y-220772315D01*
X288233954Y-220674768D01*
X288035934Y-220614700D01*
X288035932Y-220614699D01*
X288035934Y-220614699D01*
X287830000Y-220594417D01*
X287624067Y-220614699D01*
X287426043Y-220674769D01*
X287338114Y-220721769D01*
X287243550Y-220772315D01*
X287243548Y-220772316D01*
X287243547Y-220772317D01*
X287083589Y-220903589D01*
X286952317Y-221063547D01*
X286952315Y-221063550D01*
X286919522Y-221124901D01*
X286854769Y-221246043D01*
X286794699Y-221444067D01*
X286774417Y-221650000D01*
X271693047Y-221650000D01*
X277335204Y-217580247D01*
X308224500Y-217580247D01*
X308224500Y-219319752D01*
X308236131Y-219378229D01*
X308236132Y-219378230D01*
X308280447Y-219444552D01*
X308346769Y-219488867D01*
X308346770Y-219488868D01*
X308405247Y-219500499D01*
X308405250Y-219500500D01*
X308405252Y-219500500D01*
X310144750Y-219500500D01*
X310144751Y-219500499D01*
X310159568Y-219497552D01*
X310203229Y-219488868D01*
X310203229Y-219488867D01*
X310203231Y-219488867D01*
X310269552Y-219444552D01*
X310313867Y-219378231D01*
X310313867Y-219378229D01*
X310313868Y-219378229D01*
X310325499Y-219319752D01*
X310325500Y-219319750D01*
X310325500Y-217580249D01*
X310325499Y-217580247D01*
X310313868Y-217521770D01*
X310313867Y-217521769D01*
X310269552Y-217455447D01*
X310203230Y-217411132D01*
X310203229Y-217411131D01*
X310144752Y-217399500D01*
X310144748Y-217399500D01*
X308405252Y-217399500D01*
X308405247Y-217399500D01*
X308346770Y-217411131D01*
X308346769Y-217411132D01*
X308280447Y-217455447D01*
X308236132Y-217521769D01*
X308236131Y-217521770D01*
X308224500Y-217580247D01*
X277335204Y-217580247D01*
X277967143Y-217124422D01*
X277977658Y-217117621D01*
X278007314Y-217100500D01*
X278018386Y-217089426D01*
X278033537Y-217076532D01*
X278046236Y-217067373D01*
X278067880Y-217040829D01*
X278076289Y-217031524D01*
X278076292Y-217031521D01*
X278100500Y-217007314D01*
X278108334Y-216993745D01*
X278119626Y-216977376D01*
X278129521Y-216965243D01*
X278143555Y-216934010D01*
X278149270Y-216922839D01*
X278166392Y-216893186D01*
X278170445Y-216878056D01*
X278177112Y-216859330D01*
X278183536Y-216845037D01*
X278189011Y-216811212D01*
X278191637Y-216798966D01*
X278200500Y-216765892D01*
X278200500Y-216750229D01*
X278202094Y-216730410D01*
X278204598Y-216714946D01*
X278201135Y-216680871D01*
X278200500Y-216668335D01*
X278200500Y-204064108D01*
X288639500Y-204064108D01*
X288639500Y-208075891D01*
X288673608Y-208203187D01*
X288706554Y-208260250D01*
X288739500Y-208317314D01*
X288832686Y-208410500D01*
X288946814Y-208476392D01*
X289074108Y-208510500D01*
X289074110Y-208510500D01*
X304205890Y-208510500D01*
X304205892Y-208510500D01*
X304333186Y-208476392D01*
X304447314Y-208410500D01*
X304540500Y-208317314D01*
X304606392Y-208203186D01*
X304640500Y-208075892D01*
X304640500Y-204064108D01*
X304606392Y-203936814D01*
X304540500Y-203822686D01*
X304447314Y-203729500D01*
X304390250Y-203696554D01*
X304333187Y-203663608D01*
X304269539Y-203646554D01*
X304205892Y-203629500D01*
X289205892Y-203629500D01*
X289074108Y-203629500D01*
X288946812Y-203663608D01*
X288832686Y-203729500D01*
X288832683Y-203729502D01*
X288739502Y-203822683D01*
X288739500Y-203822686D01*
X288673608Y-203936812D01*
X288639500Y-204064108D01*
X278200500Y-204064108D01*
X278200500Y-196862337D01*
X278216197Y-196801951D01*
X279065518Y-195278711D01*
X286799500Y-195278711D01*
X286799500Y-195521288D01*
X286831161Y-195761785D01*
X286893947Y-195996104D01*
X286986773Y-196220205D01*
X286986776Y-196220212D01*
X287108064Y-196430289D01*
X287108066Y-196430292D01*
X287108067Y-196430293D01*
X287255733Y-196622736D01*
X287255739Y-196622743D01*
X287427256Y-196794260D01*
X287427262Y-196794265D01*
X287619711Y-196941936D01*
X287829788Y-197063224D01*
X288053900Y-197156054D01*
X288288211Y-197218838D01*
X288468586Y-197242584D01*
X288528711Y-197250500D01*
X288528712Y-197250500D01*
X288771289Y-197250500D01*
X288819388Y-197244167D01*
X289011789Y-197218838D01*
X289246100Y-197156054D01*
X289470212Y-197063224D01*
X289680289Y-196941936D01*
X289872738Y-196794265D01*
X290044265Y-196622738D01*
X290191936Y-196430289D01*
X290313224Y-196220212D01*
X290406054Y-195996100D01*
X290468838Y-195761789D01*
X290500500Y-195521288D01*
X290500500Y-195278712D01*
X290500500Y-195278711D01*
X302799500Y-195278711D01*
X302799500Y-195521288D01*
X302831161Y-195761785D01*
X302893947Y-195996104D01*
X302986773Y-196220205D01*
X302986776Y-196220212D01*
X303108064Y-196430289D01*
X303108066Y-196430292D01*
X303108067Y-196430293D01*
X303255733Y-196622736D01*
X303255739Y-196622743D01*
X303427256Y-196794260D01*
X303427262Y-196794265D01*
X303619711Y-196941936D01*
X303829788Y-197063224D01*
X304053900Y-197156054D01*
X304288211Y-197218838D01*
X304468586Y-197242584D01*
X304528711Y-197250500D01*
X304528712Y-197250500D01*
X304771289Y-197250500D01*
X304819388Y-197244167D01*
X305011789Y-197218838D01*
X305246100Y-197156054D01*
X305470212Y-197063224D01*
X305680289Y-196941936D01*
X305872738Y-196794265D01*
X306044265Y-196622738D01*
X306191936Y-196430289D01*
X306313224Y-196220212D01*
X306406054Y-195996100D01*
X306468838Y-195761789D01*
X306500500Y-195521288D01*
X306500500Y-195278712D01*
X306468838Y-195038211D01*
X306406054Y-194803900D01*
X306313224Y-194579788D01*
X306191936Y-194369711D01*
X306044265Y-194177262D01*
X306044260Y-194177256D01*
X305872743Y-194005739D01*
X305872736Y-194005733D01*
X305680293Y-193858067D01*
X305680292Y-193858066D01*
X305680289Y-193858064D01*
X305470212Y-193736776D01*
X305470205Y-193736773D01*
X305246104Y-193643947D01*
X305011785Y-193581161D01*
X304771289Y-193549500D01*
X304771288Y-193549500D01*
X304528712Y-193549500D01*
X304528711Y-193549500D01*
X304288214Y-193581161D01*
X304053895Y-193643947D01*
X303829794Y-193736773D01*
X303829785Y-193736777D01*
X303619706Y-193858067D01*
X303427263Y-194005733D01*
X303427256Y-194005739D01*
X303255739Y-194177256D01*
X303255733Y-194177263D01*
X303108067Y-194369706D01*
X302986777Y-194579785D01*
X302986773Y-194579794D01*
X302893947Y-194803895D01*
X302831161Y-195038214D01*
X302799500Y-195278711D01*
X290500500Y-195278711D01*
X290468838Y-195038211D01*
X290406054Y-194803900D01*
X290313224Y-194579788D01*
X290191936Y-194369711D01*
X290044265Y-194177262D01*
X290044260Y-194177256D01*
X289872743Y-194005739D01*
X289872736Y-194005733D01*
X289680293Y-193858067D01*
X289680292Y-193858066D01*
X289680289Y-193858064D01*
X289470212Y-193736776D01*
X289470205Y-193736773D01*
X289246104Y-193643947D01*
X289011785Y-193581161D01*
X288771289Y-193549500D01*
X288771288Y-193549500D01*
X288528712Y-193549500D01*
X288528711Y-193549500D01*
X288288214Y-193581161D01*
X288053895Y-193643947D01*
X287829794Y-193736773D01*
X287829785Y-193736777D01*
X287619706Y-193858067D01*
X287427263Y-194005733D01*
X287427256Y-194005739D01*
X287255739Y-194177256D01*
X287255733Y-194177263D01*
X287108067Y-194369706D01*
X286986777Y-194579785D01*
X286986773Y-194579794D01*
X286893947Y-194803895D01*
X286831161Y-195038214D01*
X286799500Y-195278711D01*
X279065518Y-195278711D01*
X282410972Y-189278711D01*
X286799500Y-189278711D01*
X286799500Y-189521288D01*
X286831161Y-189761785D01*
X286893947Y-189996104D01*
X286986773Y-190220205D01*
X286986776Y-190220212D01*
X287108064Y-190430289D01*
X287108066Y-190430292D01*
X287108067Y-190430293D01*
X287255733Y-190622736D01*
X287255739Y-190622743D01*
X287427256Y-190794260D01*
X287427262Y-190794265D01*
X287619711Y-190941936D01*
X287829788Y-191063224D01*
X288053900Y-191156054D01*
X288288211Y-191218838D01*
X288468586Y-191242584D01*
X288528711Y-191250500D01*
X288528712Y-191250500D01*
X288771289Y-191250500D01*
X288819388Y-191244167D01*
X289011789Y-191218838D01*
X289246100Y-191156054D01*
X289470212Y-191063224D01*
X289680289Y-190941936D01*
X289872738Y-190794265D01*
X290044265Y-190622738D01*
X290191936Y-190430289D01*
X290313224Y-190220212D01*
X290406054Y-189996100D01*
X290468838Y-189761789D01*
X290500500Y-189521288D01*
X290500500Y-189278712D01*
X290500500Y-189278711D01*
X302799500Y-189278711D01*
X302799500Y-189521288D01*
X302831161Y-189761785D01*
X302893947Y-189996104D01*
X302986773Y-190220205D01*
X302986776Y-190220212D01*
X303108064Y-190430289D01*
X303108066Y-190430292D01*
X303108067Y-190430293D01*
X303255733Y-190622736D01*
X303255739Y-190622743D01*
X303427256Y-190794260D01*
X303427262Y-190794265D01*
X303619711Y-190941936D01*
X303829788Y-191063224D01*
X304053900Y-191156054D01*
X304288211Y-191218838D01*
X304468586Y-191242584D01*
X304528711Y-191250500D01*
X304528712Y-191250500D01*
X304771289Y-191250500D01*
X304819388Y-191244167D01*
X305011789Y-191218838D01*
X305246100Y-191156054D01*
X305470212Y-191063224D01*
X305680289Y-190941936D01*
X305872738Y-190794265D01*
X306044265Y-190622738D01*
X306191936Y-190430289D01*
X306313224Y-190220212D01*
X306406054Y-189996100D01*
X306468838Y-189761789D01*
X306500500Y-189521288D01*
X306500500Y-189278712D01*
X306468838Y-189038211D01*
X306406054Y-188803900D01*
X306313224Y-188579788D01*
X306191936Y-188369711D01*
X306044265Y-188177262D01*
X306044260Y-188177256D01*
X305872743Y-188005739D01*
X305872736Y-188005733D01*
X305680293Y-187858067D01*
X305680292Y-187858066D01*
X305680289Y-187858064D01*
X305470212Y-187736776D01*
X305470205Y-187736773D01*
X305246104Y-187643947D01*
X305011785Y-187581161D01*
X304771289Y-187549500D01*
X304771288Y-187549500D01*
X304528712Y-187549500D01*
X304528711Y-187549500D01*
X304288214Y-187581161D01*
X304053895Y-187643947D01*
X303829794Y-187736773D01*
X303829785Y-187736777D01*
X303619706Y-187858067D01*
X303427263Y-188005733D01*
X303427256Y-188005739D01*
X303255739Y-188177256D01*
X303255733Y-188177263D01*
X303108067Y-188369706D01*
X302986777Y-188579785D01*
X302986773Y-188579794D01*
X302893947Y-188803895D01*
X302831161Y-189038214D01*
X302799500Y-189278711D01*
X290500500Y-189278711D01*
X290468838Y-189038211D01*
X290406054Y-188803900D01*
X290313224Y-188579788D01*
X290191936Y-188369711D01*
X290044265Y-188177262D01*
X290044260Y-188177256D01*
X289872743Y-188005739D01*
X289872736Y-188005733D01*
X289680293Y-187858067D01*
X289680292Y-187858066D01*
X289680289Y-187858064D01*
X289470212Y-187736776D01*
X289470205Y-187736773D01*
X289246104Y-187643947D01*
X289011785Y-187581161D01*
X288771289Y-187549500D01*
X288771288Y-187549500D01*
X288528712Y-187549500D01*
X288528711Y-187549500D01*
X288288214Y-187581161D01*
X288053895Y-187643947D01*
X287829794Y-187736773D01*
X287829785Y-187736777D01*
X287619706Y-187858067D01*
X287427263Y-188005733D01*
X287427256Y-188005739D01*
X287255739Y-188177256D01*
X287255733Y-188177263D01*
X287108067Y-188369706D01*
X286986777Y-188579785D01*
X286986773Y-188579794D01*
X286893947Y-188803895D01*
X286831161Y-189038214D01*
X286799500Y-189278711D01*
X282410972Y-189278711D01*
X282734904Y-188697746D01*
X282735663Y-188696407D01*
X282766392Y-188643186D01*
X282766395Y-188643172D01*
X282766709Y-188642418D01*
X282766973Y-188641872D01*
X282767482Y-188640590D01*
X282768185Y-188638856D01*
X282768732Y-188637535D01*
X282768925Y-188636952D01*
X282769223Y-188636197D01*
X282769229Y-188636188D01*
X282784216Y-188576709D01*
X282784641Y-188575077D01*
X282784658Y-188575015D01*
X282800500Y-188515892D01*
X282800500Y-188515885D01*
X282800608Y-188515072D01*
X282800722Y-188514473D01*
X282800890Y-188513035D01*
X282801122Y-188511163D01*
X282801299Y-188509818D01*
X282801333Y-188509236D01*
X282801430Y-188508399D01*
X282800514Y-188447159D01*
X282800500Y-188445304D01*
X282800500Y-183278711D01*
X286799500Y-183278711D01*
X286799500Y-183521288D01*
X286831161Y-183761785D01*
X286893947Y-183996104D01*
X286986773Y-184220205D01*
X286986776Y-184220212D01*
X287108064Y-184430289D01*
X287108066Y-184430292D01*
X287108067Y-184430293D01*
X287255733Y-184622736D01*
X287255739Y-184622743D01*
X287427256Y-184794260D01*
X287427262Y-184794265D01*
X287619711Y-184941936D01*
X287829788Y-185063224D01*
X288053900Y-185156054D01*
X288288211Y-185218838D01*
X288468586Y-185242584D01*
X288528711Y-185250500D01*
X288528712Y-185250500D01*
X288771289Y-185250500D01*
X288819388Y-185244167D01*
X289011789Y-185218838D01*
X289246100Y-185156054D01*
X289470212Y-185063224D01*
X289680289Y-184941936D01*
X289872738Y-184794265D01*
X290044265Y-184622738D01*
X290191936Y-184430289D01*
X290313224Y-184220212D01*
X290406054Y-183996100D01*
X290468838Y-183761789D01*
X290500500Y-183521288D01*
X290500500Y-183278712D01*
X290500500Y-183278711D01*
X302799500Y-183278711D01*
X302799500Y-183521288D01*
X302831161Y-183761785D01*
X302893947Y-183996104D01*
X302986773Y-184220205D01*
X302986776Y-184220212D01*
X303108064Y-184430289D01*
X303108066Y-184430292D01*
X303108067Y-184430293D01*
X303255733Y-184622736D01*
X303255739Y-184622743D01*
X303427256Y-184794260D01*
X303427262Y-184794265D01*
X303619711Y-184941936D01*
X303829788Y-185063224D01*
X304053900Y-185156054D01*
X304288211Y-185218838D01*
X304468586Y-185242584D01*
X304528711Y-185250500D01*
X304528712Y-185250500D01*
X304771289Y-185250500D01*
X304819388Y-185244167D01*
X305011789Y-185218838D01*
X305246100Y-185156054D01*
X305470212Y-185063224D01*
X305680289Y-184941936D01*
X305872738Y-184794265D01*
X306044265Y-184622738D01*
X306191936Y-184430289D01*
X306313224Y-184220212D01*
X306406054Y-183996100D01*
X306468838Y-183761789D01*
X306500500Y-183521288D01*
X306500500Y-183278712D01*
X306468838Y-183038211D01*
X306406054Y-182803900D01*
X306313224Y-182579788D01*
X306191936Y-182369711D01*
X306044265Y-182177262D01*
X306044260Y-182177256D01*
X305872743Y-182005739D01*
X305872736Y-182005733D01*
X305680293Y-181858067D01*
X305680292Y-181858066D01*
X305680289Y-181858064D01*
X305470212Y-181736776D01*
X305470205Y-181736773D01*
X305246104Y-181643947D01*
X305011785Y-181581161D01*
X304771289Y-181549500D01*
X304771288Y-181549500D01*
X304528712Y-181549500D01*
X304528711Y-181549500D01*
X304288214Y-181581161D01*
X304053895Y-181643947D01*
X303829794Y-181736773D01*
X303829785Y-181736777D01*
X303619706Y-181858067D01*
X303427263Y-182005733D01*
X303427256Y-182005739D01*
X303255739Y-182177256D01*
X303255733Y-182177263D01*
X303108067Y-182369706D01*
X302986777Y-182579785D01*
X302986773Y-182579794D01*
X302893947Y-182803895D01*
X302831161Y-183038214D01*
X302799500Y-183278711D01*
X290500500Y-183278711D01*
X290468838Y-183038211D01*
X290406054Y-182803900D01*
X290313224Y-182579788D01*
X290191936Y-182369711D01*
X290044265Y-182177262D01*
X290044260Y-182177256D01*
X289872743Y-182005739D01*
X289872736Y-182005733D01*
X289680293Y-181858067D01*
X289680292Y-181858066D01*
X289680289Y-181858064D01*
X289470212Y-181736776D01*
X289470205Y-181736773D01*
X289246104Y-181643947D01*
X289011785Y-181581161D01*
X288771289Y-181549500D01*
X288771288Y-181549500D01*
X288528712Y-181549500D01*
X288528711Y-181549500D01*
X288288214Y-181581161D01*
X288053895Y-181643947D01*
X287829794Y-181736773D01*
X287829785Y-181736777D01*
X287619706Y-181858067D01*
X287427263Y-182005733D01*
X287427256Y-182005739D01*
X287255739Y-182177256D01*
X287255733Y-182177263D01*
X287108067Y-182369706D01*
X286986777Y-182579785D01*
X286986773Y-182579794D01*
X286893947Y-182803895D01*
X286831161Y-183038214D01*
X286799500Y-183278711D01*
X282800500Y-183278711D01*
X282800500Y-177278711D01*
X286799500Y-177278711D01*
X286799500Y-177521288D01*
X286831161Y-177761785D01*
X286893947Y-177996104D01*
X286986773Y-178220205D01*
X286986776Y-178220212D01*
X287108064Y-178430289D01*
X287108066Y-178430292D01*
X287108067Y-178430293D01*
X287255733Y-178622736D01*
X287255739Y-178622743D01*
X287427256Y-178794260D01*
X287427262Y-178794265D01*
X287619711Y-178941936D01*
X287829788Y-179063224D01*
X288053900Y-179156054D01*
X288288211Y-179218838D01*
X288468586Y-179242584D01*
X288528711Y-179250500D01*
X288528712Y-179250500D01*
X288771289Y-179250500D01*
X288819388Y-179244167D01*
X289011789Y-179218838D01*
X289246100Y-179156054D01*
X289470212Y-179063224D01*
X289680289Y-178941936D01*
X289872738Y-178794265D01*
X290044265Y-178622738D01*
X290191936Y-178430289D01*
X290313224Y-178220212D01*
X290406054Y-177996100D01*
X290468838Y-177761789D01*
X290500500Y-177521288D01*
X290500500Y-177278712D01*
X290500500Y-177278711D01*
X302799500Y-177278711D01*
X302799500Y-177521288D01*
X302831161Y-177761785D01*
X302893947Y-177996104D01*
X302986773Y-178220205D01*
X302986776Y-178220212D01*
X303108064Y-178430289D01*
X303108066Y-178430292D01*
X303108067Y-178430293D01*
X303255733Y-178622736D01*
X303255739Y-178622743D01*
X303427256Y-178794260D01*
X303427262Y-178794265D01*
X303619711Y-178941936D01*
X303829788Y-179063224D01*
X304053900Y-179156054D01*
X304288211Y-179218838D01*
X304468586Y-179242584D01*
X304528711Y-179250500D01*
X304528712Y-179250500D01*
X304771289Y-179250500D01*
X304819388Y-179244167D01*
X305011789Y-179218838D01*
X305246100Y-179156054D01*
X305470212Y-179063224D01*
X305680289Y-178941936D01*
X305872738Y-178794265D01*
X306044265Y-178622738D01*
X306191936Y-178430289D01*
X306313224Y-178220212D01*
X306406054Y-177996100D01*
X306468838Y-177761789D01*
X306500500Y-177521288D01*
X306500500Y-177278712D01*
X306468838Y-177038211D01*
X306406054Y-176803900D01*
X306313224Y-176579788D01*
X306191936Y-176369711D01*
X306044265Y-176177262D01*
X306044260Y-176177256D01*
X305872743Y-176005739D01*
X305872736Y-176005733D01*
X305680293Y-175858067D01*
X305680292Y-175858066D01*
X305680289Y-175858064D01*
X305470212Y-175736776D01*
X305470205Y-175736773D01*
X305246104Y-175643947D01*
X305011785Y-175581161D01*
X304771289Y-175549500D01*
X304771288Y-175549500D01*
X304528712Y-175549500D01*
X304528711Y-175549500D01*
X304288214Y-175581161D01*
X304053895Y-175643947D01*
X303829794Y-175736773D01*
X303829785Y-175736777D01*
X303619706Y-175858067D01*
X303427263Y-176005733D01*
X303427256Y-176005739D01*
X303255739Y-176177256D01*
X303255733Y-176177263D01*
X303108067Y-176369706D01*
X302986777Y-176579785D01*
X302986773Y-176579794D01*
X302893947Y-176803895D01*
X302831161Y-177038214D01*
X302799500Y-177278711D01*
X290500500Y-177278711D01*
X290468838Y-177038211D01*
X290406054Y-176803900D01*
X290313224Y-176579788D01*
X290191936Y-176369711D01*
X290044265Y-176177262D01*
X290044260Y-176177256D01*
X289872743Y-176005739D01*
X289872736Y-176005733D01*
X289680293Y-175858067D01*
X289680292Y-175858066D01*
X289680289Y-175858064D01*
X289470212Y-175736776D01*
X289470205Y-175736773D01*
X289246104Y-175643947D01*
X289011785Y-175581161D01*
X288771289Y-175549500D01*
X288771288Y-175549500D01*
X288528712Y-175549500D01*
X288528711Y-175549500D01*
X288288214Y-175581161D01*
X288053895Y-175643947D01*
X287829794Y-175736773D01*
X287829785Y-175736777D01*
X287619706Y-175858067D01*
X287427263Y-176005733D01*
X287427256Y-176005739D01*
X287255739Y-176177256D01*
X287255733Y-176177263D01*
X287108067Y-176369706D01*
X286986777Y-176579785D01*
X286986773Y-176579794D01*
X286893947Y-176803895D01*
X286831161Y-177038214D01*
X286799500Y-177278711D01*
X282800500Y-177278711D01*
X282800500Y-165294108D01*
X288629500Y-165294108D01*
X288629500Y-169305891D01*
X288663608Y-169433187D01*
X288696554Y-169490250D01*
X288729500Y-169547314D01*
X288822686Y-169640500D01*
X288936814Y-169706392D01*
X289064108Y-169740500D01*
X289064110Y-169740500D01*
X304195890Y-169740500D01*
X304195892Y-169740500D01*
X304323186Y-169706392D01*
X304437314Y-169640500D01*
X304530500Y-169547314D01*
X304596392Y-169433186D01*
X304630500Y-169305892D01*
X304630500Y-165294108D01*
X304596392Y-165166814D01*
X304530500Y-165052686D01*
X304437314Y-164959500D01*
X304380250Y-164926554D01*
X304323187Y-164893608D01*
X304259539Y-164876554D01*
X304195892Y-164859500D01*
X289195892Y-164859500D01*
X289064108Y-164859500D01*
X288936812Y-164893608D01*
X288822686Y-164959500D01*
X288822683Y-164959502D01*
X288729502Y-165052683D01*
X288729500Y-165052686D01*
X288663608Y-165166812D01*
X288629500Y-165294108D01*
X282800500Y-165294108D01*
X282800500Y-144736906D01*
X282801363Y-144722301D01*
X282804777Y-144693519D01*
X282801779Y-144672804D01*
X282800500Y-144655043D01*
X282800500Y-144634109D01*
X282800498Y-144634100D01*
X282792995Y-144606102D01*
X282790053Y-144591795D01*
X282785900Y-144563093D01*
X282777641Y-144543855D01*
X282771810Y-144527032D01*
X282766393Y-144506818D01*
X282766392Y-144506814D01*
X282751898Y-144481710D01*
X282745342Y-144468629D01*
X282733909Y-144441998D01*
X282733907Y-144441995D01*
X282720956Y-144425558D01*
X282710967Y-144410814D01*
X282700504Y-144392692D01*
X282700498Y-144392684D01*
X282680004Y-144372190D01*
X282670286Y-144361252D01*
X282652349Y-144338487D01*
X282652342Y-144338482D01*
X282635579Y-144325957D01*
X282622118Y-144314303D01*
X282607317Y-144299502D01*
X282607311Y-144299498D01*
X282582207Y-144285004D01*
X282569994Y-144276956D01*
X278285578Y-141075956D01*
X278272113Y-141064299D01*
X278257315Y-141049500D01*
X278232208Y-141035004D01*
X278219996Y-141026958D01*
X278196778Y-141009612D01*
X278196776Y-141009610D01*
X278196775Y-141009609D01*
X278196773Y-141009608D01*
X278177332Y-141001846D01*
X278161313Y-140994073D01*
X278143191Y-140983610D01*
X278143187Y-140983608D01*
X278115183Y-140976104D01*
X278101303Y-140971491D01*
X278074384Y-140960744D01*
X278074387Y-140960744D01*
X278053596Y-140958278D01*
X278036118Y-140954918D01*
X278015898Y-140949501D01*
X278015894Y-140949500D01*
X278015892Y-140949500D01*
X278015889Y-140949500D01*
X277986908Y-140949500D01*
X277972304Y-140948637D01*
X277943522Y-140945223D01*
X277943515Y-140945223D01*
X277922804Y-140948221D01*
X277905043Y-140949500D01*
X267218725Y-140949500D01*
X267211295Y-140949277D01*
X267164213Y-140946450D01*
X267161614Y-140946983D01*
X267136756Y-140949500D01*
X267134103Y-140949500D01*
X267088539Y-140961708D01*
X267081312Y-140963414D01*
X267035108Y-140972869D01*
X267035097Y-140972873D01*
X267032716Y-140974064D01*
X267009386Y-140982918D01*
X267006818Y-140983606D01*
X267006815Y-140983607D01*
X267006814Y-140983608D01*
X267006811Y-140983610D01*
X266965967Y-141007191D01*
X266959422Y-141010712D01*
X259229954Y-144875446D01*
X259161189Y-144887821D01*
X259096650Y-144861053D01*
X259056828Y-144803643D01*
X259050500Y-144764537D01*
X259050500Y-138143713D01*
X260424500Y-138143713D01*
X260424500Y-138356286D01*
X260457753Y-138566239D01*
X260523444Y-138768414D01*
X260619951Y-138957820D01*
X260744890Y-139129786D01*
X260895213Y-139280109D01*
X261067179Y-139405048D01*
X261067181Y-139405049D01*
X261067184Y-139405051D01*
X261256588Y-139501557D01*
X261458757Y-139567246D01*
X261668713Y-139600500D01*
X261668714Y-139600500D01*
X261881286Y-139600500D01*
X261881287Y-139600500D01*
X262091243Y-139567246D01*
X262293412Y-139501557D01*
X262482816Y-139405051D01*
X262504789Y-139389086D01*
X262654786Y-139280109D01*
X262654788Y-139280106D01*
X262654792Y-139280104D01*
X262805104Y-139129792D01*
X262805106Y-139129788D01*
X262805109Y-139129786D01*
X262930048Y-138957820D01*
X262930047Y-138957820D01*
X262930051Y-138957816D01*
X263026557Y-138768412D01*
X263092246Y-138566243D01*
X263125500Y-138356287D01*
X263125500Y-138143713D01*
X274394500Y-138143713D01*
X274394500Y-138356286D01*
X274427753Y-138566239D01*
X274493444Y-138768414D01*
X274589951Y-138957820D01*
X274714890Y-139129786D01*
X274865213Y-139280109D01*
X275037179Y-139405048D01*
X275037181Y-139405049D01*
X275037184Y-139405051D01*
X275226588Y-139501557D01*
X275428757Y-139567246D01*
X275638713Y-139600500D01*
X275638714Y-139600500D01*
X275851286Y-139600500D01*
X275851287Y-139600500D01*
X276061243Y-139567246D01*
X276263412Y-139501557D01*
X276452816Y-139405051D01*
X276474789Y-139389086D01*
X276624786Y-139280109D01*
X276624788Y-139280106D01*
X276624792Y-139280104D01*
X276775104Y-139129792D01*
X276775106Y-139129788D01*
X276775109Y-139129786D01*
X276900048Y-138957820D01*
X276900047Y-138957820D01*
X276900051Y-138957816D01*
X276996557Y-138768412D01*
X277062246Y-138566243D01*
X277095500Y-138356287D01*
X277095500Y-138143713D01*
X279474500Y-138143713D01*
X279474500Y-138356286D01*
X279507753Y-138566239D01*
X279573444Y-138768414D01*
X279669951Y-138957820D01*
X279794890Y-139129786D01*
X279945213Y-139280109D01*
X280117179Y-139405048D01*
X280117181Y-139405049D01*
X280117184Y-139405051D01*
X280306588Y-139501557D01*
X280508757Y-139567246D01*
X280718713Y-139600500D01*
X280718714Y-139600500D01*
X280931286Y-139600500D01*
X280931287Y-139600500D01*
X281141243Y-139567246D01*
X281343412Y-139501557D01*
X281532816Y-139405051D01*
X281554789Y-139389086D01*
X281704786Y-139280109D01*
X281704788Y-139280106D01*
X281704792Y-139280104D01*
X281855104Y-139129792D01*
X281855106Y-139129788D01*
X281855109Y-139129786D01*
X281980048Y-138957820D01*
X281980047Y-138957820D01*
X281980051Y-138957816D01*
X282076557Y-138768412D01*
X282142246Y-138566243D01*
X282175500Y-138356287D01*
X282175500Y-138143713D01*
X330274500Y-138143713D01*
X330274500Y-138356286D01*
X330307753Y-138566239D01*
X330373444Y-138768414D01*
X330469951Y-138957820D01*
X330594890Y-139129786D01*
X330745213Y-139280109D01*
X330917179Y-139405048D01*
X330917181Y-139405049D01*
X330917184Y-139405051D01*
X331106588Y-139501557D01*
X331308757Y-139567246D01*
X331518713Y-139600500D01*
X331518714Y-139600500D01*
X331731286Y-139600500D01*
X331731287Y-139600500D01*
X331941243Y-139567246D01*
X332143412Y-139501557D01*
X332332816Y-139405051D01*
X332354789Y-139389086D01*
X332504786Y-139280109D01*
X332504788Y-139280106D01*
X332504792Y-139280104D01*
X332655104Y-139129792D01*
X332655106Y-139129788D01*
X332655109Y-139129786D01*
X332780048Y-138957820D01*
X332780047Y-138957820D01*
X332780051Y-138957816D01*
X332876557Y-138768412D01*
X332942246Y-138566243D01*
X332975500Y-138356287D01*
X332975500Y-138143713D01*
X332942246Y-137933757D01*
X332876557Y-137731588D01*
X332780051Y-137542184D01*
X332780049Y-137542181D01*
X332780048Y-137542179D01*
X332655109Y-137370213D01*
X332504786Y-137219890D01*
X332332820Y-137094951D01*
X332143414Y-136998444D01*
X332143413Y-136998443D01*
X332143412Y-136998443D01*
X331941243Y-136932754D01*
X331941241Y-136932753D01*
X331941240Y-136932753D01*
X331779957Y-136907208D01*
X331731287Y-136899500D01*
X331518713Y-136899500D01*
X331470042Y-136907208D01*
X331308760Y-136932753D01*
X331106585Y-136998444D01*
X330917179Y-137094951D01*
X330745213Y-137219890D01*
X330594890Y-137370213D01*
X330469951Y-137542179D01*
X330373444Y-137731585D01*
X330307753Y-137933760D01*
X330274500Y-138143713D01*
X282175500Y-138143713D01*
X282142246Y-137933757D01*
X282076557Y-137731588D01*
X281980051Y-137542184D01*
X281980049Y-137542181D01*
X281980048Y-137542179D01*
X281855109Y-137370213D01*
X281704786Y-137219890D01*
X281532820Y-137094951D01*
X281343414Y-136998444D01*
X281343413Y-136998443D01*
X281343412Y-136998443D01*
X281141243Y-136932754D01*
X281141241Y-136932753D01*
X281141240Y-136932753D01*
X280979957Y-136907208D01*
X280931287Y-136899500D01*
X280718713Y-136899500D01*
X280670042Y-136907208D01*
X280508760Y-136932753D01*
X280306585Y-136998444D01*
X280117179Y-137094951D01*
X279945213Y-137219890D01*
X279794890Y-137370213D01*
X279669951Y-137542179D01*
X279573444Y-137731585D01*
X279507753Y-137933760D01*
X279474500Y-138143713D01*
X277095500Y-138143713D01*
X277062246Y-137933757D01*
X276996557Y-137731588D01*
X276900051Y-137542184D01*
X276900049Y-137542181D01*
X276900048Y-137542179D01*
X276775109Y-137370213D01*
X276624786Y-137219890D01*
X276452820Y-137094951D01*
X276263414Y-136998444D01*
X276263413Y-136998443D01*
X276263412Y-136998443D01*
X276061243Y-136932754D01*
X276061241Y-136932753D01*
X276061240Y-136932753D01*
X275899957Y-136907208D01*
X275851287Y-136899500D01*
X275638713Y-136899500D01*
X275590042Y-136907208D01*
X275428760Y-136932753D01*
X275226585Y-136998444D01*
X275037179Y-137094951D01*
X274865213Y-137219890D01*
X274714890Y-137370213D01*
X274589951Y-137542179D01*
X274493444Y-137731585D01*
X274427753Y-137933760D01*
X274394500Y-138143713D01*
X263125500Y-138143713D01*
X263092246Y-137933757D01*
X263026557Y-137731588D01*
X262930051Y-137542184D01*
X262930049Y-137542181D01*
X262930048Y-137542179D01*
X262805109Y-137370213D01*
X262654786Y-137219890D01*
X262482820Y-137094951D01*
X262293414Y-136998444D01*
X262293413Y-136998443D01*
X262293412Y-136998443D01*
X262091243Y-136932754D01*
X262091241Y-136932753D01*
X262091240Y-136932753D01*
X261929957Y-136907208D01*
X261881287Y-136899500D01*
X261668713Y-136899500D01*
X261620042Y-136907208D01*
X261458760Y-136932753D01*
X261256585Y-136998444D01*
X261067179Y-137094951D01*
X260895213Y-137219890D01*
X260744890Y-137370213D01*
X260619951Y-137542179D01*
X260523444Y-137731585D01*
X260457753Y-137933760D01*
X260424500Y-138143713D01*
X259050500Y-138143713D01*
X259050500Y-128024909D01*
X259070185Y-127957870D01*
X259122989Y-127912115D01*
X259174579Y-127900909D01*
X334225583Y-127950090D01*
G37*
%TD.AperFunction*%
%TD*%
M02*
