%TF.GenerationSoftware,KiCad,Pcbnew,8.0.3*%
%TF.CreationDate,2025-03-11T13:15:15+08:00*%
%TF.ProjectId,uyLy_LFChassis,75794c79-5f4c-4464-9368-61737369732e,rev?*%
%TF.SameCoordinates,Original*%
%TF.FileFunction,Soldermask,Bot*%
%TF.FilePolarity,Negative*%
%FSLAX46Y46*%
G04 Gerber Fmt 4.6, Leading zero omitted, Abs format (unit mm)*
G04 Created by KiCad (PCBNEW 8.0.3) date 2025-03-11 13:15:15*
%MOMM*%
%LPD*%
G01*
G04 APERTURE LIST*
G04 Aperture macros list*
%AMRoundRect*
0 Rectangle with rounded corners*
0 $1 Rounding radius*
0 $2 $3 $4 $5 $6 $7 $8 $9 X,Y pos of 4 corners*
0 Add a 4 corners polygon primitive as box body*
4,1,4,$2,$3,$4,$5,$6,$7,$8,$9,$2,$3,0*
0 Add four circle primitives for the rounded corners*
1,1,$1+$1,$2,$3*
1,1,$1+$1,$4,$5*
1,1,$1+$1,$6,$7*
1,1,$1+$1,$8,$9*
0 Add four rect primitives between the rounded corners*
20,1,$1+$1,$2,$3,$4,$5,0*
20,1,$1+$1,$4,$5,$6,$7,0*
20,1,$1+$1,$6,$7,$8,$9,0*
20,1,$1+$1,$8,$9,$2,$3,0*%
G04 Aperture macros list end*
%ADD10C,3.200000*%
%ADD11RoundRect,0.250000X-0.750000X0.600000X-0.750000X-0.600000X0.750000X-0.600000X0.750000X0.600000X0*%
%ADD12O,2.000000X1.700000*%
%ADD13RoundRect,0.250000X-0.600000X-0.750000X0.600000X-0.750000X0.600000X0.750000X-0.600000X0.750000X0*%
%ADD14O,1.700000X2.000000*%
%ADD15C,2.200000*%
%ADD16R,1.700000X1.700000*%
%ADD17R,1.600000X1.600000*%
%ADD18O,1.600000X1.600000*%
%ADD19O,1.700000X1.700000*%
%ADD20RoundRect,0.250000X0.750000X-0.600000X0.750000X0.600000X-0.750000X0.600000X-0.750000X-0.600000X0*%
%ADD21C,1.879600*%
G04 APERTURE END LIST*
D10*
%TO.C,REF\u002A\u002A*%
X304650000Y-183400000D03*
%TD*%
D11*
%TO.C,J2*%
X333900000Y-246700000D03*
D12*
X333900000Y-249200000D03*
%TD*%
D13*
%TO.C,J4*%
X303950000Y-272500000D03*
D14*
X306450000Y-272500000D03*
%TD*%
D15*
%TO.C,REF\u002A\u002A*%
X316700000Y-276200000D03*
%TD*%
%TO.C,REF\u002A\u002A*%
X276700000Y-276200000D03*
%TD*%
D16*
%TO.C,J6*%
X309275000Y-218450000D03*
%TD*%
D17*
%TO.C,SW1*%
X284830000Y-280700000D03*
D18*
X287370000Y-280700000D03*
X289910000Y-280700000D03*
X292450000Y-280700000D03*
X292450000Y-273080000D03*
X289910000Y-273080000D03*
X287370000Y-273080000D03*
X284830000Y-273080000D03*
%TD*%
D10*
%TO.C,REF\u002A\u002A*%
X304650000Y-195400000D03*
%TD*%
%TO.C,REF\u002A\u002A*%
X288650000Y-183400000D03*
%TD*%
D15*
%TO.C,REF\u002A\u002A*%
X261775000Y-138250000D03*
X275745000Y-138250000D03*
X280825000Y-138250000D03*
X331625000Y-138250000D03*
%TD*%
D10*
%TO.C,REF\u002A\u002A*%
X288650000Y-195400000D03*
%TD*%
D16*
%TO.C,J5*%
X312925000Y-221525000D03*
D19*
X315465000Y-221525000D03*
%TD*%
D15*
%TO.C,REF\u002A\u002A*%
X254450000Y-258200000D03*
X254450000Y-276200000D03*
%TD*%
%TO.C,REF\u002A\u002A*%
X277700000Y-258400000D03*
%TD*%
D10*
%TO.C,REF\u002A\u002A*%
X288650000Y-177400000D03*
%TD*%
%TO.C,REF\u002A\u002A*%
X304650000Y-189400000D03*
%TD*%
%TO.C,REF\u002A\u002A*%
X304650000Y-177400000D03*
%TD*%
D17*
%TO.C,A1*%
X277650000Y-242060000D03*
D18*
X280190000Y-242060000D03*
X282730000Y-242060000D03*
X285270000Y-242060000D03*
X287810000Y-242060000D03*
X290350000Y-242060000D03*
X292890000Y-242060000D03*
X295430000Y-242060000D03*
X297970000Y-242060000D03*
X300510000Y-242060000D03*
X303050000Y-242060000D03*
X305590000Y-242060000D03*
X308130000Y-242060000D03*
X310670000Y-242060000D03*
X313210000Y-242060000D03*
X313210000Y-226820000D03*
X310670000Y-226820000D03*
X308130000Y-226820000D03*
X305590000Y-226820000D03*
X303050000Y-226820000D03*
X300510000Y-226820000D03*
X297970000Y-226820000D03*
X295430000Y-226820000D03*
X292890000Y-226820000D03*
X290350000Y-226820000D03*
X287810000Y-226820000D03*
X285270000Y-226820000D03*
X282730000Y-226820000D03*
X280190000Y-226820000D03*
X277650000Y-226820000D03*
%TD*%
D20*
%TO.C,J3*%
X259500000Y-249200000D03*
D12*
X259500000Y-246700000D03*
%TD*%
D16*
%TO.C,J1*%
X305610000Y-221650000D03*
D19*
X303070000Y-221650000D03*
X300530000Y-221650000D03*
X297990000Y-221650000D03*
X295450000Y-221650000D03*
X292910000Y-221650000D03*
X290370000Y-221650000D03*
X287830000Y-221650000D03*
%TD*%
D15*
%TO.C,REF\u002A\u002A*%
X338950000Y-276200000D03*
X338950000Y-258200000D03*
%TD*%
D10*
%TO.C,REF\u002A\u002A*%
X288650000Y-189400000D03*
%TD*%
D21*
%TO.C,U1*%
X287785000Y-264540000D03*
X290325000Y-264540000D03*
X292865000Y-264540000D03*
X295405000Y-264540000D03*
X297945000Y-264540000D03*
X300485000Y-264540000D03*
X303025000Y-264540000D03*
X305565000Y-264540000D03*
X305565000Y-249300000D03*
X303025000Y-249300000D03*
X300485000Y-249300000D03*
X297945000Y-249300000D03*
X295405000Y-249300000D03*
X292865000Y-249300000D03*
X290325000Y-249300000D03*
X287785000Y-249300000D03*
%TD*%
D15*
%TO.C,REF\u002A\u002A*%
X315700000Y-258400000D03*
%TD*%
M02*
