%TF.GenerationSoftware,KiCad,Pcbnew,8.0.3*%
%TF.CreationDate,2025-03-11T13:15:15+08:00*%
%TF.ProjectId,uyLy_LFChassis,75794c79-5f4c-4464-9368-61737369732e,rev?*%
%TF.SameCoordinates,Original*%
%TF.FileFunction,Other,Comment*%
%FSLAX46Y46*%
G04 Gerber Fmt 4.6, Leading zero omitted, Abs format (unit mm)*
G04 Created by KiCad (PCBNEW 8.0.3) date 2025-03-11 13:15:15*
%MOMM*%
%LPD*%
G01*
G04 APERTURE LIST*
%ADD10C,0.150000*%
G04 APERTURE END LIST*
D10*
%TO.C,REF\u002A\u002A*%
X307850000Y-183400000D02*
G75*
G02*
X301450000Y-183400000I-3200000J0D01*
G01*
X301450000Y-183400000D02*
G75*
G02*
X307850000Y-183400000I3200000J0D01*
G01*
X318900000Y-276200000D02*
G75*
G02*
X314500000Y-276200000I-2200000J0D01*
G01*
X314500000Y-276200000D02*
G75*
G02*
X318900000Y-276200000I2200000J0D01*
G01*
X278900000Y-276200000D02*
G75*
G02*
X274500000Y-276200000I-2200000J0D01*
G01*
X274500000Y-276200000D02*
G75*
G02*
X278900000Y-276200000I2200000J0D01*
G01*
X307850000Y-195400000D02*
G75*
G02*
X301450000Y-195400000I-3200000J0D01*
G01*
X301450000Y-195400000D02*
G75*
G02*
X307850000Y-195400000I3200000J0D01*
G01*
X291850000Y-183400000D02*
G75*
G02*
X285450000Y-183400000I-3200000J0D01*
G01*
X285450000Y-183400000D02*
G75*
G02*
X291850000Y-183400000I3200000J0D01*
G01*
X263975000Y-138250000D02*
G75*
G02*
X259575000Y-138250000I-2200000J0D01*
G01*
X259575000Y-138250000D02*
G75*
G02*
X263975000Y-138250000I2200000J0D01*
G01*
X277945000Y-138250000D02*
G75*
G02*
X273545000Y-138250000I-2200000J0D01*
G01*
X273545000Y-138250000D02*
G75*
G02*
X277945000Y-138250000I2200000J0D01*
G01*
X283025000Y-138250000D02*
G75*
G02*
X278625000Y-138250000I-2200000J0D01*
G01*
X278625000Y-138250000D02*
G75*
G02*
X283025000Y-138250000I2200000J0D01*
G01*
X333825000Y-138250000D02*
G75*
G02*
X329425000Y-138250000I-2200000J0D01*
G01*
X329425000Y-138250000D02*
G75*
G02*
X333825000Y-138250000I2200000J0D01*
G01*
X291850000Y-195400000D02*
G75*
G02*
X285450000Y-195400000I-3200000J0D01*
G01*
X285450000Y-195400000D02*
G75*
G02*
X291850000Y-195400000I3200000J0D01*
G01*
X256650000Y-258200000D02*
G75*
G02*
X252250000Y-258200000I-2200000J0D01*
G01*
X252250000Y-258200000D02*
G75*
G02*
X256650000Y-258200000I2200000J0D01*
G01*
X256650000Y-276200000D02*
G75*
G02*
X252250000Y-276200000I-2200000J0D01*
G01*
X252250000Y-276200000D02*
G75*
G02*
X256650000Y-276200000I2200000J0D01*
G01*
X279900000Y-258400000D02*
G75*
G02*
X275500000Y-258400000I-2200000J0D01*
G01*
X275500000Y-258400000D02*
G75*
G02*
X279900000Y-258400000I2200000J0D01*
G01*
X291850000Y-177400000D02*
G75*
G02*
X285450000Y-177400000I-3200000J0D01*
G01*
X285450000Y-177400000D02*
G75*
G02*
X291850000Y-177400000I3200000J0D01*
G01*
X307850000Y-189400000D02*
G75*
G02*
X301450000Y-189400000I-3200000J0D01*
G01*
X301450000Y-189400000D02*
G75*
G02*
X307850000Y-189400000I3200000J0D01*
G01*
X307850000Y-177400000D02*
G75*
G02*
X301450000Y-177400000I-3200000J0D01*
G01*
X301450000Y-177400000D02*
G75*
G02*
X307850000Y-177400000I3200000J0D01*
G01*
X341150000Y-258200000D02*
G75*
G02*
X336750000Y-258200000I-2200000J0D01*
G01*
X336750000Y-258200000D02*
G75*
G02*
X341150000Y-258200000I2200000J0D01*
G01*
X341150000Y-276200000D02*
G75*
G02*
X336750000Y-276200000I-2200000J0D01*
G01*
X336750000Y-276200000D02*
G75*
G02*
X341150000Y-276200000I2200000J0D01*
G01*
X291850000Y-189400000D02*
G75*
G02*
X285450000Y-189400000I-3200000J0D01*
G01*
X285450000Y-189400000D02*
G75*
G02*
X291850000Y-189400000I3200000J0D01*
G01*
X317900000Y-258400000D02*
G75*
G02*
X313500000Y-258400000I-2200000J0D01*
G01*
X313500000Y-258400000D02*
G75*
G02*
X317900000Y-258400000I2200000J0D01*
G01*
%TD*%
M02*
